{"glyphs":{"0":{"ha":943,"x_min":83,"x_max":860,"o":"m 472 -19 q 269 45 357 -19 q 132 225 181 110 q 83 494 83 340 q 132 764 83 649 q 269 943 181 879 q 474 1007 357 1007 q 677 943 590 1007 q 812 765 764 879 q 860 496 860 650 q 811 226 860 342 q 675 45 763 110 q 472 -19 588 -19 m 474 104 q 660 208 593 104 q 728 492 728 311 q 660 779 728 675 q 474 883 593 883 q 285 779 354 883 q 215 494 215 675 q 285 209 215 314 q 474 104 354 104 z "},"1":{"ha":707,"x_min":63,"x_max":554,"o":"m 488 -4 q 422 0 456 -4 l 422 835 q 244 724 319 767 q 118 658 169 682 q 63 767 71 706 q 265 885 174 829 q 450 1003 357 942 q 510 997 481 1007 q 554 965 540 986 l 554 0 q 488 -4 521 -4 z "},"2":{"ha":836,"x_min":61,"x_max":788,"o":"m 96 -1 q 72 37 82 8 q 63 92 61 65 q 147 153 99 115 q 247 237 194 192 q 349 330 299 282 q 442 421 400 378 q 564 581 526 511 q 601 714 601 650 q 551 842 601 793 q 417 890 501 890 q 268 835 328 890 q 196 682 208 779 q 71 714 115 674 q 137 876 88 810 q 260 978 186 943 q 422 1014 333 1014 q 585 976 515 1014 q 693 873 654 939 q 732 719 732 807 q 693 556 732 636 q 568 376 654 475 q 436 242 507 307 q 294 124 365 178 q 306 124 300 124 q 327 124 321 124 q 341 122 333 124 q 367 119 349 121 q 422 113 385 117 q 499 104 467 107 q 554 101 532 101 q 655 113 601 101 q 747 142 708 125 q 788 35 788 101 q 695 -4 753 11 q 551 -19 638 -19 q 501 -17 529 -19 q 415 -6 472 -14 q 340 5 368 1 q 292 10 311 8 q 250 11 272 11 q 164 8 207 11 q 96 -1 121 4 z "},"3":{"ha":800,"x_min":69,"x_max":717,"o":"m 393 -19 q 206 23 296 -19 q 69 140 117 65 q 108 188 82 164 q 164 225 135 211 q 213 169 182 197 q 289 122 243 140 q 399 103 335 103 q 535 149 482 103 q 589 271 589 194 q 533 393 589 349 q 364 438 476 438 l 265 438 q 260 465 261 451 q 258 494 258 479 q 260 524 258 510 q 265 554 261 539 l 364 554 q 507 602 451 554 q 563 728 563 650 q 515 849 563 806 q 396 892 468 892 q 270 853 324 892 q 197 740 217 815 q 81 785 136 742 q 139 899 97 847 q 245 983 181 951 q 393 1014 310 1014 q 555 974 489 1014 q 656 872 621 935 q 690 738 690 808 q 661 613 690 675 q 560 504 632 550 q 675 403 633 468 q 717 256 717 338 q 681 127 717 190 q 573 22 644 64 q 393 -19 501 -19 z "},"4":{"ha":842,"x_min":69,"x_max":807,"o":"m 93 258 q 76 302 83 274 q 69 349 69 331 l 365 1013 q 430 997 397 1013 q 476 965 463 982 l 211 374 l 510 374 l 510 654 q 575 658 542 658 q 639 654 606 658 l 639 374 l 800 374 q 807 317 807 343 q 805 288 807 303 q 800 258 803 274 l 639 258 l 639 0 q 575 -4 606 -4 q 510 0 542 -4 l 510 258 l 93 258 z "},"5":{"ha":767,"x_min":42,"x_max":690,"o":"m 353 -19 q 234 0 294 -19 q 124 56 174 19 q 42 146 74 93 q 81 188 54 165 q 136 225 107 211 q 184 169 154 197 q 258 122 214 140 q 360 103 301 103 q 506 159 451 103 q 561 297 561 215 q 542 386 561 343 q 477 457 522 429 q 353 485 432 485 q 263 476 301 485 q 200 458 225 468 q 161 492 179 474 q 129 532 143 511 l 207 989 l 638 989 q 645 951 643 975 q 645 905 647 928 q 638 871 643 882 l 306 871 l 263 597 q 310 603 285 601 q 365 606 336 606 q 540 565 467 606 q 651 455 613 525 q 690 297 690 385 q 670 186 690 242 q 608 84 650 131 q 503 9 567 38 q 353 -19 439 -19 z "},"6":{"ha":824,"x_min":83,"x_max":754,"o":"m 438 -19 q 178 108 274 -19 q 83 494 83 235 q 130 768 83 651 q 261 949 176 885 q 458 1014 346 1014 q 613 969 542 1014 q 724 833 683 925 q 678 795 707 811 q 621 776 650 779 q 550 865 594 838 q 450 893 506 893 q 275 785 339 893 q 213 489 211 678 q 279 547 239 524 q 364 581 319 569 q 447 593 408 593 q 617 550 549 593 q 719 440 685 507 q 754 301 754 374 q 710 132 754 204 q 593 20 665 60 q 438 -19 521 -19 m 436 101 q 538 127 496 101 q 603 196 581 153 q 626 289 626 239 q 576 423 626 371 q 442 475 525 475 q 299 423 353 475 q 244 289 244 371 q 267 196 244 239 q 333 127 290 153 q 436 101 376 101 z "},"7":{"ha":764,"x_min":49,"x_max":711,"o":"m 376 -15 q 258 28 299 -12 l 568 871 l 61 871 q 61 989 49 932 l 676 989 q 704 941 697 972 q 707 882 711 910 l 376 -15 z "},"8":{"ha":811,"x_min":83,"x_max":728,"o":"m 406 -19 q 240 15 313 -19 q 125 112 167 50 q 83 251 83 174 q 133 397 83 329 q 272 513 182 464 l 289 522 q 126 768 126 622 q 162 896 126 840 q 260 983 197 951 q 406 1014 324 1014 q 551 983 488 1014 q 649 896 614 951 q 685 768 685 840 q 522 522 685 622 l 539 513 q 678 397 629 464 q 728 251 728 329 q 686 112 728 174 q 572 15 644 50 q 406 -19 500 -19 m 383 596 l 406 583 l 428 596 q 558 765 558 667 q 517 863 558 826 q 406 900 475 900 q 294 863 336 900 q 253 765 253 826 q 383 596 253 667 m 406 96 q 547 139 493 96 q 601 251 601 182 q 472 422 601 354 l 406 458 l 339 422 q 210 251 210 354 q 264 139 210 182 q 406 96 318 96 z "},"9":{"ha":824,"x_min":69,"x_max":740,"o":"m 376 -19 q 210 26 286 -19 q 92 172 133 71 q 143 206 111 193 q 203 221 175 218 q 276 130 231 158 q 376 101 321 101 q 494 140 442 101 q 579 265 547 178 q 611 501 611 353 q 544 438 585 464 q 460 399 504 413 q 378 386 417 386 q 209 431 278 386 q 105 547 140 476 q 69 692 69 617 q 114 863 69 790 q 231 974 158 935 q 388 1014 304 1014 q 646 887 551 1014 q 740 501 740 760 q 690 199 740 314 q 558 33 640 85 q 376 -19 475 -19 m 382 504 q 526 560 472 504 q 579 696 579 615 q 526 836 579 779 q 389 893 474 893 q 248 837 300 893 q 196 701 196 781 q 247 560 196 617 q 382 504 299 504 z "},"A":{"ha":999,"x_min":56,"x_max":943,"o":"m 168 -19 q 107 -4 138 -15 q 56 28 76 7 l 444 1003 q 497 1013 467 1013 q 551 1003 532 1013 l 943 29 q 894 -2 925 10 q 826 -19 864 -14 l 717 257 l 276 257 l 168 -19 m 324 376 l 669 376 l 496 814 l 324 376 z "},"Á":{"ha":999,"x_min":56,"x_max":943,"o":"m 168 -19 q 107 -4 138 -15 q 56 28 76 7 l 444 1003 q 497 1013 467 1013 q 551 1003 532 1013 l 943 29 q 894 -2 925 10 q 826 -19 864 -14 l 717 257 l 276 257 l 168 -19 m 324 376 l 669 376 l 496 814 l 324 376 m 389 1101 q 359 1156 369 1125 q 350 1217 349 1186 q 458 1256 400 1232 q 567 1308 515 1281 q 646 1358 618 1336 q 711 1257 707 1319 q 631 1203 683 1233 q 514 1144 578 1172 q 389 1101 450 1117 z "},"Ă":{"ha":999,"x_min":56,"x_max":943,"o":"m 168 -19 q 107 -4 138 -15 q 56 28 76 7 l 444 1003 q 497 1013 467 1013 q 551 1003 532 1013 l 943 29 q 894 -2 925 10 q 826 -19 864 -14 l 717 257 l 276 257 l 168 -19 m 324 376 l 669 376 l 496 814 l 324 376 m 346 1350 q 500 1219 379 1219 q 654 1350 621 1219 q 719 1349 688 1357 q 771 1318 751 1340 q 681 1160 753 1218 q 500 1101 610 1101 q 319 1160 390 1101 q 229 1318 249 1218 q 281 1349 249 1340 q 346 1350 313 1357 z "},"Ắ":{"ha":999,"x_min":56,"x_max":943,"o":"m 168 -19 q 107 -4 138 -15 q 56 28 76 7 l 444 1003 q 497 1013 467 1013 q 551 1003 532 1013 l 943 29 q 894 -2 925 10 q 826 -19 864 -14 l 717 257 l 276 257 l 168 -19 m 324 376 l 669 376 l 496 814 l 324 376 m 583 1640 q 641 1615 614 1635 q 681 1567 668 1594 l 519 1368 q 464 1399 489 1378 q 428 1449 439 1421 l 583 1640 m 346 1350 q 500 1219 379 1219 q 654 1350 621 1219 q 719 1349 688 1357 q 771 1318 751 1340 q 681 1160 753 1218 q 500 1101 610 1101 q 319 1160 390 1101 q 229 1318 249 1218 q 281 1349 249 1340 q 346 1350 313 1357 z "},"Ặ":{"ha":999,"x_min":56,"x_max":943,"o":"m 168 -19 q 107 -4 138 -15 q 56 28 76 7 l 444 1003 q 497 1013 467 1013 q 551 1003 532 1013 l 943 29 q 894 -2 925 10 q 826 -19 864 -14 l 717 257 l 276 257 l 168 -19 m 324 376 l 669 376 l 496 814 l 324 376 m 500 -393 q 433 -365 461 -393 q 406 -299 406 -337 q 433 -231 406 -257 q 500 -204 460 -204 q 568 -231 542 -204 q 594 -299 594 -257 q 567 -366 594 -339 q 500 -393 540 -393 m 346 1350 q 500 1219 379 1219 q 654 1350 621 1219 q 719 1349 688 1357 q 771 1318 751 1340 q 681 1160 753 1218 q 500 1101 610 1101 q 319 1160 390 1101 q 229 1318 249 1218 q 281 1349 249 1340 q 346 1350 313 1357 z "},"Ằ":{"ha":999,"x_min":56,"x_max":943,"o":"m 168 -19 q 107 -4 138 -15 q 56 28 76 7 l 444 1003 q 497 1013 467 1013 q 551 1003 532 1013 l 943 29 q 894 -2 925 10 q 826 -19 864 -14 l 717 257 l 276 257 l 168 -19 m 324 376 l 669 376 l 496 814 l 324 376 m 429 1638 l 585 1446 q 549 1397 575 1418 q 493 1365 524 1375 l 332 1564 q 372 1612 344 1592 q 429 1638 399 1632 m 346 1350 q 500 1219 379 1219 q 654 1350 621 1219 q 719 1349 688 1357 q 771 1318 751 1340 q 681 1160 753 1218 q 500 1101 610 1101 q 319 1160 390 1101 q 229 1318 249 1218 q 281 1349 249 1340 q 346 1350 313 1357 z "},"Ẳ":{"ha":999,"x_min":56,"x_max":943,"o":"m 168 -19 q 107 -4 138 -15 q 56 28 76 7 l 444 1003 q 497 1013 467 1013 q 551 1003 532 1013 l 943 29 q 894 -2 925 10 q 826 -19 864 -14 l 717 257 l 276 257 l 168 -19 m 324 376 l 669 376 l 496 814 l 324 376 m 453 1454 q 513 1482 496 1467 q 531 1517 531 1497 q 463 1561 531 1561 q 403 1555 436 1561 q 340 1536 371 1549 q 317 1581 326 1554 q 310 1638 308 1608 q 379 1662 338 1653 q 472 1671 421 1671 q 608 1631 563 1671 q 654 1528 654 1592 q 631 1446 654 1481 q 569 1390 607 1411 q 488 1356 531 1368 q 462 1400 471 1374 q 453 1454 453 1426 m 346 1350 q 500 1219 379 1219 q 654 1350 621 1219 q 719 1349 688 1357 q 771 1318 751 1340 q 681 1160 753 1218 q 500 1101 610 1101 q 319 1160 390 1101 q 229 1318 249 1218 q 281 1349 249 1340 q 346 1350 313 1357 z "},"Ẵ":{"ha":999,"x_min":56,"x_max":943,"o":"m 168 -19 q 107 -4 138 -15 q 56 28 76 7 l 444 1003 q 497 1013 467 1013 q 551 1003 532 1013 l 943 29 q 894 -2 925 10 q 826 -19 864 -14 l 717 257 l 276 257 l 168 -19 m 324 376 l 669 376 l 496 814 l 324 376 m 625 1435 q 560 1447 593 1435 q 492 1474 526 1460 q 404 1499 433 1499 q 363 1487 382 1499 q 329 1446 344 1475 q 233 1489 268 1446 q 399 1615 283 1615 q 464 1605 435 1615 q 519 1582 493 1594 q 572 1560 551 1567 q 613 1553 593 1553 q 645 1565 633 1553 q 669 1606 657 1576 q 722 1595 697 1606 q 765 1563 747 1585 q 710 1468 743 1501 q 625 1435 676 1435 m 346 1350 q 500 1219 379 1219 q 654 1350 621 1219 q 719 1349 688 1357 q 771 1318 751 1340 q 681 1160 753 1218 q 500 1101 610 1101 q 319 1160 390 1101 q 229 1318 249 1218 q 281 1349 249 1340 q 346 1350 313 1357 z "},"Â":{"ha":999,"x_min":56,"x_max":943,"o":"m 168 -19 q 107 -4 138 -15 q 56 28 76 7 l 444 1003 q 497 1013 467 1013 q 551 1003 532 1013 l 943 29 q 894 -2 925 10 q 826 -19 864 -14 l 717 257 l 276 257 l 168 -19 m 324 376 l 669 376 l 496 814 l 324 376 m 547 1351 q 632 1281 600 1307 q 690 1237 664 1254 q 749 1199 717 1219 q 689 1101 742 1138 q 596 1157 646 1121 q 500 1239 546 1193 q 308 1101 394 1140 q 249 1199 257 1136 q 313 1241 283 1221 q 375 1288 343 1261 q 450 1351 407 1314 q 547 1351 499 1364 z "},"Ấ":{"ha":999,"x_min":56,"x_max":943,"o":"m 168 -19 q 107 -4 138 -15 q 56 28 76 7 l 444 1003 q 497 1013 467 1013 q 551 1003 532 1013 l 943 29 q 894 -2 925 10 q 826 -19 864 -14 l 717 257 l 276 257 l 168 -19 m 324 376 l 669 376 l 496 814 l 324 376 m 807 1582 q 865 1556 838 1576 q 904 1508 892 1536 l 743 1310 q 688 1341 713 1319 q 651 1390 663 1363 l 807 1582 m 547 1351 q 632 1281 600 1307 q 690 1237 664 1254 q 749 1199 717 1219 q 689 1101 742 1138 q 596 1157 646 1121 q 500 1239 546 1193 q 308 1101 394 1140 q 249 1199 257 1136 q 313 1241 283 1221 q 375 1288 343 1261 q 450 1351 407 1314 q 547 1351 499 1364 z "},"Ậ":{"ha":999,"x_min":56,"x_max":943,"o":"m 168 -19 q 107 -4 138 -15 q 56 28 76 7 l 444 1003 q 497 1013 467 1013 q 551 1003 532 1013 l 943 29 q 894 -2 925 10 q 826 -19 864 -14 l 717 257 l 276 257 l 168 -19 m 324 376 l 669 376 l 496 814 l 324 376 m 500 -393 q 433 -365 461 -393 q 406 -299 406 -337 q 433 -231 406 -257 q 500 -204 460 -204 q 568 -231 542 -204 q 594 -299 594 -257 q 567 -366 594 -339 q 500 -393 540 -393 m 547 1351 q 632 1281 600 1307 q 690 1237 664 1254 q 749 1199 717 1219 q 689 1101 742 1138 q 596 1157 646 1121 q 500 1239 546 1193 q 308 1101 394 1140 q 249 1199 257 1136 q 313 1241 283 1221 q 375 1288 343 1261 q 450 1351 407 1314 q 547 1351 499 1364 z "},"Ầ":{"ha":999,"x_min":56,"x_max":943,"o":"m 168 -19 q 107 -4 138 -15 q 56 28 76 7 l 444 1003 q 497 1013 467 1013 q 551 1003 532 1013 l 943 29 q 894 -2 925 10 q 826 -19 864 -14 l 717 257 l 276 257 l 168 -19 m 324 376 l 669 376 l 496 814 l 324 376 m 678 1582 l 833 1390 q 798 1341 824 1363 q 742 1310 772 1319 l 581 1508 q 620 1556 593 1536 q 678 1582 647 1576 m 547 1351 q 632 1281 600 1307 q 690 1237 664 1254 q 749 1199 717 1219 q 689 1101 742 1138 q 596 1157 646 1121 q 500 1239 546 1193 q 308 1101 394 1140 q 249 1199 257 1136 q 313 1241 283 1221 q 375 1288 343 1261 q 450 1351 407 1314 q 547 1351 499 1364 z "},"Ẩ":{"ha":999,"x_min":56,"x_max":943,"o":"m 168 -19 q 107 -4 138 -15 q 56 28 76 7 l 444 1003 q 497 1013 467 1013 q 551 1003 532 1013 l 943 29 q 894 -2 925 10 q 826 -19 864 -14 l 717 257 l 276 257 l 168 -19 m 324 376 l 669 376 l 496 814 l 324 376 m 697 1392 q 758 1419 740 1404 q 775 1454 775 1435 q 707 1499 775 1499 q 648 1492 681 1499 q 585 1474 615 1486 q 562 1519 571 1492 q 554 1575 553 1546 q 624 1599 582 1590 q 717 1608 665 1608 q 853 1569 807 1608 q 899 1465 899 1529 q 875 1383 899 1418 q 813 1327 851 1349 q 732 1293 775 1306 q 706 1338 715 1311 q 697 1392 697 1364 m 547 1351 q 632 1281 600 1307 q 690 1237 664 1254 q 749 1199 717 1219 q 689 1101 742 1138 q 596 1157 646 1121 q 500 1239 546 1193 q 308 1101 394 1140 q 249 1199 257 1136 q 313 1241 283 1221 q 375 1288 343 1261 q 450 1351 407 1314 q 547 1351 499 1364 z "},"Ẫ":{"ha":999,"x_min":56,"x_max":943,"o":"m 168 -19 q 107 -4 138 -15 q 56 28 76 7 l 444 1003 q 497 1013 467 1013 q 551 1003 532 1013 l 943 29 q 894 -2 925 10 q 826 -19 864 -14 l 717 257 l 276 257 l 168 -19 m 324 376 l 669 376 l 496 814 l 324 376 m 594 1439 q 550 1447 572 1439 q 494 1471 528 1454 q 445 1495 460 1489 q 417 1501 431 1501 q 381 1490 399 1501 q 350 1449 364 1478 q 260 1492 293 1449 q 322 1585 282 1553 q 414 1618 361 1618 q 465 1609 444 1618 q 511 1585 485 1600 q 555 1563 539 1569 q 583 1557 571 1557 q 620 1568 603 1557 q 650 1610 638 1579 q 740 1567 707 1610 q 681 1472 718 1506 q 594 1439 644 1439 m 547 1351 q 632 1281 600 1307 q 690 1237 664 1254 q 749 1199 717 1219 q 689 1101 742 1138 q 596 1157 646 1121 q 500 1239 546 1193 q 308 1101 394 1140 q 249 1199 257 1136 q 313 1241 283 1221 q 375 1288 343 1261 q 450 1351 407 1314 q 547 1351 499 1364 z "},"Ä":{"ha":999,"x_min":56,"x_max":943,"o":"m 168 -19 q 107 -4 138 -15 q 56 28 76 7 l 444 1003 q 497 1013 467 1013 q 551 1003 532 1013 l 943 29 q 894 -2 925 10 q 826 -19 864 -14 l 717 257 l 276 257 l 168 -19 m 324 376 l 669 376 l 496 814 l 324 376 m 639 1129 q 577 1155 603 1129 q 551 1217 551 1181 q 577 1278 551 1253 q 639 1304 603 1304 q 701 1278 675 1304 q 726 1217 726 1253 q 701 1154 726 1179 q 639 1129 675 1129 m 351 1129 q 291 1155 317 1129 q 265 1217 265 1181 q 291 1278 265 1253 q 351 1304 317 1304 q 414 1278 388 1304 q 440 1217 440 1253 q 414 1154 440 1179 q 351 1129 388 1129 z "},"Ạ":{"ha":999,"x_min":56,"x_max":943,"o":"m 168 -19 q 107 -4 138 -15 q 56 28 76 7 l 444 1003 q 497 1013 467 1013 q 551 1003 532 1013 l 943 29 q 894 -2 925 10 q 826 -19 864 -14 l 717 257 l 276 257 l 168 -19 m 324 376 l 669 376 l 496 814 l 324 376 m 500 -393 q 433 -365 461 -393 q 406 -299 406 -337 q 433 -231 406 -257 q 500 -204 460 -204 q 568 -231 542 -204 q 594 -299 594 -257 q 567 -366 594 -339 q 500 -393 540 -393 z "},"À":{"ha":999,"x_min":56,"x_max":943,"o":"m 168 -19 q 107 -4 138 -15 q 56 28 76 7 l 444 1003 q 497 1013 467 1013 q 551 1003 532 1013 l 943 29 q 894 -2 925 10 q 826 -19 864 -14 l 717 257 l 276 257 l 168 -19 m 324 376 l 669 376 l 496 814 l 324 376 m 611 1101 q 486 1144 550 1117 q 369 1203 422 1172 q 289 1257 317 1233 q 354 1358 293 1319 q 434 1308 383 1336 q 542 1256 485 1281 q 650 1217 600 1232 q 641 1156 651 1186 q 611 1101 631 1125 z "},"Ả":{"ha":999,"x_min":56,"x_max":943,"o":"m 168 -19 q 107 -4 138 -15 q 56 28 76 7 l 444 1003 q 497 1013 467 1013 q 551 1003 532 1013 l 943 29 q 894 -2 925 10 q 826 -19 864 -14 l 717 257 l 276 257 l 168 -19 m 324 376 l 669 376 l 496 814 l 324 376 m 461 1242 q 568 1314 568 1269 q 486 1360 568 1360 q 413 1351 447 1360 q 350 1335 378 1343 q 328 1381 336 1353 q 321 1439 319 1408 q 399 1463 356 1453 q 494 1472 443 1472 q 645 1432 594 1472 q 696 1318 696 1392 q 640 1202 696 1249 q 488 1143 585 1156 q 461 1242 458 1181 z "},"Ã":{"ha":999,"x_min":56,"x_max":943,"o":"m 168 -19 q 107 -4 138 -15 q 56 28 76 7 l 444 1003 q 497 1013 467 1013 q 551 1003 532 1013 l 943 29 q 894 -2 925 10 q 826 -19 864 -14 l 717 257 l 276 257 l 168 -19 m 324 376 l 669 376 l 496 814 l 324 376 m 601 1250 q 647 1266 632 1250 q 679 1314 661 1282 q 767 1282 736 1314 q 711 1177 753 1218 q 606 1136 669 1136 q 565 1142 588 1136 q 499 1171 543 1149 q 444 1198 469 1186 q 399 1210 419 1210 q 358 1194 374 1210 q 324 1146 343 1178 q 274 1153 297 1147 q 236 1178 251 1160 q 294 1282 249 1242 q 399 1322 339 1322 q 456 1312 429 1322 q 511 1286 483 1301 q 556 1263 532 1275 q 601 1250 579 1250 z "},"Æ":{"ha":1339,"x_min":56,"x_max":1249,"o":"m 157 -12 q 100 14 128 -3 q 56 54 72 31 l 657 1003 l 1231 1003 q 1239 942 1240 976 q 1231 882 1238 908 l 846 882 l 846 565 l 1214 565 q 1222 508 1222 542 q 1214 444 1221 474 l 846 444 l 846 121 l 1240 121 q 1249 63 1249 97 q 1240 0 1249 28 l 717 0 l 717 257 l 326 257 l 157 -12 m 400 376 l 717 376 l 717 881 l 400 376 z "},"B":{"ha":874,"x_min":139,"x_max":804,"o":"m 139 0 l 139 1003 l 433 1003 q 659 934 578 1003 q 740 742 740 865 q 624 529 740 604 q 756 433 708 497 q 804 281 804 368 q 715 73 804 146 q 461 0 626 0 l 139 0 m 264 563 l 431 563 q 566 605 518 563 q 614 724 614 647 q 424 883 614 883 l 264 883 l 264 563 m 264 119 l 476 119 q 628 158 579 119 q 678 282 678 197 q 626 406 678 364 q 479 449 575 449 l 264 449 l 264 119 z "},"C":{"ha":971,"x_min":76,"x_max":919,"o":"m 531 -19 q 287 43 389 -19 q 131 218 185 106 q 76 482 76 331 q 135 765 76 643 q 300 954 194 886 q 542 1022 406 1022 q 740 978 650 1022 q 885 857 829 935 q 849 806 878 832 q 793 771 821 779 q 679 867 743 836 q 542 897 615 897 q 368 846 443 897 q 251 703 293 794 q 210 489 210 611 q 248 288 210 374 q 360 153 286 201 q 542 106 435 106 q 703 143 635 106 q 826 249 771 181 q 881 218 853 240 q 919 174 908 196 q 755 30 856 79 q 531 -19 654 -19 z "},"Ç":{"ha":971,"x_min":76,"x_max":919,"o":"m 531 -19 q 287 43 389 -19 q 131 218 185 106 q 76 482 76 331 q 135 765 76 643 q 300 954 194 886 q 542 1022 406 1022 q 740 978 650 1022 q 885 857 829 935 q 849 806 878 832 q 793 771 821 779 q 679 867 743 836 q 542 897 615 897 q 368 846 443 897 q 251 703 293 794 q 210 489 210 611 q 248 288 210 374 q 360 153 286 201 q 542 106 435 106 q 703 143 635 106 q 826 249 771 181 q 881 218 853 240 q 919 174 908 196 q 755 30 856 79 q 531 -19 654 -19 m 513 -361 q 459 -358 486 -361 q 413 -349 432 -354 q 428 -250 396 -293 q 465 -257 443 -254 q 508 -260 486 -260 q 572 -247 549 -260 q 594 -210 594 -235 q 461 -147 594 -157 l 471 10 l 582 10 l 576 -74 q 676 -124 640 -89 q 711 -212 711 -160 q 657 -321 711 -281 q 513 -361 603 -361 z "},"D":{"ha":996,"x_min":139,"x_max":919,"o":"m 139 0 l 140 6 l 140 1003 l 382 1003 q 670 944 550 1003 q 855 776 790 886 q 919 507 919 665 q 776 133 919 265 q 372 0 632 0 l 139 0 m 269 119 l 392 119 q 684 219 582 119 q 786 507 786 319 q 683 788 786 693 q 381 883 579 883 l 269 883 l 269 119 z "},"Đ":{"ha":996,"x_min":13,"x_max":919,"o":"m 139 0 l 140 6 l 140 438 l 24 438 q 13 503 13 465 q 24 567 13 542 l 140 567 l 140 1003 l 382 1003 q 670 944 550 1003 q 855 776 790 886 q 919 507 919 665 q 776 133 919 265 q 372 0 632 0 l 139 0 m 269 119 l 392 119 q 684 219 582 119 q 786 507 786 319 q 683 788 786 693 q 381 883 579 883 l 269 883 l 269 567 l 494 567 q 506 503 506 542 q 494 438 506 465 l 269 438 l 269 119 z "},"E":{"ha":831,"x_min":139,"x_max":740,"o":"m 139 0 l 139 1003 l 722 1003 q 731 942 732 976 q 722 882 729 908 l 268 882 l 268 565 l 692 565 q 699 508 700 542 q 692 444 699 474 l 268 444 l 268 121 l 732 121 q 740 63 740 97 q 732 0 740 28 l 139 0 z "},"É":{"ha":831,"x_min":139,"x_max":740,"o":"m 139 0 l 139 1003 l 722 1003 q 731 942 732 976 q 722 882 729 908 l 268 882 l 268 565 l 692 565 q 699 508 700 542 q 692 444 699 474 l 268 444 l 268 121 l 732 121 q 740 63 740 97 q 732 0 740 28 l 139 0 m 331 1101 q 301 1156 311 1125 q 292 1217 290 1186 q 399 1256 342 1232 q 508 1308 457 1281 q 588 1358 560 1336 q 653 1257 649 1319 q 572 1203 625 1233 q 456 1144 519 1172 q 331 1101 392 1117 z "},"Ê":{"ha":831,"x_min":139,"x_max":740,"o":"m 139 0 l 139 1003 l 722 1003 q 731 942 732 976 q 722 882 729 908 l 268 882 l 268 565 l 692 565 q 699 508 700 542 q 692 444 699 474 l 268 444 l 268 121 l 732 121 q 740 63 740 97 q 732 0 740 28 l 139 0 m 489 1351 q 574 1281 542 1307 q 632 1237 606 1254 q 690 1199 658 1219 q 631 1101 683 1138 q 538 1157 588 1121 q 442 1239 488 1193 q 250 1101 336 1140 q 190 1199 199 1136 q 255 1241 225 1221 q 317 1288 285 1261 q 392 1351 349 1314 q 489 1351 440 1364 z "},"Ế":{"ha":831,"x_min":139,"x_max":846,"o":"m 139 0 l 139 1003 l 722 1003 q 731 942 732 976 q 722 882 729 908 l 268 882 l 268 565 l 692 565 q 699 508 700 542 q 692 444 699 474 l 268 444 l 268 121 l 732 121 q 740 63 740 97 q 732 0 740 28 l 139 0 m 749 1582 q 806 1556 779 1576 q 846 1508 833 1536 l 685 1310 q 629 1341 654 1319 q 593 1390 604 1363 l 749 1582 m 489 1351 q 574 1281 542 1307 q 632 1237 606 1254 q 690 1199 658 1219 q 631 1101 683 1138 q 538 1157 588 1121 q 442 1239 488 1193 q 250 1101 336 1140 q 190 1199 199 1136 q 255 1241 225 1221 q 317 1288 285 1261 q 392 1351 349 1314 q 489 1351 440 1364 z "},"Ệ":{"ha":831,"x_min":139,"x_max":740,"o":"m 139 0 l 139 1003 l 722 1003 q 731 942 732 976 q 722 882 729 908 l 268 882 l 268 565 l 692 565 q 699 508 700 542 q 692 444 699 474 l 268 444 l 268 121 l 732 121 q 740 63 740 97 q 732 0 740 28 l 139 0 m 442 -393 q 375 -365 403 -393 q 347 -299 347 -337 q 374 -231 347 -257 q 442 -204 401 -204 q 510 -231 483 -204 q 536 -299 536 -257 q 509 -366 536 -339 q 442 -393 482 -393 m 489 1351 q 574 1281 542 1307 q 632 1237 606 1254 q 690 1199 658 1219 q 631 1101 683 1138 q 538 1157 588 1121 q 442 1239 488 1193 q 250 1101 336 1140 q 190 1199 199 1136 q 255 1241 225 1221 q 317 1288 285 1261 q 392 1351 349 1314 q 489 1351 440 1364 z "},"Ề":{"ha":831,"x_min":139,"x_max":775,"o":"m 139 0 l 139 1003 l 722 1003 q 731 942 732 976 q 722 882 729 908 l 268 882 l 268 565 l 692 565 q 699 508 700 542 q 692 444 699 474 l 268 444 l 268 121 l 732 121 q 740 63 740 97 q 732 0 740 28 l 139 0 m 619 1582 l 775 1390 q 740 1341 765 1363 q 683 1310 714 1319 l 522 1508 q 562 1556 535 1536 q 619 1582 589 1576 m 489 1351 q 574 1281 542 1307 q 632 1237 606 1254 q 690 1199 658 1219 q 631 1101 683 1138 q 538 1157 588 1121 q 442 1239 488 1193 q 250 1101 336 1140 q 190 1199 199 1136 q 255 1241 225 1221 q 317 1288 285 1261 q 392 1351 349 1314 q 489 1351 440 1364 z "},"Ể":{"ha":831,"x_min":139,"x_max":840,"o":"m 139 0 l 139 1003 l 722 1003 q 731 942 732 976 q 722 882 729 908 l 268 882 l 268 565 l 692 565 q 699 508 700 542 q 692 444 699 474 l 268 444 l 268 121 l 732 121 q 740 63 740 97 q 732 0 740 28 l 139 0 m 639 1392 q 699 1419 682 1404 q 717 1454 717 1435 q 649 1499 717 1499 q 590 1492 622 1499 q 526 1474 557 1486 q 503 1519 513 1492 q 496 1575 494 1546 q 565 1599 524 1590 q 658 1608 607 1608 q 794 1569 749 1608 q 840 1465 840 1529 q 817 1383 840 1418 q 755 1327 793 1349 q 674 1293 717 1306 q 648 1338 657 1311 q 639 1392 639 1364 m 489 1351 q 574 1281 542 1307 q 632 1237 606 1254 q 690 1199 658 1219 q 631 1101 683 1138 q 538 1157 588 1121 q 442 1239 488 1193 q 250 1101 336 1140 q 190 1199 199 1136 q 255 1241 225 1221 q 317 1288 285 1261 q 392 1351 349 1314 q 489 1351 440 1364 z "},"Ễ":{"ha":831,"x_min":139,"x_max":740,"o":"m 139 0 l 139 1003 l 722 1003 q 731 942 732 976 q 722 882 729 908 l 268 882 l 268 565 l 692 565 q 699 508 700 542 q 692 444 699 474 l 268 444 l 268 121 l 732 121 q 740 63 740 97 q 732 0 740 28 l 139 0 m 536 1439 q 492 1447 514 1439 q 436 1471 469 1454 q 387 1495 401 1489 q 358 1501 372 1501 q 323 1490 340 1501 q 292 1449 306 1478 q 201 1492 235 1449 q 263 1585 224 1553 q 356 1618 303 1618 q 406 1609 386 1618 q 453 1585 426 1600 q 497 1563 481 1569 q 525 1557 513 1557 q 562 1568 544 1557 q 592 1610 579 1579 q 682 1567 649 1610 q 623 1472 660 1506 q 536 1439 586 1439 m 489 1351 q 574 1281 542 1307 q 632 1237 606 1254 q 690 1199 658 1219 q 631 1101 683 1138 q 538 1157 588 1121 q 442 1239 488 1193 q 250 1101 336 1140 q 190 1199 199 1136 q 255 1241 225 1221 q 317 1288 285 1261 q 392 1351 349 1314 q 489 1351 440 1364 z "},"Ë":{"ha":831,"x_min":139,"x_max":740,"o":"m 139 0 l 139 1003 l 722 1003 q 731 942 732 976 q 722 882 729 908 l 268 882 l 268 565 l 692 565 q 699 508 700 542 q 692 444 699 474 l 268 444 l 268 121 l 732 121 q 740 63 740 97 q 732 0 740 28 l 139 0 m 581 1129 q 519 1155 544 1129 q 493 1217 493 1181 q 519 1278 493 1253 q 581 1304 544 1304 q 642 1278 617 1304 q 668 1217 668 1253 q 642 1154 668 1179 q 581 1129 617 1129 m 293 1129 q 233 1155 258 1129 q 207 1217 207 1181 q 233 1278 207 1253 q 293 1304 258 1304 q 356 1278 329 1304 q 382 1217 382 1253 q 356 1154 382 1179 q 293 1129 329 1129 z "},"Ẹ":{"ha":831,"x_min":139,"x_max":740,"o":"m 139 0 l 139 1003 l 722 1003 q 731 942 732 976 q 722 882 729 908 l 268 882 l 268 565 l 692 565 q 699 508 700 542 q 692 444 699 474 l 268 444 l 268 121 l 732 121 q 740 63 740 97 q 732 0 740 28 l 139 0 m 442 -393 q 375 -365 403 -393 q 347 -299 347 -337 q 374 -231 347 -257 q 442 -204 401 -204 q 510 -231 483 -204 q 536 -299 536 -257 q 509 -366 536 -339 q 442 -393 482 -393 z "},"È":{"ha":831,"x_min":139,"x_max":740,"o":"m 139 0 l 139 1003 l 722 1003 q 731 942 732 976 q 722 882 729 908 l 268 882 l 268 565 l 692 565 q 699 508 700 542 q 692 444 699 474 l 268 444 l 268 121 l 732 121 q 740 63 740 97 q 732 0 740 28 l 139 0 m 553 1101 q 428 1144 492 1117 q 311 1203 364 1172 q 231 1257 258 1233 q 296 1358 235 1319 q 376 1308 325 1336 q 484 1256 426 1281 q 592 1217 542 1232 q 583 1156 593 1186 q 553 1101 572 1125 z "},"Ẻ":{"ha":831,"x_min":139,"x_max":740,"o":"m 139 0 l 139 1003 l 722 1003 q 731 942 732 976 q 722 882 729 908 l 268 882 l 268 565 l 692 565 q 699 508 700 542 q 692 444 699 474 l 268 444 l 268 121 l 732 121 q 740 63 740 97 q 732 0 740 28 l 139 0 m 403 1242 q 510 1314 510 1269 q 428 1360 510 1360 q 354 1351 389 1360 q 292 1335 319 1343 q 269 1381 278 1353 q 263 1439 261 1408 q 341 1463 297 1453 q 436 1472 385 1472 q 587 1432 536 1472 q 638 1318 638 1392 q 582 1202 638 1249 q 429 1143 526 1156 q 403 1242 400 1181 z "},"Ẽ":{"ha":831,"x_min":139,"x_max":740,"o":"m 139 0 l 139 1003 l 722 1003 q 731 942 732 976 q 722 882 729 908 l 268 882 l 268 565 l 692 565 q 699 508 700 542 q 692 444 699 474 l 268 444 l 268 121 l 732 121 q 740 63 740 97 q 732 0 740 28 l 139 0 m 543 1250 q 588 1266 574 1250 q 621 1314 603 1282 q 708 1282 678 1314 q 653 1177 694 1218 q 547 1136 611 1136 q 507 1142 529 1136 q 440 1171 485 1149 q 386 1198 411 1186 q 340 1210 361 1210 q 300 1194 315 1210 q 265 1146 285 1178 q 216 1153 239 1147 q 178 1178 193 1160 q 235 1282 190 1242 q 340 1322 281 1322 q 398 1312 371 1322 q 453 1286 425 1301 q 497 1263 474 1275 q 543 1250 521 1250 z "},"F":{"ha":808,"x_min":139,"x_max":732,"o":"m 203 -6 q 172 -4 188 -6 q 139 0 156 -3 l 139 1003 l 724 1003 q 732 943 732 978 q 724 882 732 908 l 268 882 l 268 571 l 679 571 q 679 450 694 510 l 268 450 l 268 0 q 236 -4 253 -3 q 203 -6 219 -6 z "},"G":{"ha":1032,"x_min":76,"x_max":949,"o":"m 536 -19 q 294 45 397 -19 q 133 226 190 110 q 76 501 76 343 q 134 778 76 661 q 298 958 192 894 q 549 1022 404 1022 q 733 992 647 1022 q 872 907 818 963 q 803 807 860 851 q 550 899 693 899 q 298 795 388 899 q 208 506 208 692 q 248 293 208 383 q 360 153 288 203 q 533 104 433 104 q 684 140 619 104 q 785 242 749 176 q 821 394 821 307 q 819 426 821 413 l 496 426 q 486 462 489 439 q 486 508 483 485 q 496 546 489 532 l 935 546 q 944 491 940 535 q 949 407 949 447 q 897 182 949 278 q 753 33 846 86 q 536 -19 661 -19 z "},"Ğ":{"ha":1032,"x_min":76,"x_max":949,"o":"m 536 -19 q 294 45 397 -19 q 133 226 190 110 q 76 501 76 343 q 134 778 76 661 q 298 958 192 894 q 549 1022 404 1022 q 733 992 647 1022 q 872 907 818 963 q 803 807 860 851 q 550 899 693 899 q 298 795 388 899 q 208 506 208 692 q 248 293 208 383 q 360 153 288 203 q 533 104 433 104 q 684 140 619 104 q 785 242 749 176 q 821 394 821 307 q 819 426 821 413 l 496 426 q 486 462 489 439 q 486 508 483 485 q 496 546 489 532 l 935 546 q 944 491 940 535 q 949 407 949 447 q 897 182 949 278 q 753 33 846 86 q 536 -19 661 -19 m 363 1350 q 517 1219 396 1219 q 671 1350 638 1219 q 736 1349 704 1357 q 788 1318 768 1340 q 698 1160 769 1218 q 517 1101 626 1101 q 336 1160 407 1101 q 246 1318 265 1218 q 297 1349 265 1340 q 363 1350 329 1357 z "},"H":{"ha":1007,"x_min":139,"x_max":868,"o":"m 203 -10 q 139 0 168 -10 l 139 1003 q 203 1013 172 1013 q 268 1003 239 1013 l 268 572 l 739 572 l 739 1003 q 804 1013 768 1013 q 868 1003 835 1013 l 868 0 q 804 -10 839 -10 q 739 0 772 -10 l 739 451 l 268 451 l 268 0 q 203 -10 235 -10 z "},"I":{"ha":700,"x_min":90,"x_max":610,"o":"m 100 0 q 90 59 90 24 q 100 117 90 94 l 286 117 l 286 886 l 100 886 q 90 945 90 910 q 100 1003 90 981 l 600 1003 q 610 945 610 981 q 600 886 610 910 l 415 886 l 415 117 l 600 117 q 610 59 610 94 q 600 0 610 24 l 100 0 z "},"Í":{"ha":700,"x_min":90,"x_max":610,"o":"m 100 0 q 90 59 90 24 q 100 117 90 94 l 286 117 l 286 886 l 100 886 q 90 945 90 910 q 100 1003 90 981 l 600 1003 q 610 945 610 981 q 600 886 610 910 l 415 886 l 415 117 l 600 117 q 610 59 610 94 q 600 0 610 24 l 100 0 m 239 1101 q 209 1156 219 1125 q 200 1217 199 1186 q 308 1256 250 1232 q 417 1308 365 1281 q 496 1358 468 1336 q 561 1257 557 1319 q 481 1203 533 1233 q 364 1144 428 1172 q 239 1101 300 1117 z "},"Î":{"ha":700,"x_min":90,"x_max":610,"o":"m 100 0 q 90 59 90 24 q 100 117 90 94 l 286 117 l 286 886 l 100 886 q 90 945 90 910 q 100 1003 90 981 l 600 1003 q 610 945 610 981 q 600 886 610 910 l 415 886 l 415 117 l 600 117 q 610 59 610 94 q 600 0 610 24 l 100 0 m 397 1351 q 482 1281 450 1307 q 540 1237 514 1254 q 599 1199 567 1219 q 539 1101 592 1138 q 446 1157 496 1121 q 350 1239 396 1193 q 158 1101 244 1140 q 99 1199 107 1136 q 163 1241 133 1221 q 225 1288 193 1261 q 300 1351 257 1314 q 397 1351 349 1364 z "},"Ï":{"ha":700,"x_min":90,"x_max":610,"o":"m 100 0 q 90 59 90 24 q 100 117 90 94 l 286 117 l 286 886 l 100 886 q 90 945 90 910 q 100 1003 90 981 l 600 1003 q 610 945 610 981 q 600 886 610 910 l 415 886 l 415 117 l 600 117 q 610 59 610 94 q 600 0 610 24 l 100 0 m 489 1129 q 427 1155 453 1129 q 401 1217 401 1181 q 427 1278 401 1253 q 489 1304 453 1304 q 551 1278 525 1304 q 576 1217 576 1253 q 551 1154 576 1179 q 489 1129 525 1129 m 201 1129 q 141 1155 167 1129 q 115 1217 115 1181 q 141 1278 115 1253 q 201 1304 167 1304 q 264 1278 238 1304 q 290 1217 290 1253 q 264 1154 290 1179 q 201 1129 238 1129 z "},"İ":{"ha":700,"x_min":90,"x_max":610,"o":"m 100 0 q 90 59 90 24 q 100 117 90 94 l 286 117 l 286 886 l 100 886 q 90 945 90 910 q 100 1003 90 981 l 600 1003 q 610 945 610 981 q 600 886 610 910 l 415 886 l 415 117 l 600 117 q 610 59 610 94 q 600 0 610 24 l 100 0 m 351 1121 q 285 1149 313 1121 q 257 1215 257 1176 q 284 1283 257 1257 q 351 1310 311 1310 q 419 1283 393 1310 q 446 1215 446 1257 q 419 1148 446 1175 q 351 1121 392 1121 z "},"Ị":{"ha":700,"x_min":90,"x_max":610,"o":"m 100 0 q 90 59 90 24 q 100 117 90 94 l 286 117 l 286 886 l 100 886 q 90 945 90 910 q 100 1003 90 981 l 600 1003 q 610 945 610 981 q 600 886 610 910 l 415 886 l 415 117 l 600 117 q 610 59 610 94 q 600 0 610 24 l 100 0 m 350 -393 q 283 -365 311 -393 q 256 -299 256 -337 q 283 -231 256 -257 q 350 -204 310 -204 q 418 -231 392 -204 q 444 -299 444 -257 q 417 -366 444 -339 q 350 -393 390 -393 z "},"Ì":{"ha":700,"x_min":90,"x_max":610,"o":"m 100 0 q 90 59 90 24 q 100 117 90 94 l 286 117 l 286 886 l 100 886 q 90 945 90 910 q 100 1003 90 981 l 600 1003 q 610 945 610 981 q 600 886 610 910 l 415 886 l 415 117 l 600 117 q 610 59 610 94 q 600 0 610 24 l 100 0 m 461 1101 q 336 1144 400 1117 q 219 1203 272 1172 q 139 1257 167 1233 q 204 1358 143 1319 q 284 1308 233 1336 q 392 1256 335 1281 q 500 1217 450 1232 q 491 1156 501 1186 q 461 1101 481 1125 z "},"Ỉ":{"ha":700,"x_min":90,"x_max":610,"o":"m 100 0 q 90 59 90 24 q 100 117 90 94 l 286 117 l 286 886 l 100 886 q 90 945 90 910 q 100 1003 90 981 l 600 1003 q 610 945 610 981 q 600 886 610 910 l 415 886 l 415 117 l 600 117 q 610 59 610 94 q 600 0 610 24 l 100 0 m 311 1242 q 418 1314 418 1269 q 336 1360 418 1360 q 263 1351 297 1360 q 200 1335 228 1343 q 178 1381 186 1353 q 171 1439 169 1408 q 249 1463 206 1453 q 344 1472 293 1472 q 495 1432 444 1472 q 546 1318 546 1392 q 490 1202 546 1249 q 338 1143 435 1156 q 311 1242 308 1181 z "},"Ĩ":{"ha":700,"x_min":86,"x_max":617,"o":"m 100 0 q 90 59 90 24 q 100 117 90 94 l 286 117 l 286 886 l 100 886 q 90 945 90 910 q 100 1003 90 981 l 600 1003 q 610 945 610 981 q 600 886 610 910 l 415 886 l 415 117 l 600 117 q 610 59 610 94 q 600 0 610 24 l 100 0 m 451 1250 q 497 1266 482 1250 q 529 1314 511 1282 q 617 1282 586 1314 q 561 1177 603 1218 q 456 1136 519 1136 q 415 1142 438 1136 q 349 1171 393 1149 q 294 1198 319 1186 q 249 1210 269 1210 q 208 1194 224 1210 q 174 1146 193 1178 q 124 1153 147 1147 q 86 1178 101 1160 q 144 1282 99 1242 q 249 1322 189 1322 q 306 1312 279 1322 q 361 1286 333 1301 q 406 1263 382 1275 q 451 1250 429 1250 z "},"J":{"ha":976,"x_min":56,"x_max":935,"o":"m 369 -19 q 201 22 267 -19 q 100 139 135 64 q 56 313 65 214 q 114 335 78 328 q 181 338 150 342 q 237 167 196 231 q 372 104 278 104 q 503 162 463 104 q 544 324 544 219 l 544 890 l 253 890 q 244 947 244 922 q 253 1003 243 971 l 926 1003 q 934 947 935 971 q 926 890 933 922 l 675 890 l 675 324 q 596 72 675 164 q 369 -19 517 -19 z "},"K":{"ha":951,"x_min":139,"x_max":924,"o":"m 203 -10 q 139 0 172 -10 l 139 1003 q 203 1013 168 1013 q 268 1003 235 1013 l 268 464 l 740 1021 q 799 993 772 1015 q 836 939 826 971 l 518 568 l 924 64 q 889 10 918 35 q 825 -19 860 -15 l 435 472 l 268 276 l 268 0 q 203 -10 239 -10 z "},"L":{"ha":825,"x_min":139,"x_max":769,"o":"m 139 0 l 139 1003 q 203 1013 172 1013 q 268 1003 239 1013 l 268 121 l 758 121 q 767 87 765 110 q 768 40 769 64 q 758 0 767 15 l 139 0 z "},"Ŀ":{"ha":825,"x_min":139,"x_max":769,"o":"m 139 0 l 139 1003 q 203 1013 172 1013 q 268 1003 239 1013 l 268 121 l 758 121 q 767 87 765 110 q 768 40 769 64 q 758 0 767 15 l 139 0 m 621 463 q 554 491 582 463 q 526 558 526 519 q 554 625 526 597 q 621 653 582 653 q 688 625 660 653 q 717 558 717 597 q 688 491 717 519 q 621 463 660 463 z "},"M":{"ha":1211,"x_min":139,"x_max":1072,"o":"m 203 -10 q 139 0 168 -10 l 139 1003 q 172 1011 156 1010 q 200 1013 189 1013 q 233 1011 215 1013 q 267 1003 250 1010 l 607 329 l 946 1003 q 979 1011 964 1010 q 1006 1013 994 1013 q 1039 1011 1021 1013 q 1072 1003 1057 1010 l 1072 0 q 1007 -10 1039 -10 q 943 0 972 -10 l 943 725 l 664 171 q 607 161 640 161 q 549 171 574 161 l 268 726 l 268 0 q 203 -10 235 -10 z "},"N":{"ha":1067,"x_min":139,"x_max":928,"o":"m 203 -10 q 139 0 168 -10 l 139 1003 q 204 1013 168 1013 q 230 1011 217 1013 q 257 1006 243 1010 l 799 240 l 799 1003 q 864 1013 828 1013 q 928 1003 894 1013 l 928 0 q 875 -10 904 -10 q 815 0 843 -10 l 268 774 l 268 0 q 203 -10 235 -10 z "},"Ñ":{"ha":1067,"x_min":139,"x_max":928,"o":"m 203 -10 q 139 0 168 -10 l 139 1003 q 204 1013 168 1013 q 230 1011 217 1013 q 257 1006 243 1010 l 799 240 l 799 1003 q 864 1013 828 1013 q 928 1003 894 1013 l 928 0 q 875 -10 904 -10 q 815 0 843 -10 l 268 774 l 268 0 q 203 -10 235 -10 m 635 1250 q 680 1266 665 1250 q 713 1314 694 1282 q 800 1282 769 1314 q 744 1177 786 1218 q 639 1136 703 1136 q 599 1142 621 1136 q 532 1171 576 1149 q 478 1198 503 1186 q 432 1210 453 1210 q 392 1194 407 1210 q 357 1146 376 1178 q 308 1153 331 1147 q 269 1178 285 1160 q 327 1282 282 1242 q 432 1322 372 1322 q 490 1312 463 1322 q 544 1286 517 1301 q 589 1263 565 1275 q 635 1250 613 1250 z "},"O":{"ha":1050,"x_min":76,"x_max":974,"o":"m 526 -19 q 292 47 393 -19 q 133 230 190 113 q 76 501 76 347 q 133 773 76 656 q 292 956 190 890 q 526 1022 393 1022 q 760 956 660 1022 q 917 774 861 890 q 974 501 974 657 q 917 230 974 347 q 760 47 861 113 q 526 -19 660 -19 m 525 106 q 692 155 621 106 q 801 294 763 204 q 840 501 840 383 q 801 710 840 621 q 692 848 763 799 q 526 897 621 897 q 360 848 432 897 q 249 710 289 799 q 210 501 210 621 q 249 294 210 383 q 359 155 288 204 q 525 106 431 106 z "},"Ó":{"ha":1050,"x_min":76,"x_max":974,"o":"m 526 -19 q 292 47 393 -19 q 133 230 190 113 q 76 501 76 347 q 133 773 76 656 q 292 956 190 890 q 526 1022 393 1022 q 760 956 660 1022 q 917 774 861 890 q 974 501 974 657 q 917 230 974 347 q 760 47 861 113 q 526 -19 660 -19 m 525 106 q 692 155 621 106 q 801 294 763 204 q 840 501 840 383 q 801 710 840 621 q 692 848 763 799 q 526 897 621 897 q 360 848 432 897 q 249 710 289 799 q 210 501 210 621 q 249 294 210 383 q 359 155 288 204 q 525 106 431 106 m 414 1101 q 384 1156 394 1125 q 375 1217 374 1186 q 483 1256 425 1232 q 592 1308 540 1281 q 671 1358 643 1336 q 736 1257 732 1319 q 656 1203 708 1233 q 539 1144 603 1172 q 414 1101 475 1117 z "},"Ô":{"ha":1050,"x_min":76,"x_max":974,"o":"m 526 -19 q 292 47 393 -19 q 133 230 190 113 q 76 501 76 347 q 133 773 76 656 q 292 956 190 890 q 526 1022 393 1022 q 760 956 660 1022 q 917 774 861 890 q 974 501 974 657 q 917 230 974 347 q 760 47 861 113 q 526 -19 660 -19 m 525 106 q 692 155 621 106 q 801 294 763 204 q 840 501 840 383 q 801 710 840 621 q 692 848 763 799 q 526 897 621 897 q 360 848 432 897 q 249 710 289 799 q 210 501 210 621 q 249 294 210 383 q 359 155 288 204 q 525 106 431 106 m 572 1351 q 657 1281 625 1307 q 715 1237 689 1254 q 774 1199 742 1219 q 714 1101 767 1138 q 621 1157 671 1121 q 525 1239 571 1193 q 333 1101 419 1140 q 274 1199 282 1136 q 338 1241 308 1221 q 400 1288 368 1261 q 475 1351 432 1314 q 572 1351 524 1364 z "},"Ố":{"ha":1050,"x_min":76,"x_max":974,"o":"m 526 -19 q 292 47 393 -19 q 133 230 190 113 q 76 501 76 347 q 133 773 76 656 q 292 956 190 890 q 526 1022 393 1022 q 760 956 660 1022 q 917 774 861 890 q 974 501 974 657 q 917 230 974 347 q 760 47 861 113 q 526 -19 660 -19 m 525 106 q 692 155 621 106 q 801 294 763 204 q 840 501 840 383 q 801 710 840 621 q 692 848 763 799 q 526 897 621 897 q 360 848 432 897 q 249 710 289 799 q 210 501 210 621 q 249 294 210 383 q 359 155 288 204 q 525 106 431 106 m 832 1582 q 890 1556 863 1576 q 929 1508 917 1536 l 768 1310 q 713 1341 738 1319 q 676 1390 688 1363 l 832 1582 m 572 1351 q 657 1281 625 1307 q 715 1237 689 1254 q 774 1199 742 1219 q 714 1101 767 1138 q 621 1157 671 1121 q 525 1239 571 1193 q 333 1101 419 1140 q 274 1199 282 1136 q 338 1241 308 1221 q 400 1288 368 1261 q 475 1351 432 1314 q 572 1351 524 1364 z "},"Ộ":{"ha":1050,"x_min":76,"x_max":974,"o":"m 526 -19 q 292 47 393 -19 q 133 230 190 113 q 76 501 76 347 q 133 773 76 656 q 292 956 190 890 q 526 1022 393 1022 q 760 956 660 1022 q 917 774 861 890 q 974 501 974 657 q 917 230 974 347 q 760 47 861 113 q 526 -19 660 -19 m 525 106 q 692 155 621 106 q 801 294 763 204 q 840 501 840 383 q 801 710 840 621 q 692 848 763 799 q 526 897 621 897 q 360 848 432 897 q 249 710 289 799 q 210 501 210 621 q 249 294 210 383 q 359 155 288 204 q 525 106 431 106 m 525 -393 q 458 -365 486 -393 q 431 -299 431 -337 q 458 -231 431 -257 q 525 -204 485 -204 q 593 -231 567 -204 q 619 -299 619 -257 q 592 -366 619 -339 q 525 -393 565 -393 m 572 1351 q 657 1281 625 1307 q 715 1237 689 1254 q 774 1199 742 1219 q 714 1101 767 1138 q 621 1157 671 1121 q 525 1239 571 1193 q 333 1101 419 1140 q 274 1199 282 1136 q 338 1241 308 1221 q 400 1288 368 1261 q 475 1351 432 1314 q 572 1351 524 1364 z "},"Ồ":{"ha":1050,"x_min":76,"x_max":974,"o":"m 526 -19 q 292 47 393 -19 q 133 230 190 113 q 76 501 76 347 q 133 773 76 656 q 292 956 190 890 q 526 1022 393 1022 q 760 956 660 1022 q 917 774 861 890 q 974 501 974 657 q 917 230 974 347 q 760 47 861 113 q 526 -19 660 -19 m 525 106 q 692 155 621 106 q 801 294 763 204 q 840 501 840 383 q 801 710 840 621 q 692 848 763 799 q 526 897 621 897 q 360 848 432 897 q 249 710 289 799 q 210 501 210 621 q 249 294 210 383 q 359 155 288 204 q 525 106 431 106 m 703 1582 l 858 1390 q 823 1341 849 1363 q 767 1310 797 1319 l 606 1508 q 645 1556 618 1536 q 703 1582 672 1576 m 572 1351 q 657 1281 625 1307 q 715 1237 689 1254 q 774 1199 742 1219 q 714 1101 767 1138 q 621 1157 671 1121 q 525 1239 571 1193 q 333 1101 419 1140 q 274 1199 282 1136 q 338 1241 308 1221 q 400 1288 368 1261 q 475 1351 432 1314 q 572 1351 524 1364 z "},"Ổ":{"ha":1050,"x_min":76,"x_max":974,"o":"m 526 -19 q 292 47 393 -19 q 133 230 190 113 q 76 501 76 347 q 133 773 76 656 q 292 956 190 890 q 526 1022 393 1022 q 760 956 660 1022 q 917 774 861 890 q 974 501 974 657 q 917 230 974 347 q 760 47 861 113 q 526 -19 660 -19 m 525 106 q 692 155 621 106 q 801 294 763 204 q 840 501 840 383 q 801 710 840 621 q 692 848 763 799 q 526 897 621 897 q 360 848 432 897 q 249 710 289 799 q 210 501 210 621 q 249 294 210 383 q 359 155 288 204 q 525 106 431 106 m 722 1392 q 783 1419 765 1404 q 800 1454 800 1435 q 732 1499 800 1499 q 673 1492 706 1499 q 610 1474 640 1486 q 587 1519 596 1492 q 579 1575 578 1546 q 649 1599 607 1590 q 742 1608 690 1608 q 878 1569 832 1608 q 924 1465 924 1529 q 900 1383 924 1418 q 838 1327 876 1349 q 757 1293 800 1306 q 731 1338 740 1311 q 722 1392 722 1364 m 572 1351 q 657 1281 625 1307 q 715 1237 689 1254 q 774 1199 742 1219 q 714 1101 767 1138 q 621 1157 671 1121 q 525 1239 571 1193 q 333 1101 419 1140 q 274 1199 282 1136 q 338 1241 308 1221 q 400 1288 368 1261 q 475 1351 432 1314 q 572 1351 524 1364 z "},"Ỗ":{"ha":1050,"x_min":76,"x_max":974,"o":"m 526 -19 q 292 47 393 -19 q 133 230 190 113 q 76 501 76 347 q 133 773 76 656 q 292 956 190 890 q 526 1022 393 1022 q 760 956 660 1022 q 917 774 861 890 q 974 501 974 657 q 917 230 974 347 q 760 47 861 113 q 526 -19 660 -19 m 525 106 q 692 155 621 106 q 801 294 763 204 q 840 501 840 383 q 801 710 840 621 q 692 848 763 799 q 526 897 621 897 q 360 848 432 897 q 249 710 289 799 q 210 501 210 621 q 249 294 210 383 q 359 155 288 204 q 525 106 431 106 m 619 1439 q 575 1447 597 1439 q 519 1471 553 1454 q 470 1495 485 1489 q 442 1501 456 1501 q 406 1490 424 1501 q 375 1449 389 1478 q 285 1492 318 1449 q 347 1585 307 1553 q 439 1618 386 1618 q 490 1609 469 1618 q 536 1585 510 1600 q 580 1563 564 1569 q 608 1557 596 1557 q 645 1568 628 1557 q 675 1610 663 1579 q 765 1567 732 1610 q 706 1472 743 1506 q 619 1439 669 1439 m 572 1351 q 657 1281 625 1307 q 715 1237 689 1254 q 774 1199 742 1219 q 714 1101 767 1138 q 621 1157 671 1121 q 525 1239 571 1193 q 333 1101 419 1140 q 274 1199 282 1136 q 338 1241 308 1221 q 400 1288 368 1261 q 475 1351 432 1314 q 572 1351 524 1364 z "},"Ö":{"ha":1050,"x_min":76,"x_max":974,"o":"m 526 -19 q 292 47 393 -19 q 133 230 190 113 q 76 501 76 347 q 133 773 76 656 q 292 956 190 890 q 526 1022 393 1022 q 760 956 660 1022 q 917 774 861 890 q 974 501 974 657 q 917 230 974 347 q 760 47 861 113 q 526 -19 660 -19 m 525 106 q 692 155 621 106 q 801 294 763 204 q 840 501 840 383 q 801 710 840 621 q 692 848 763 799 q 526 897 621 897 q 360 848 432 897 q 249 710 289 799 q 210 501 210 621 q 249 294 210 383 q 359 155 288 204 q 525 106 431 106 m 664 1129 q 602 1155 628 1129 q 576 1217 576 1181 q 602 1278 576 1253 q 664 1304 628 1304 q 726 1278 700 1304 q 751 1217 751 1253 q 726 1154 751 1179 q 664 1129 700 1129 m 376 1129 q 316 1155 342 1129 q 290 1217 290 1181 q 316 1278 290 1253 q 376 1304 342 1304 q 439 1278 413 1304 q 465 1217 465 1253 q 439 1154 465 1179 q 376 1129 413 1129 z "},"Ọ":{"ha":1050,"x_min":76,"x_max":974,"o":"m 526 -19 q 292 47 393 -19 q 133 230 190 113 q 76 501 76 347 q 133 773 76 656 q 292 956 190 890 q 526 1022 393 1022 q 760 956 660 1022 q 917 774 861 890 q 974 501 974 657 q 917 230 974 347 q 760 47 861 113 q 526 -19 660 -19 m 525 106 q 692 155 621 106 q 801 294 763 204 q 840 501 840 383 q 801 710 840 621 q 692 848 763 799 q 526 897 621 897 q 360 848 432 897 q 249 710 289 799 q 210 501 210 621 q 249 294 210 383 q 359 155 288 204 q 525 106 431 106 m 525 -393 q 458 -365 486 -393 q 431 -299 431 -337 q 458 -231 431 -257 q 525 -204 485 -204 q 593 -231 567 -204 q 619 -299 619 -257 q 592 -366 619 -339 q 525 -393 565 -393 z "},"Ò":{"ha":1050,"x_min":76,"x_max":974,"o":"m 526 -19 q 292 47 393 -19 q 133 230 190 113 q 76 501 76 347 q 133 773 76 656 q 292 956 190 890 q 526 1022 393 1022 q 760 956 660 1022 q 917 774 861 890 q 974 501 974 657 q 917 230 974 347 q 760 47 861 113 q 526 -19 660 -19 m 525 106 q 692 155 621 106 q 801 294 763 204 q 840 501 840 383 q 801 710 840 621 q 692 848 763 799 q 526 897 621 897 q 360 848 432 897 q 249 710 289 799 q 210 501 210 621 q 249 294 210 383 q 359 155 288 204 q 525 106 431 106 m 636 1101 q 511 1144 575 1117 q 394 1203 447 1172 q 314 1257 342 1233 q 379 1358 318 1319 q 459 1308 408 1336 q 567 1256 510 1281 q 675 1217 625 1232 q 666 1156 676 1186 q 636 1101 656 1125 z "},"Ỏ":{"ha":1050,"x_min":76,"x_max":974,"o":"m 526 -19 q 292 47 393 -19 q 133 230 190 113 q 76 501 76 347 q 133 773 76 656 q 292 956 190 890 q 526 1022 393 1022 q 760 956 660 1022 q 917 774 861 890 q 974 501 974 657 q 917 230 974 347 q 760 47 861 113 q 526 -19 660 -19 m 525 106 q 692 155 621 106 q 801 294 763 204 q 840 501 840 383 q 801 710 840 621 q 692 848 763 799 q 526 897 621 897 q 360 848 432 897 q 249 710 289 799 q 210 501 210 621 q 249 294 210 383 q 359 155 288 204 q 525 106 431 106 m 486 1242 q 593 1314 593 1269 q 511 1360 593 1360 q 438 1351 472 1360 q 375 1335 403 1343 q 353 1381 361 1353 q 346 1439 344 1408 q 424 1463 381 1453 q 519 1472 468 1472 q 670 1432 619 1472 q 721 1318 721 1392 q 665 1202 721 1249 q 513 1143 610 1156 q 486 1242 483 1181 z "},"Ơ":{"ha":1050,"x_min":76,"x_max":974,"o":"m 526 -19 q 292 47 393 -19 q 133 230 190 113 q 76 501 76 347 q 133 773 76 656 q 292 956 190 890 q 526 1022 393 1022 q 715 982 629 1022 q 808 1032 785 994 q 831 1114 831 1069 q 830 1142 831 1131 q 826 1168 829 1154 q 885 1185 854 1182 q 944 1176 915 1189 q 949 1119 949 1147 q 825 904 949 960 q 935 733 896 836 q 974 501 974 629 q 917 230 974 347 q 760 47 861 113 q 526 -19 660 -19 m 525 106 q 692 155 621 106 q 801 294 763 204 q 840 501 840 383 q 801 710 840 621 q 692 848 763 799 q 526 897 621 897 q 360 848 432 897 q 249 710 289 799 q 210 501 210 621 q 249 294 210 383 q 359 155 288 204 q 525 106 431 106 z "},"Ớ":{"ha":1050,"x_min":76,"x_max":974,"o":"m 526 -19 q 292 47 393 -19 q 133 230 190 113 q 76 501 76 347 q 133 773 76 656 q 292 956 190 890 q 526 1022 393 1022 q 715 982 629 1022 q 808 1032 785 994 q 831 1114 831 1069 q 830 1142 831 1131 q 826 1168 829 1154 q 885 1185 854 1182 q 944 1176 915 1189 q 949 1119 949 1147 q 825 904 949 960 q 935 733 896 836 q 974 501 974 629 q 917 230 974 347 q 760 47 861 113 q 526 -19 660 -19 m 525 106 q 692 155 621 106 q 801 294 763 204 q 840 501 840 383 q 801 710 840 621 q 692 848 763 799 q 526 897 621 897 q 360 848 432 897 q 249 710 289 799 q 210 501 210 621 q 249 294 210 383 q 359 155 288 204 q 525 106 431 106 m 414 1101 q 384 1156 394 1125 q 375 1217 374 1186 q 483 1256 425 1232 q 592 1308 540 1281 q 671 1358 643 1336 q 736 1257 732 1319 q 656 1203 708 1233 q 539 1144 603 1172 q 414 1101 475 1117 z "},"Ợ":{"ha":1050,"x_min":76,"x_max":974,"o":"m 526 -19 q 292 47 393 -19 q 133 230 190 113 q 76 501 76 347 q 133 773 76 656 q 292 956 190 890 q 526 1022 393 1022 q 715 982 629 1022 q 808 1032 785 994 q 831 1114 831 1069 q 830 1142 831 1131 q 826 1168 829 1154 q 885 1185 854 1182 q 944 1176 915 1189 q 949 1119 949 1147 q 825 904 949 960 q 935 733 896 836 q 974 501 974 629 q 917 230 974 347 q 760 47 861 113 q 526 -19 660 -19 m 525 106 q 692 155 621 106 q 801 294 763 204 q 840 501 840 383 q 801 710 840 621 q 692 848 763 799 q 526 897 621 897 q 360 848 432 897 q 249 710 289 799 q 210 501 210 621 q 249 294 210 383 q 359 155 288 204 q 525 106 431 106 m 525 -393 q 458 -365 486 -393 q 431 -299 431 -337 q 458 -231 431 -257 q 525 -204 485 -204 q 593 -231 567 -204 q 619 -299 619 -257 q 592 -366 619 -339 q 525 -393 565 -393 z "},"Ờ":{"ha":1050,"x_min":76,"x_max":974,"o":"m 526 -19 q 292 47 393 -19 q 133 230 190 113 q 76 501 76 347 q 133 773 76 656 q 292 956 190 890 q 526 1022 393 1022 q 715 982 629 1022 q 808 1032 785 994 q 831 1114 831 1069 q 830 1142 831 1131 q 826 1168 829 1154 q 885 1185 854 1182 q 944 1176 915 1189 q 949 1119 949 1147 q 825 904 949 960 q 935 733 896 836 q 974 501 974 629 q 917 230 974 347 q 760 47 861 113 q 526 -19 660 -19 m 525 106 q 692 155 621 106 q 801 294 763 204 q 840 501 840 383 q 801 710 840 621 q 692 848 763 799 q 526 897 621 897 q 360 848 432 897 q 249 710 289 799 q 210 501 210 621 q 249 294 210 383 q 359 155 288 204 q 525 106 431 106 m 636 1101 q 511 1144 575 1117 q 394 1203 447 1172 q 314 1257 342 1233 q 379 1358 318 1319 q 459 1308 408 1336 q 567 1256 510 1281 q 675 1217 625 1232 q 666 1156 676 1186 q 636 1101 656 1125 z "},"Ở":{"ha":1050,"x_min":76,"x_max":974,"o":"m 526 -19 q 292 47 393 -19 q 133 230 190 113 q 76 501 76 347 q 133 773 76 656 q 292 956 190 890 q 526 1022 393 1022 q 715 982 629 1022 q 808 1032 785 994 q 831 1114 831 1069 q 830 1142 831 1131 q 826 1168 829 1154 q 885 1185 854 1182 q 944 1176 915 1189 q 949 1119 949 1147 q 825 904 949 960 q 935 733 896 836 q 974 501 974 629 q 917 230 974 347 q 760 47 861 113 q 526 -19 660 -19 m 525 106 q 692 155 621 106 q 801 294 763 204 q 840 501 840 383 q 801 710 840 621 q 692 848 763 799 q 526 897 621 897 q 360 848 432 897 q 249 710 289 799 q 210 501 210 621 q 249 294 210 383 q 359 155 288 204 q 525 106 431 106 m 486 1242 q 593 1314 593 1269 q 511 1360 593 1360 q 438 1351 472 1360 q 375 1335 403 1343 q 353 1381 361 1353 q 346 1439 344 1408 q 424 1463 381 1453 q 519 1472 468 1472 q 670 1432 619 1472 q 721 1318 721 1392 q 665 1202 721 1249 q 513 1143 610 1156 q 486 1242 483 1181 z "},"Ỡ":{"ha":1050,"x_min":76,"x_max":974,"o":"m 526 -19 q 292 47 393 -19 q 133 230 190 113 q 76 501 76 347 q 133 773 76 656 q 292 956 190 890 q 526 1022 393 1022 q 715 982 629 1022 q 808 1032 785 994 q 831 1114 831 1069 q 830 1142 831 1131 q 826 1168 829 1154 q 885 1185 854 1182 q 944 1176 915 1189 q 949 1119 949 1147 q 825 904 949 960 q 935 733 896 836 q 974 501 974 629 q 917 230 974 347 q 760 47 861 113 q 526 -19 660 -19 m 525 106 q 692 155 621 106 q 801 294 763 204 q 840 501 840 383 q 801 710 840 621 q 692 848 763 799 q 526 897 621 897 q 360 848 432 897 q 249 710 289 799 q 210 501 210 621 q 249 294 210 383 q 359 155 288 204 q 525 106 431 106 m 626 1250 q 672 1266 657 1250 q 704 1314 686 1282 q 792 1282 761 1314 q 736 1177 778 1218 q 631 1136 694 1136 q 590 1142 613 1136 q 524 1171 568 1149 q 469 1198 494 1186 q 424 1210 444 1210 q 383 1194 399 1210 q 349 1146 368 1178 q 299 1153 322 1147 q 261 1178 276 1160 q 319 1282 274 1242 q 424 1322 364 1322 q 481 1312 454 1322 q 536 1286 508 1301 q 581 1263 557 1275 q 626 1250 604 1250 z "},"Õ":{"ha":1050,"x_min":76,"x_max":974,"o":"m 526 -19 q 292 47 393 -19 q 133 230 190 113 q 76 501 76 347 q 133 773 76 656 q 292 956 190 890 q 526 1022 393 1022 q 760 956 660 1022 q 917 774 861 890 q 974 501 974 657 q 917 230 974 347 q 760 47 861 113 q 526 -19 660 -19 m 525 106 q 692 155 621 106 q 801 294 763 204 q 840 501 840 383 q 801 710 840 621 q 692 848 763 799 q 526 897 621 897 q 360 848 432 897 q 249 710 289 799 q 210 501 210 621 q 249 294 210 383 q 359 155 288 204 q 525 106 431 106 m 626 1250 q 672 1266 657 1250 q 704 1314 686 1282 q 792 1282 761 1314 q 736 1177 778 1218 q 631 1136 694 1136 q 590 1142 613 1136 q 524 1171 568 1149 q 469 1198 494 1186 q 424 1210 444 1210 q 383 1194 399 1210 q 349 1146 368 1178 q 299 1153 322 1147 q 261 1178 276 1160 q 319 1282 274 1242 q 424 1322 364 1322 q 481 1312 454 1322 q 536 1286 508 1301 q 581 1263 557 1275 q 626 1250 604 1250 z "},"Œ":{"ha":1324,"x_min":76,"x_max":1233,"o":"m 1225 0 l 681 0 q 540 -19 614 -19 q 299 47 403 -19 q 135 230 194 113 q 76 501 76 347 q 135 773 76 656 q 299 956 194 890 q 540 1022 403 1022 q 682 1003 615 1022 l 1215 1003 q 1224 947 1224 981 q 1215 882 1224 913 l 803 882 l 803 565 l 1199 565 q 1206 510 1206 543 q 1199 444 1206 476 l 803 444 l 803 121 l 1225 121 q 1233 63 1233 97 q 1225 0 1233 28 m 208 501 q 249 292 208 382 q 365 153 290 203 q 539 104 439 104 q 674 131 610 104 l 674 872 q 540 899 613 899 q 366 849 440 899 q 250 711 292 800 q 208 501 208 622 z "},"P":{"ha":900,"x_min":139,"x_max":817,"o":"m 268 0 q 203 -10 235 -10 q 139 0 168 -10 l 139 1003 l 451 1003 q 723 924 629 1003 q 817 703 817 844 q 715 463 817 549 q 439 376 613 376 l 268 376 l 268 0 m 451 883 l 268 883 l 268 494 l 426 494 q 618 546 553 494 q 683 699 683 597 q 451 883 683 883 z "},"Q":{"ha":1050,"x_min":76,"x_max":974,"o":"m 526 -19 q 292 47 393 -19 q 133 230 190 113 q 76 501 76 347 q 133 773 76 656 q 292 956 190 890 q 526 1022 393 1022 q 760 956 660 1022 q 917 774 861 890 q 974 501 974 657 q 926 251 974 361 q 796 72 879 140 l 914 -100 q 875 -147 901 -126 q 813 -172 849 -167 l 689 10 q 526 -19 614 -19 m 525 106 q 615 118 572 106 l 454 357 q 499 401 474 383 q 556 426 524 419 l 722 181 q 810 315 779 232 q 840 501 840 397 q 801 710 840 621 q 692 848 763 799 q 526 897 621 897 q 360 848 432 897 q 249 710 289 799 q 210 501 210 621 q 249 294 210 383 q 359 155 288 204 q 525 106 431 106 z "},"R":{"ha":931,"x_min":139,"x_max":850,"o":"m 203 -10 q 139 0 168 -10 l 139 1003 l 471 1003 q 644 974 564 1003 q 773 882 724 946 q 822 714 822 818 q 790 576 822 633 q 708 481 758 518 q 601 424 658 444 l 850 75 q 810 22 839 46 q 749 -8 782 -1 l 463 393 q 433 392 447 392 l 268 392 l 268 0 q 203 -10 235 -10 m 482 883 l 268 883 l 268 511 l 433 511 q 522 520 476 511 q 604 551 567 529 q 665 611 642 572 q 689 710 689 650 q 631 839 689 794 q 482 883 572 883 z "},"S":{"ha":811,"x_min":72,"x_max":739,"o":"m 404 -18 q 185 42 269 -17 q 72 200 100 101 q 122 242 88 226 q 186 256 156 258 q 269 142 211 181 q 411 104 328 103 q 554 151 500 106 q 608 274 608 196 q 485 426 608 392 l 300 478 q 147 573 203 506 q 92 733 92 640 q 134 882 92 817 q 251 984 176 947 q 421 1021 325 1021 q 613 976 528 1021 q 733 857 699 931 q 692 813 721 835 q 631 781 664 792 q 417 899 563 899 q 276 855 331 899 q 222 742 222 811 q 365 590 222 631 l 529 546 q 683 448 628 519 q 739 275 739 376 q 695 119 739 186 q 576 17 651 53 q 404 -18 500 -18 z "},"Ş":{"ha":811,"x_min":72,"x_max":739,"o":"m 404 -18 q 185 42 269 -17 q 72 200 100 101 q 122 242 88 226 q 186 256 156 258 q 269 142 211 181 q 411 104 328 103 q 554 151 500 106 q 608 274 608 196 q 485 426 608 392 l 300 478 q 147 573 203 506 q 92 733 92 640 q 134 882 92 817 q 251 984 176 947 q 421 1021 325 1021 q 613 976 528 1021 q 733 857 699 931 q 692 813 721 835 q 631 781 664 792 q 417 899 563 899 q 276 855 331 899 q 222 742 222 811 q 365 590 222 631 l 529 546 q 683 448 628 519 q 739 275 739 376 q 695 119 739 186 q 576 17 651 53 q 404 -18 500 -18 m 393 -361 q 340 -358 367 -361 q 293 -349 313 -354 q 308 -250 276 -293 q 345 -257 324 -254 q 389 -260 367 -260 q 452 -247 429 -260 q 475 -210 475 -235 q 342 -147 475 -157 l 351 10 l 463 10 l 457 -74 q 556 -124 521 -89 q 592 -212 592 -160 q 538 -321 592 -281 q 393 -361 483 -361 z "},"ẞ":{"ha":1044,"x_min":125,"x_max":968,"o":"m 586 588 l 740 856 q 649 886 699 875 q 535 897 599 897 q 254 642 254 897 l 254 0 q 224 -4 240 -3 q 189 -6 208 -6 q 156 -4 171 -6 q 125 0 140 -3 l 125 632 q 230 919 125 815 q 538 1022 335 1022 q 738 992 642 1022 q 913 900 835 963 l 733 588 q 905 481 842 554 q 968 292 968 407 q 929 132 968 203 q 817 21 890 61 q 636 -19 743 -19 q 483 1 561 -19 q 350 57 406 22 q 361 122 349 90 q 401 171 374 153 q 520 123 465 140 q 631 106 575 106 q 783 156 729 106 q 838 289 838 207 q 806 397 838 354 q 724 460 775 439 q 613 481 674 481 q 586 588 576 519 z "},"T":{"ha":896,"x_min":32,"x_max":853,"o":"m 447 -7 q 417 -5 433 -7 q 383 0 401 -3 l 383 886 l 54 886 q 54 1003 32 951 l 842 1003 q 853 947 853 981 q 842 886 853 914 l 514 886 l 514 0 q 479 -5 496 -3 q 447 -7 463 -7 z "},"U":{"ha":1010,"x_min":125,"x_max":885,"o":"m 506 -19 q 222 90 318 -19 q 125 411 125 199 l 125 1003 q 189 1013 158 1013 q 254 1003 225 1013 l 254 421 q 506 110 254 110 q 756 421 756 110 l 756 1003 q 821 1013 785 1013 q 885 1003 851 1013 l 885 411 q 789 90 885 199 q 506 -19 693 -19 z "},"Ú":{"ha":1010,"x_min":125,"x_max":885,"o":"m 506 -19 q 222 90 318 -19 q 125 411 125 199 l 125 1003 q 189 1013 158 1013 q 254 1003 225 1013 l 254 421 q 506 110 254 110 q 756 421 756 110 l 756 1003 q 821 1013 785 1013 q 885 1003 851 1013 l 885 411 q 789 90 885 199 q 506 -19 693 -19 m 394 1101 q 365 1156 375 1125 q 356 1217 354 1186 q 463 1256 406 1232 q 572 1308 521 1281 q 651 1358 624 1336 q 717 1257 713 1319 q 636 1203 689 1233 q 519 1144 583 1172 q 394 1101 456 1117 z "},"Û":{"ha":1010,"x_min":125,"x_max":885,"o":"m 506 -19 q 222 90 318 -19 q 125 411 125 199 l 125 1003 q 189 1013 158 1013 q 254 1003 225 1013 l 254 421 q 506 110 254 110 q 756 421 756 110 l 756 1003 q 821 1013 785 1013 q 885 1003 851 1013 l 885 411 q 789 90 885 199 q 506 -19 693 -19 m 553 1351 q 638 1281 606 1307 q 696 1237 669 1254 q 754 1199 722 1219 q 694 1101 747 1138 q 601 1157 651 1121 q 506 1239 551 1193 q 314 1101 400 1140 q 254 1199 263 1136 q 319 1241 289 1221 q 381 1288 349 1261 q 456 1351 413 1314 q 553 1351 504 1364 z "},"Ü":{"ha":1010,"x_min":125,"x_max":885,"o":"m 506 -19 q 222 90 318 -19 q 125 411 125 199 l 125 1003 q 189 1013 158 1013 q 254 1003 225 1013 l 254 421 q 506 110 254 110 q 756 421 756 110 l 756 1003 q 821 1013 785 1013 q 885 1003 851 1013 l 885 411 q 789 90 885 199 q 506 -19 693 -19 m 644 1129 q 583 1155 608 1129 q 557 1217 557 1181 q 583 1278 557 1253 q 644 1304 608 1304 q 706 1278 681 1304 q 732 1217 732 1253 q 706 1154 732 1179 q 644 1129 681 1129 m 357 1129 q 297 1155 322 1129 q 271 1217 271 1181 q 297 1278 271 1253 q 357 1304 322 1304 q 419 1278 393 1304 q 446 1217 446 1253 q 419 1154 446 1179 q 357 1129 393 1129 z "},"Ụ":{"ha":1010,"x_min":125,"x_max":885,"o":"m 506 -19 q 222 90 318 -19 q 125 411 125 199 l 125 1003 q 189 1013 158 1013 q 254 1003 225 1013 l 254 421 q 506 110 254 110 q 756 421 756 110 l 756 1003 q 821 1013 785 1013 q 885 1003 851 1013 l 885 411 q 789 90 885 199 q 506 -19 693 -19 m 506 -393 q 439 -365 467 -393 q 411 -299 411 -337 q 438 -231 411 -257 q 506 -204 465 -204 q 574 -231 547 -204 q 600 -299 600 -257 q 573 -366 600 -339 q 506 -393 546 -393 z "},"Ù":{"ha":1010,"x_min":125,"x_max":885,"o":"m 506 -19 q 222 90 318 -19 q 125 411 125 199 l 125 1003 q 189 1013 158 1013 q 254 1003 225 1013 l 254 421 q 506 110 254 110 q 756 421 756 110 l 756 1003 q 821 1013 785 1013 q 885 1003 851 1013 l 885 411 q 789 90 885 199 q 506 -19 693 -19 m 617 1101 q 492 1144 556 1117 q 375 1203 428 1172 q 294 1257 322 1233 q 360 1358 299 1319 q 440 1308 389 1336 q 548 1256 490 1281 q 656 1217 606 1232 q 647 1156 657 1186 q 617 1101 636 1125 z "},"Ủ":{"ha":1010,"x_min":125,"x_max":885,"o":"m 506 -19 q 222 90 318 -19 q 125 411 125 199 l 125 1003 q 189 1013 158 1013 q 254 1003 225 1013 l 254 421 q 506 110 254 110 q 756 421 756 110 l 756 1003 q 821 1013 785 1013 q 885 1003 851 1013 l 885 411 q 789 90 885 199 q 506 -19 693 -19 m 467 1242 q 574 1314 574 1269 q 492 1360 574 1360 q 418 1351 453 1360 q 356 1335 383 1343 q 333 1381 342 1353 q 326 1439 325 1408 q 405 1463 361 1453 q 500 1472 449 1472 q 651 1432 600 1472 q 701 1318 701 1392 q 646 1202 701 1249 q 493 1143 590 1156 q 467 1242 464 1181 z "},"Ư":{"ha":1010,"x_min":125,"x_max":1032,"o":"m 506 -19 q 222 90 318 -19 q 125 411 125 199 l 125 1003 q 189 1013 158 1013 q 254 1003 225 1013 l 254 421 q 506 110 254 110 q 756 421 756 110 l 756 1003 q 821 1013 785 1013 q 885 1003 851 1013 l 885 411 q 789 90 885 199 q 506 -19 693 -19 m 792 1007 q 884 1041 854 1011 q 914 1131 914 1071 q 913 1156 914 1146 q 910 1182 913 1167 q 1028 1190 972 1214 q 1032 1133 1032 1161 q 972 963 1032 1025 q 804 896 911 900 l 792 1007 z "},"Ứ":{"ha":1010,"x_min":125,"x_max":1032,"o":"m 506 -19 q 222 90 318 -19 q 125 411 125 199 l 125 1003 q 189 1013 158 1013 q 254 1003 225 1013 l 254 421 q 506 110 254 110 q 756 421 756 110 l 756 1003 q 821 1013 785 1013 q 885 1003 851 1013 l 885 411 q 789 90 885 199 q 506 -19 693 -19 m 792 1007 q 884 1041 854 1011 q 914 1131 914 1071 q 913 1156 914 1146 q 910 1182 913 1167 q 1028 1190 972 1214 q 1032 1133 1032 1161 q 972 963 1032 1025 q 804 896 911 900 l 792 1007 m 394 1101 q 365 1156 375 1125 q 356 1217 354 1186 q 463 1256 406 1232 q 572 1308 521 1281 q 651 1358 624 1336 q 717 1257 713 1319 q 636 1203 689 1233 q 519 1144 583 1172 q 394 1101 456 1117 z "},"Ự":{"ha":1010,"x_min":125,"x_max":1032,"o":"m 506 -19 q 222 90 318 -19 q 125 411 125 199 l 125 1003 q 189 1013 158 1013 q 254 1003 225 1013 l 254 421 q 506 110 254 110 q 756 421 756 110 l 756 1003 q 821 1013 785 1013 q 885 1003 851 1013 l 885 411 q 789 90 885 199 q 506 -19 693 -19 m 792 1007 q 884 1041 854 1011 q 914 1131 914 1071 q 913 1156 914 1146 q 910 1182 913 1167 q 1028 1190 972 1214 q 1032 1133 1032 1161 q 972 963 1032 1025 q 804 896 911 900 l 792 1007 m 506 -393 q 439 -365 467 -393 q 411 -299 411 -337 q 438 -231 411 -257 q 506 -204 465 -204 q 574 -231 547 -204 q 600 -299 600 -257 q 573 -366 600 -339 q 506 -393 546 -393 z "},"Ừ":{"ha":1010,"x_min":125,"x_max":1032,"o":"m 506 -19 q 222 90 318 -19 q 125 411 125 199 l 125 1003 q 189 1013 158 1013 q 254 1003 225 1013 l 254 421 q 506 110 254 110 q 756 421 756 110 l 756 1003 q 821 1013 785 1013 q 885 1003 851 1013 l 885 411 q 789 90 885 199 q 506 -19 693 -19 m 792 1007 q 884 1041 854 1011 q 914 1131 914 1071 q 913 1156 914 1146 q 910 1182 913 1167 q 1028 1190 972 1214 q 1032 1133 1032 1161 q 972 963 1032 1025 q 804 896 911 900 l 792 1007 m 617 1101 q 492 1144 556 1117 q 375 1203 428 1172 q 294 1257 322 1233 q 360 1358 299 1319 q 440 1308 389 1336 q 548 1256 490 1281 q 656 1217 606 1232 q 647 1156 657 1186 q 617 1101 636 1125 z "},"Ử":{"ha":1010,"x_min":125,"x_max":1032,"o":"m 506 -19 q 222 90 318 -19 q 125 411 125 199 l 125 1003 q 189 1013 158 1013 q 254 1003 225 1013 l 254 421 q 506 110 254 110 q 756 421 756 110 l 756 1003 q 821 1013 785 1013 q 885 1003 851 1013 l 885 411 q 789 90 885 199 q 506 -19 693 -19 m 792 1007 q 884 1041 854 1011 q 914 1131 914 1071 q 913 1156 914 1146 q 910 1182 913 1167 q 1028 1190 972 1214 q 1032 1133 1032 1161 q 972 963 1032 1025 q 804 896 911 900 l 792 1007 m 467 1242 q 574 1314 574 1269 q 492 1360 574 1360 q 418 1351 453 1360 q 356 1335 383 1343 q 333 1381 342 1353 q 326 1439 325 1408 q 405 1463 361 1453 q 500 1472 449 1472 q 651 1432 600 1472 q 701 1318 701 1392 q 646 1202 701 1249 q 493 1143 590 1156 q 467 1242 464 1181 z "},"Ữ":{"ha":1010,"x_min":125,"x_max":1032,"o":"m 506 -19 q 222 90 318 -19 q 125 411 125 199 l 125 1003 q 189 1013 158 1013 q 254 1003 225 1013 l 254 421 q 506 110 254 110 q 756 421 756 110 l 756 1003 q 821 1013 785 1013 q 885 1003 851 1013 l 885 411 q 789 90 885 199 q 506 -19 693 -19 m 792 1007 q 884 1041 854 1011 q 914 1131 914 1071 q 913 1156 914 1146 q 910 1182 913 1167 q 1028 1190 972 1214 q 1032 1133 1032 1161 q 972 963 1032 1025 q 804 896 911 900 l 792 1007 m 607 1250 q 652 1266 638 1250 q 685 1314 667 1282 q 772 1282 742 1314 q 717 1177 758 1218 q 611 1136 675 1136 q 571 1142 593 1136 q 504 1171 549 1149 q 450 1198 475 1186 q 404 1210 425 1210 q 364 1194 379 1210 q 329 1146 349 1178 q 280 1153 303 1147 q 242 1178 257 1160 q 299 1282 254 1242 q 404 1322 344 1322 q 462 1312 435 1322 q 517 1286 489 1301 q 561 1263 538 1275 q 607 1250 585 1250 z "},"Ũ":{"ha":1010,"x_min":125,"x_max":885,"o":"m 506 -19 q 222 90 318 -19 q 125 411 125 199 l 125 1003 q 189 1013 158 1013 q 254 1003 225 1013 l 254 421 q 506 110 254 110 q 756 421 756 110 l 756 1003 q 821 1013 785 1013 q 885 1003 851 1013 l 885 411 q 789 90 885 199 q 506 -19 693 -19 m 607 1250 q 652 1266 638 1250 q 685 1314 667 1282 q 772 1282 742 1314 q 717 1177 758 1218 q 611 1136 675 1136 q 571 1142 593 1136 q 504 1171 549 1149 q 450 1198 475 1186 q 404 1210 425 1210 q 364 1194 379 1210 q 329 1146 349 1178 q 280 1153 303 1147 q 242 1178 257 1160 q 299 1282 254 1242 q 404 1322 344 1322 q 462 1312 435 1322 q 517 1286 489 1301 q 561 1263 538 1275 q 607 1250 585 1250 z "},"V":{"ha":964,"x_min":42,"x_max":922,"o":"m 429 0 l 42 974 q 161 1017 94 1010 l 488 197 l 804 1017 q 871 1003 838 1015 q 922 974 904 990 l 544 0 q 520 -7 533 -4 q 488 -10 507 -10 q 454 -7 468 -10 q 429 0 440 -4 z "},"W":{"ha":1382,"x_min":60,"x_max":1322,"o":"m 383 -10 q 325 0 353 -10 l 60 988 q 117 1010 79 1001 q 183 1015 156 1019 l 399 214 l 633 822 q 693 832 661 832 q 750 822 721 832 l 986 211 l 1201 1015 q 1271 1010 1238 1019 q 1322 988 1304 1001 l 1060 0 q 1000 -10 1029 -10 q 942 0 969 -10 l 692 646 l 443 0 q 383 -10 413 -10 z "},"X":{"ha":943,"x_min":63,"x_max":881,"o":"m 163 -19 q 99 6 129 -17 q 63 58 69 29 l 390 518 l 85 944 q 188 1017 114 1001 l 475 618 l 757 1017 q 821 991 796 1010 q 860 944 846 972 l 553 508 l 881 53 q 840 1 868 19 q 776 -19 811 -17 l 468 410 l 163 -19 z "},"Y":{"ha":913,"x_min":36,"x_max":876,"o":"m 458 -10 q 393 0 426 -10 l 393 383 l 36 953 q 85 999 51 982 q 146 1017 118 1017 l 458 518 l 768 1015 q 833 999 800 1017 q 876 954 867 981 l 522 382 l 522 0 q 458 -10 493 -10 z "},"Ý":{"ha":913,"x_min":36,"x_max":876,"o":"m 458 -10 q 393 0 426 -10 l 393 383 l 36 953 q 85 999 51 982 q 146 1017 118 1017 l 458 518 l 768 1015 q 833 999 800 1017 q 876 954 867 981 l 522 382 l 522 0 q 458 -10 493 -10 m 346 1101 q 316 1156 326 1125 q 307 1217 306 1186 q 415 1256 357 1232 q 524 1308 472 1281 q 603 1358 575 1336 q 668 1257 664 1319 q 588 1203 640 1233 q 471 1144 535 1172 q 346 1101 407 1117 z "},"Ỵ":{"ha":913,"x_min":36,"x_max":876,"o":"m 458 -10 q 393 0 426 -10 l 393 383 l 36 953 q 85 999 51 982 q 146 1017 118 1017 l 458 518 l 768 1015 q 833 999 800 1017 q 876 954 867 981 l 522 382 l 522 0 q 458 -10 493 -10 m 457 -393 q 390 -365 418 -393 q 363 -299 363 -337 q 390 -231 363 -257 q 457 -204 417 -204 q 525 -231 499 -204 q 551 -299 551 -257 q 524 -366 551 -339 q 457 -393 497 -393 z "},"Ỳ":{"ha":913,"x_min":36,"x_max":876,"o":"m 458 -10 q 393 0 426 -10 l 393 383 l 36 953 q 85 999 51 982 q 146 1017 118 1017 l 458 518 l 768 1015 q 833 999 800 1017 q 876 954 867 981 l 522 382 l 522 0 q 458 -10 493 -10 m 568 1101 q 443 1144 507 1117 q 326 1203 379 1172 q 246 1257 274 1233 q 311 1358 250 1319 q 391 1308 340 1336 q 499 1256 442 1281 q 607 1217 557 1232 q 598 1156 608 1186 q 568 1101 588 1125 z "},"Ỷ":{"ha":913,"x_min":36,"x_max":876,"o":"m 458 -10 q 393 0 426 -10 l 393 383 l 36 953 q 85 999 51 982 q 146 1017 118 1017 l 458 518 l 768 1015 q 833 999 800 1017 q 876 954 867 981 l 522 382 l 522 0 q 458 -10 493 -10 m 418 1242 q 525 1314 525 1269 q 443 1360 525 1360 q 369 1351 404 1360 q 307 1335 335 1343 q 285 1381 293 1353 q 278 1439 276 1408 q 356 1463 313 1453 q 451 1472 400 1472 q 602 1432 551 1472 q 653 1318 653 1392 q 597 1202 653 1249 q 444 1143 542 1156 q 418 1242 415 1181 z "},"Ỹ":{"ha":913,"x_min":36,"x_max":876,"o":"m 458 -10 q 393 0 426 -10 l 393 383 l 36 953 q 85 999 51 982 q 146 1017 118 1017 l 458 518 l 768 1015 q 833 999 800 1017 q 876 954 867 981 l 522 382 l 522 0 q 458 -10 493 -10 m 558 1250 q 603 1266 589 1250 q 636 1314 618 1282 q 724 1282 693 1314 q 668 1177 710 1218 q 563 1136 626 1136 q 522 1142 544 1136 q 456 1171 500 1149 q 401 1198 426 1186 q 356 1210 376 1210 q 315 1194 331 1210 q 281 1146 300 1178 q 231 1153 254 1147 q 193 1178 208 1160 q 251 1282 206 1242 q 356 1322 296 1322 q 413 1312 386 1322 q 468 1286 440 1301 q 513 1263 489 1275 q 558 1250 536 1250 z "},"Z":{"ha":879,"x_min":82,"x_max":836,"o":"m 119 0 q 90 46 99 19 q 85 96 82 72 l 644 883 l 104 883 q 93 944 94 907 q 104 1003 92 982 l 765 1003 q 802 960 790 990 q 811 900 814 931 l 256 119 l 824 119 q 836 61 836 99 q 824 0 836 24 l 119 0 z "},"a":{"ha":886,"x_min":-51,"x_max":925,"o":"m -1 100 q 91 147 46 100 q 167 272 136 193 q 165 311 165 292 q 207 499 165 417 q 320 628 249 581 q 483 675 392 675 q 579 656 532 675 q 658 606 626 638 l 658 663 q 688 669 671 667 q 722 672 704 672 q 785 663 756 672 l 785 256 q 808 141 785 182 q 885 100 831 100 q 917 81 908 100 q 925 39 925 61 q 913 -1 925 17 q 875 -19 901 -19 q 693 103 739 -19 q 592 13 653 46 q 458 -19 532 -19 q 316 16 378 -19 q 215 114 254 51 q -11 -19 129 -19 q -40 -3 -29 -19 q -51 40 -51 14 q -1 100 -51 100 m 294 311 q 340 156 294 213 q 464 100 385 100 q 605 160 551 100 q 658 317 658 219 l 658 472 q 588 533 631 510 q 499 556 544 556 q 393 524 439 556 q 321 437 347 492 q 294 311 294 382 z "},"á":{"ha":886,"x_min":-51,"x_max":925,"o":"m -1 100 q 91 147 46 100 q 167 272 136 193 q 165 311 165 292 q 207 499 165 417 q 320 628 249 581 q 483 675 392 675 q 579 656 532 675 q 658 606 626 638 l 658 663 q 688 669 671 667 q 722 672 704 672 q 785 663 756 672 l 785 256 q 808 141 785 182 q 885 100 831 100 q 917 81 908 100 q 925 39 925 61 q 913 -1 925 17 q 875 -19 901 -19 q 693 103 739 -19 q 592 13 653 46 q 458 -19 532 -19 q 316 16 378 -19 q 215 114 254 51 q -11 -19 129 -19 q -40 -3 -29 -19 q -51 40 -51 14 q -1 100 -51 100 m 294 311 q 340 156 294 213 q 464 100 385 100 q 605 160 551 100 q 658 317 658 219 l 658 472 q 588 533 631 510 q 499 556 544 556 q 393 524 439 556 q 321 437 347 492 q 294 311 294 382 m 417 796 q 346 894 361 831 q 433 963 389 925 q 513 1038 476 1000 q 569 1104 549 1075 q 626 1076 601 1096 q 663 1028 650 1056 q 605 956 643 997 q 519 872 567 914 q 417 796 471 829 z "},"ă":{"ha":886,"x_min":-51,"x_max":925,"o":"m -1 100 q 91 147 46 100 q 167 272 136 193 q 165 311 165 292 q 207 499 165 417 q 320 628 249 581 q 483 675 392 675 q 579 656 532 675 q 658 606 626 638 l 658 663 q 688 669 671 667 q 722 672 704 672 q 785 663 756 672 l 785 256 q 808 141 785 182 q 885 100 831 100 q 917 81 908 100 q 925 39 925 61 q 913 -1 925 17 q 875 -19 901 -19 q 693 103 739 -19 q 592 13 653 46 q 458 -19 532 -19 q 316 16 378 -19 q 215 114 254 51 q -11 -19 129 -19 q -40 -3 -29 -19 q -51 40 -51 14 q -1 100 -51 100 m 294 311 q 340 156 294 213 q 464 100 385 100 q 605 160 551 100 q 658 317 658 219 l 658 472 q 588 533 631 510 q 499 556 544 556 q 393 524 439 556 q 321 437 347 492 q 294 311 294 382 m 492 796 q 316 860 382 796 q 239 1046 250 925 q 295 1066 263 1061 q 357 1064 328 1071 q 400 952 368 990 q 492 914 432 914 q 584 952 551 914 q 626 1064 617 990 q 689 1066 656 1071 q 744 1046 722 1061 q 668 860 733 925 q 492 796 603 796 z "},"ắ":{"ha":886,"x_min":-51,"x_max":925,"o":"m -1 100 q 91 147 46 100 q 167 272 136 193 q 165 311 165 292 q 207 499 165 417 q 320 628 249 581 q 483 675 392 675 q 579 656 532 675 q 658 606 626 638 l 658 663 q 688 669 671 667 q 722 672 704 672 q 785 663 756 672 l 785 256 q 808 141 785 182 q 885 100 831 100 q 917 81 908 100 q 925 39 925 61 q 913 -1 925 17 q 875 -19 901 -19 q 693 103 739 -19 q 592 13 653 46 q 458 -19 532 -19 q 316 16 378 -19 q 215 114 254 51 q -11 -19 129 -19 q -40 -3 -29 -19 q -51 40 -51 14 q -1 100 -51 100 m 294 311 q 340 156 294 213 q 464 100 385 100 q 605 160 551 100 q 658 317 658 219 l 658 472 q 588 533 631 510 q 499 556 544 556 q 393 524 439 556 q 321 437 347 492 q 294 311 294 382 m 575 1388 q 633 1362 606 1382 q 672 1314 660 1342 l 511 1115 q 456 1147 481 1125 q 419 1196 431 1168 l 575 1388 m 492 796 q 316 860 382 796 q 239 1046 250 925 q 295 1066 263 1061 q 357 1064 328 1071 q 400 952 368 990 q 492 914 432 914 q 584 952 551 914 q 626 1064 617 990 q 689 1066 656 1071 q 744 1046 722 1061 q 668 860 733 925 q 492 796 603 796 z "},"ặ":{"ha":886,"x_min":-51,"x_max":925,"o":"m -1 100 q 91 147 46 100 q 167 272 136 193 q 165 311 165 292 q 207 499 165 417 q 320 628 249 581 q 483 675 392 675 q 579 656 532 675 q 658 606 626 638 l 658 663 q 688 669 671 667 q 722 672 704 672 q 785 663 756 672 l 785 256 q 808 141 785 182 q 885 100 831 100 q 917 81 908 100 q 925 39 925 61 q 913 -1 925 17 q 875 -19 901 -19 q 693 103 739 -19 q 592 13 653 46 q 458 -19 532 -19 q 316 16 378 -19 q 215 114 254 51 q -11 -19 129 -19 q -40 -3 -29 -19 q -51 40 -51 14 q -1 100 -51 100 m 294 311 q 340 156 294 213 q 464 100 385 100 q 605 160 551 100 q 658 317 658 219 l 658 472 q 588 533 631 510 q 499 556 544 556 q 393 524 439 556 q 321 437 347 492 q 294 311 294 382 m 501 -393 q 435 -365 463 -393 q 407 -299 407 -337 q 434 -231 407 -257 q 501 -204 461 -204 q 569 -231 543 -204 q 596 -299 596 -257 q 569 -366 596 -339 q 501 -393 542 -393 m 492 796 q 316 860 382 796 q 239 1046 250 925 q 295 1066 263 1061 q 357 1064 328 1071 q 400 952 368 990 q 492 914 432 914 q 584 952 551 914 q 626 1064 617 990 q 689 1066 656 1071 q 744 1046 722 1061 q 668 860 733 925 q 492 796 603 796 z "},"ằ":{"ha":886,"x_min":-51,"x_max":925,"o":"m -1 100 q 91 147 46 100 q 167 272 136 193 q 165 311 165 292 q 207 499 165 417 q 320 628 249 581 q 483 675 392 675 q 579 656 532 675 q 658 606 626 638 l 658 663 q 688 669 671 667 q 722 672 704 672 q 785 663 756 672 l 785 256 q 808 141 785 182 q 885 100 831 100 q 917 81 908 100 q 925 39 925 61 q 913 -1 925 17 q 875 -19 901 -19 q 693 103 739 -19 q 592 13 653 46 q 458 -19 532 -19 q 316 16 378 -19 q 215 114 254 51 q -11 -19 129 -19 q -40 -3 -29 -19 q -51 40 -51 14 q -1 100 -51 100 m 294 311 q 340 156 294 213 q 464 100 385 100 q 605 160 551 100 q 658 317 658 219 l 658 472 q 588 533 631 510 q 499 556 544 556 q 393 524 439 556 q 321 437 347 492 q 294 311 294 382 m 421 1385 l 576 1193 q 541 1144 567 1165 q 485 1113 515 1122 l 324 1311 q 363 1359 336 1339 q 421 1385 390 1379 m 492 796 q 316 860 382 796 q 239 1046 250 925 q 295 1066 263 1061 q 357 1064 328 1071 q 400 952 368 990 q 492 914 432 914 q 584 952 551 914 q 626 1064 617 990 q 689 1066 656 1071 q 744 1046 722 1061 q 668 860 733 925 q 492 796 603 796 z "},"ẳ":{"ha":886,"x_min":-51,"x_max":925,"o":"m -1 100 q 91 147 46 100 q 167 272 136 193 q 165 311 165 292 q 207 499 165 417 q 320 628 249 581 q 483 675 392 675 q 579 656 532 675 q 658 606 626 638 l 658 663 q 688 669 671 667 q 722 672 704 672 q 785 663 756 672 l 785 256 q 808 141 785 182 q 885 100 831 100 q 917 81 908 100 q 925 39 925 61 q 913 -1 925 17 q 875 -19 901 -19 q 693 103 739 -19 q 592 13 653 46 q 458 -19 532 -19 q 316 16 378 -19 q 215 114 254 51 q -11 -19 129 -19 q -40 -3 -29 -19 q -51 40 -51 14 q -1 100 -51 100 m 294 311 q 340 156 294 213 q 464 100 385 100 q 605 160 551 100 q 658 317 658 219 l 658 472 q 588 533 631 510 q 499 556 544 556 q 393 524 439 556 q 321 437 347 492 q 294 311 294 382 m 444 1201 q 505 1229 488 1214 q 522 1264 522 1244 q 454 1308 522 1308 q 395 1302 428 1308 q 332 1283 363 1296 q 309 1328 318 1301 q 301 1385 300 1356 q 371 1409 329 1400 q 464 1418 413 1418 q 600 1378 554 1418 q 646 1275 646 1339 q 622 1193 646 1228 q 560 1137 599 1158 q 479 1103 522 1115 q 453 1147 463 1121 q 444 1201 444 1174 m 492 796 q 316 860 382 796 q 239 1046 250 925 q 295 1066 263 1061 q 357 1064 328 1071 q 400 952 368 990 q 492 914 432 914 q 584 952 551 914 q 626 1064 617 990 q 689 1066 656 1071 q 744 1046 722 1061 q 668 860 733 925 q 492 796 603 796 z "},"ẵ":{"ha":886,"x_min":-51,"x_max":925,"o":"m -1 100 q 91 147 46 100 q 167 272 136 193 q 165 311 165 292 q 207 499 165 417 q 320 628 249 581 q 483 675 392 675 q 579 656 532 675 q 658 606 626 638 l 658 663 q 688 669 671 667 q 722 672 704 672 q 785 663 756 672 l 785 256 q 808 141 785 182 q 885 100 831 100 q 917 81 908 100 q 925 39 925 61 q 913 -1 925 17 q 875 -19 901 -19 q 693 103 739 -19 q 592 13 653 46 q 458 -19 532 -19 q 316 16 378 -19 q 215 114 254 51 q -11 -19 129 -19 q -40 -3 -29 -19 q -51 40 -51 14 q -1 100 -51 100 m 294 311 q 340 156 294 213 q 464 100 385 100 q 605 160 551 100 q 658 317 658 219 l 658 472 q 588 533 631 510 q 499 556 544 556 q 393 524 439 556 q 321 437 347 492 q 294 311 294 382 m 586 1186 q 542 1194 564 1186 q 486 1218 519 1201 q 437 1242 451 1236 q 408 1249 422 1249 q 373 1237 390 1249 q 342 1196 356 1225 q 251 1239 285 1196 q 313 1333 274 1300 q 406 1365 353 1365 q 456 1356 436 1365 q 503 1332 476 1347 q 547 1310 531 1317 q 575 1304 563 1304 q 612 1315 594 1304 q 642 1357 629 1326 q 732 1314 699 1357 q 673 1219 710 1253 q 586 1186 636 1186 m 492 796 q 316 860 382 796 q 239 1046 250 925 q 295 1066 263 1061 q 357 1064 328 1071 q 400 952 368 990 q 492 914 432 914 q 584 952 551 914 q 626 1064 617 990 q 689 1066 656 1071 q 744 1046 722 1061 q 668 860 733 925 q 492 796 603 796 z "},"â":{"ha":886,"x_min":-51,"x_max":925,"o":"m -1 100 q 91 147 46 100 q 167 272 136 193 q 165 311 165 292 q 207 499 165 417 q 320 628 249 581 q 483 675 392 675 q 579 656 532 675 q 658 606 626 638 l 658 663 q 688 669 671 667 q 722 672 704 672 q 785 663 756 672 l 785 256 q 808 141 785 182 q 885 100 831 100 q 917 81 908 100 q 925 39 925 61 q 913 -1 925 17 q 875 -19 901 -19 q 693 103 739 -19 q 592 13 653 46 q 458 -19 532 -19 q 316 16 378 -19 q 215 114 254 51 q -11 -19 129 -19 q -40 -3 -29 -19 q -51 40 -51 14 q -1 100 -51 100 m 294 311 q 340 156 294 213 q 464 100 385 100 q 605 160 551 100 q 658 317 658 219 l 658 472 q 588 533 631 510 q 499 556 544 556 q 393 524 439 556 q 321 437 347 492 q 294 311 294 382 m 338 796 q 290 829 314 803 q 257 882 265 856 q 353 981 300 922 q 461 1104 407 1039 q 546 1104 504 1111 q 653 981 600 1039 q 750 882 707 924 q 717 829 742 856 q 669 796 693 803 q 619 839 649 811 q 560 901 590 867 q 503 967 529 935 q 414 867 461 917 q 338 796 367 817 z "},"ấ":{"ha":886,"x_min":-51,"x_max":925,"o":"m -1 100 q 91 147 46 100 q 167 272 136 193 q 165 311 165 292 q 207 499 165 417 q 320 628 249 581 q 483 675 392 675 q 579 656 532 675 q 658 606 626 638 l 658 663 q 688 669 671 667 q 722 672 704 672 q 785 663 756 672 l 785 256 q 808 141 785 182 q 885 100 831 100 q 917 81 908 100 q 925 39 925 61 q 913 -1 925 17 q 875 -19 901 -19 q 693 103 739 -19 q 592 13 653 46 q 458 -19 532 -19 q 316 16 378 -19 q 215 114 254 51 q -11 -19 129 -19 q -40 -3 -29 -19 q -51 40 -51 14 q -1 100 -51 100 m 294 311 q 340 156 294 213 q 464 100 385 100 q 605 160 551 100 q 658 317 658 219 l 658 472 q 588 533 631 510 q 499 556 544 556 q 393 524 439 556 q 321 437 347 492 q 294 311 294 382 m 824 1324 q 881 1298 854 1318 q 921 1250 908 1278 l 760 1051 q 704 1083 729 1061 q 668 1132 679 1104 l 824 1324 m 338 796 q 290 829 314 803 q 257 882 265 856 q 353 981 300 922 q 461 1104 407 1039 q 546 1104 504 1111 q 653 981 600 1039 q 750 882 707 924 q 717 829 742 856 q 669 796 693 803 q 619 839 649 811 q 560 901 590 867 q 503 967 529 935 q 414 867 461 917 q 338 796 367 817 z "},"ậ":{"ha":886,"x_min":-51,"x_max":925,"o":"m -1 100 q 91 147 46 100 q 167 272 136 193 q 165 311 165 292 q 207 499 165 417 q 320 628 249 581 q 483 675 392 675 q 579 656 532 675 q 658 606 626 638 l 658 663 q 688 669 671 667 q 722 672 704 672 q 785 663 756 672 l 785 256 q 808 141 785 182 q 885 100 831 100 q 917 81 908 100 q 925 39 925 61 q 913 -1 925 17 q 875 -19 901 -19 q 693 103 739 -19 q 592 13 653 46 q 458 -19 532 -19 q 316 16 378 -19 q 215 114 254 51 q -11 -19 129 -19 q -40 -3 -29 -19 q -51 40 -51 14 q -1 100 -51 100 m 294 311 q 340 156 294 213 q 464 100 385 100 q 605 160 551 100 q 658 317 658 219 l 658 472 q 588 533 631 510 q 499 556 544 556 q 393 524 439 556 q 321 437 347 492 q 294 311 294 382 m 501 -393 q 435 -365 463 -393 q 407 -299 407 -337 q 434 -231 407 -257 q 501 -204 461 -204 q 569 -231 543 -204 q 596 -299 596 -257 q 569 -366 596 -339 q 501 -393 542 -393 m 338 796 q 290 829 314 803 q 257 882 265 856 q 353 981 300 922 q 461 1104 407 1039 q 546 1104 504 1111 q 653 981 600 1039 q 750 882 707 924 q 717 829 742 856 q 669 796 693 803 q 619 839 649 811 q 560 901 590 867 q 503 967 529 935 q 414 867 461 917 q 338 796 367 817 z "},"ầ":{"ha":886,"x_min":-51,"x_max":925,"o":"m -1 100 q 91 147 46 100 q 167 272 136 193 q 165 311 165 292 q 207 499 165 417 q 320 628 249 581 q 483 675 392 675 q 579 656 532 675 q 658 606 626 638 l 658 663 q 688 669 671 667 q 722 672 704 672 q 785 663 756 672 l 785 256 q 808 141 785 182 q 885 100 831 100 q 917 81 908 100 q 925 39 925 61 q 913 -1 925 17 q 875 -19 901 -19 q 693 103 739 -19 q 592 13 653 46 q 458 -19 532 -19 q 316 16 378 -19 q 215 114 254 51 q -11 -19 129 -19 q -40 -3 -29 -19 q -51 40 -51 14 q -1 100 -51 100 m 294 311 q 340 156 294 213 q 464 100 385 100 q 605 160 551 100 q 658 317 658 219 l 658 472 q 588 533 631 510 q 499 556 544 556 q 393 524 439 556 q 321 437 347 492 q 294 311 294 382 m 694 1324 l 850 1132 q 815 1083 840 1104 q 758 1051 789 1061 l 597 1250 q 637 1298 610 1278 q 694 1324 664 1318 m 338 796 q 290 829 314 803 q 257 882 265 856 q 353 981 300 922 q 461 1104 407 1039 q 546 1104 504 1111 q 653 981 600 1039 q 750 882 707 924 q 717 829 742 856 q 669 796 693 803 q 619 839 649 811 q 560 901 590 867 q 503 967 529 935 q 414 867 461 917 q 338 796 367 817 z "},"ẩ":{"ha":886,"x_min":-51,"x_max":925,"o":"m -1 100 q 91 147 46 100 q 167 272 136 193 q 165 311 165 292 q 207 499 165 417 q 320 628 249 581 q 483 675 392 675 q 579 656 532 675 q 658 606 626 638 l 658 663 q 688 669 671 667 q 722 672 704 672 q 785 663 756 672 l 785 256 q 808 141 785 182 q 885 100 831 100 q 917 81 908 100 q 925 39 925 61 q 913 -1 925 17 q 875 -19 901 -19 q 693 103 739 -19 q 592 13 653 46 q 458 -19 532 -19 q 316 16 378 -19 q 215 114 254 51 q -11 -19 129 -19 q -40 -3 -29 -19 q -51 40 -51 14 q -1 100 -51 100 m 294 311 q 340 156 294 213 q 464 100 385 100 q 605 160 551 100 q 658 317 658 219 l 658 472 q 588 533 631 510 q 499 556 544 556 q 393 524 439 556 q 321 437 347 492 q 294 311 294 382 m 714 1133 q 774 1161 757 1146 q 792 1196 792 1176 q 724 1240 792 1240 q 665 1234 697 1240 q 601 1215 632 1228 q 578 1260 588 1233 q 571 1317 569 1288 q 640 1341 599 1332 q 733 1350 682 1350 q 869 1310 824 1350 q 915 1207 915 1271 q 892 1125 915 1160 q 830 1069 868 1090 q 749 1035 792 1047 q 723 1079 732 1053 q 714 1133 714 1106 m 338 796 q 290 829 314 803 q 257 882 265 856 q 353 981 300 922 q 461 1104 407 1039 q 546 1104 504 1111 q 653 981 600 1039 q 750 882 707 924 q 717 829 742 856 q 669 796 693 803 q 619 839 649 811 q 560 901 590 867 q 503 967 529 935 q 414 867 461 917 q 338 796 367 817 z "},"ẫ":{"ha":886,"x_min":-51,"x_max":925,"o":"m -1 100 q 91 147 46 100 q 167 272 136 193 q 165 311 165 292 q 207 499 165 417 q 320 628 249 581 q 483 675 392 675 q 579 656 532 675 q 658 606 626 638 l 658 663 q 688 669 671 667 q 722 672 704 672 q 785 663 756 672 l 785 256 q 808 141 785 182 q 885 100 831 100 q 917 81 908 100 q 925 39 925 61 q 913 -1 925 17 q 875 -19 901 -19 q 693 103 739 -19 q 592 13 653 46 q 458 -19 532 -19 q 316 16 378 -19 q 215 114 254 51 q -11 -19 129 -19 q -40 -3 -29 -19 q -51 40 -51 14 q -1 100 -51 100 m 294 311 q 340 156 294 213 q 464 100 385 100 q 605 160 551 100 q 658 317 658 219 l 658 472 q 588 533 631 510 q 499 556 544 556 q 393 524 439 556 q 321 437 347 492 q 294 311 294 382 m 597 1186 q 553 1194 575 1186 q 497 1218 531 1201 q 448 1242 463 1236 q 419 1249 433 1249 q 384 1237 401 1249 q 353 1196 367 1225 q 263 1239 296 1196 q 324 1333 285 1300 q 417 1365 364 1365 q 467 1356 447 1365 q 514 1332 488 1347 q 558 1310 542 1317 q 586 1304 574 1304 q 623 1315 606 1304 q 653 1357 640 1326 q 743 1314 710 1357 q 684 1219 721 1253 q 597 1186 647 1186 m 336 796 q 288 829 313 803 q 256 882 264 856 q 352 981 299 922 q 460 1104 406 1039 q 544 1104 503 1111 q 652 981 599 1039 q 749 882 706 924 q 716 829 740 856 q 668 796 692 803 q 618 839 647 811 q 558 901 589 867 q 501 967 528 935 q 413 867 460 917 q 336 796 365 817 z "},"ä":{"ha":886,"x_min":-51,"x_max":925,"o":"m -1 100 q 91 147 46 100 q 167 272 136 193 q 165 311 165 292 q 207 499 165 417 q 320 628 249 581 q 483 675 392 675 q 579 656 532 675 q 658 606 626 638 l 658 663 q 688 669 671 667 q 722 672 704 672 q 785 663 756 672 l 785 256 q 808 141 785 182 q 885 100 831 100 q 917 81 908 100 q 925 39 925 61 q 913 -1 925 17 q 875 -19 901 -19 q 693 103 739 -19 q 592 13 653 46 q 458 -19 532 -19 q 316 16 378 -19 q 215 114 254 51 q -11 -19 129 -19 q -40 -3 -29 -19 q -51 40 -51 14 q -1 100 -51 100 m 294 311 q 340 156 294 213 q 464 100 385 100 q 605 160 551 100 q 658 317 658 219 l 658 472 q 588 533 631 510 q 499 556 544 556 q 393 524 439 556 q 321 437 347 492 q 294 311 294 382 m 667 856 q 600 883 628 856 q 572 950 572 911 q 599 1018 572 992 q 667 1044 626 1044 q 735 1018 708 1044 q 761 950 761 992 q 734 883 761 910 q 667 856 707 856 m 342 856 q 275 883 303 856 q 247 950 247 911 q 274 1018 247 992 q 342 1044 301 1044 q 410 1018 383 1044 q 436 950 436 992 q 409 883 436 910 q 342 856 382 856 z "},"ạ":{"ha":886,"x_min":-51,"x_max":925,"o":"m -1 100 q 91 147 46 100 q 167 272 136 193 q 165 311 165 292 q 207 499 165 417 q 320 628 249 581 q 483 675 392 675 q 579 656 532 675 q 658 606 626 638 l 658 663 q 688 669 671 667 q 722 672 704 672 q 785 663 756 672 l 785 256 q 808 141 785 182 q 885 100 831 100 q 917 81 908 100 q 925 39 925 61 q 913 -1 925 17 q 875 -19 901 -19 q 693 103 739 -19 q 592 13 653 46 q 458 -19 532 -19 q 316 16 378 -19 q 215 114 254 51 q -11 -19 129 -19 q -40 -3 -29 -19 q -51 40 -51 14 q -1 100 -51 100 m 294 311 q 340 156 294 213 q 464 100 385 100 q 605 160 551 100 q 658 317 658 219 l 658 472 q 588 533 631 510 q 499 556 544 556 q 393 524 439 556 q 321 437 347 492 q 294 311 294 382 m 501 -393 q 435 -365 463 -393 q 407 -299 407 -337 q 434 -231 407 -257 q 501 -204 461 -204 q 569 -231 543 -204 q 596 -299 596 -257 q 569 -366 596 -339 q 501 -393 542 -393 z "},"à":{"ha":886,"x_min":-51,"x_max":925,"o":"m -1 100 q 91 147 46 100 q 167 272 136 193 q 165 311 165 292 q 207 499 165 417 q 320 628 249 581 q 483 675 392 675 q 579 656 532 675 q 658 606 626 638 l 658 663 q 688 669 671 667 q 722 672 704 672 q 785 663 756 672 l 785 256 q 808 141 785 182 q 885 100 831 100 q 917 81 908 100 q 925 39 925 61 q 913 -1 925 17 q 875 -19 901 -19 q 693 103 739 -19 q 592 13 653 46 q 458 -19 532 -19 q 316 16 378 -19 q 215 114 254 51 q -11 -19 129 -19 q -40 -3 -29 -19 q -51 40 -51 14 q -1 100 -51 100 m 294 311 q 340 156 294 213 q 464 100 385 100 q 605 160 551 100 q 658 317 658 219 l 658 472 q 588 533 631 510 q 499 556 544 556 q 393 524 439 556 q 321 437 347 492 q 294 311 294 382 m 581 796 q 478 872 528 829 q 389 956 428 914 q 329 1028 350 997 q 367 1076 342 1056 q 424 1104 392 1096 q 482 1038 444 1075 q 565 963 519 1000 q 653 894 610 925 q 626 839 644 865 q 581 796 607 813 z "},"ả":{"ha":886,"x_min":-51,"x_max":925,"o":"m -1 100 q 91 147 46 100 q 167 272 136 193 q 165 311 165 292 q 207 499 165 417 q 320 628 249 581 q 483 675 392 675 q 579 656 532 675 q 658 606 626 638 l 658 663 q 688 669 671 667 q 722 672 704 672 q 785 663 756 672 l 785 256 q 808 141 785 182 q 885 100 831 100 q 917 81 908 100 q 925 39 925 61 q 913 -1 925 17 q 875 -19 901 -19 q 693 103 739 -19 q 592 13 653 46 q 458 -19 532 -19 q 316 16 378 -19 q 215 114 254 51 q -11 -19 129 -19 q -40 -3 -29 -19 q -51 40 -51 14 q -1 100 -51 100 m 294 311 q 340 156 294 213 q 464 100 385 100 q 605 160 551 100 q 658 317 658 219 l 658 472 q 588 533 631 510 q 499 556 544 556 q 393 524 439 556 q 321 437 347 492 q 294 311 294 382 m 465 894 q 572 967 572 922 q 490 1013 572 1013 q 417 1004 451 1013 q 354 988 382 996 q 332 1033 340 1006 q 325 1092 324 1061 q 403 1115 360 1106 q 499 1125 447 1125 q 649 1085 599 1125 q 700 971 700 1044 q 644 855 700 901 q 492 796 589 808 q 465 894 463 833 z "},"ã":{"ha":886,"x_min":-51,"x_max":925,"o":"m -1 100 q 91 147 46 100 q 167 272 136 193 q 165 311 165 292 q 207 499 165 417 q 320 628 249 581 q 483 675 392 675 q 579 656 532 675 q 658 606 626 638 l 658 663 q 688 669 671 667 q 722 672 704 672 q 785 663 756 672 l 785 256 q 808 141 785 182 q 885 100 831 100 q 917 81 908 100 q 925 39 925 61 q 913 -1 925 17 q 875 -19 901 -19 q 693 103 739 -19 q 592 13 653 46 q 458 -19 532 -19 q 316 16 378 -19 q 215 114 254 51 q -11 -19 129 -19 q -40 -3 -29 -19 q -51 40 -51 14 q -1 100 -51 100 m 294 311 q 340 156 294 213 q 464 100 385 100 q 605 160 551 100 q 658 317 658 219 l 658 472 q 588 533 631 510 q 499 556 544 556 q 393 524 439 556 q 321 437 347 492 q 294 311 294 382 m 603 956 q 648 972 633 956 q 681 1019 663 988 q 768 988 738 1019 q 713 883 754 924 q 607 842 671 842 q 567 848 589 842 q 500 876 544 854 q 446 903 471 892 q 400 915 421 915 q 360 899 375 915 q 325 851 344 883 q 276 859 299 853 q 238 883 253 865 q 295 988 250 947 q 400 1028 340 1028 q 458 1017 431 1028 q 513 992 485 1007 q 557 968 533 981 q 603 956 581 956 z "},"æ":{"ha":1157,"x_min":-51,"x_max":1160,"o":"m -1 100 q 91 147 46 100 q 167 272 136 193 q 165 311 165 292 q 207 499 165 417 q 320 628 249 581 q 483 675 392 675 q 579 656 532 675 q 658 606 626 638 l 658 663 q 688 669 671 667 q 722 672 704 672 q 785 663 756 672 l 785 615 q 949 676 854 676 q 1057 652 1010 676 q 1132 585 1104 628 q 1160 488 1160 542 q 1072 317 1160 382 q 838 253 985 253 q 797 254 818 253 q 879 141 821 183 q 1017 99 938 99 q 1047 82 1036 99 q 1058 39 1058 65 q 1007 -19 1058 -19 q 833 25 907 -19 q 718 149 758 69 q 614 26 682 71 q 458 -19 546 -19 q 316 16 378 -19 q 215 114 254 51 q -11 -19 129 -19 q -40 -3 -29 -19 q -51 40 -51 14 q -1 100 -51 100 m 949 561 q 835 508 879 561 q 786 368 792 456 q 838 364 813 364 q 984 397 928 364 q 1040 481 1040 429 q 1013 538 1040 515 q 949 561 986 561 m 294 311 q 340 156 294 213 q 464 100 385 100 q 605 160 551 100 q 658 317 658 219 l 658 472 q 588 533 631 510 q 499 556 544 556 q 393 524 439 556 q 321 437 347 492 q 294 311 294 382 z "},"b":{"ha":949,"x_min":-51,"x_max":864,"o":"m -11 -19 q -40 -3 -29 -19 q -51 40 -51 14 q -38 84 -51 68 q -3 100 -25 100 q 106 140 47 100 q 218 251 164 181 q 196 535 196 353 l 196 921 q 203 1107 196 1036 q 229 1225 211 1178 q 306 1332 256 1294 q 424 1369 356 1369 q 575 1277 518 1369 q 632 1029 632 1185 q 599 757 632 897 q 504 480 567 617 q 353 222 442 343 q 361 204 357 213 q 430 128 390 153 q 528 104 469 104 q 638 139 590 104 q 711 235 685 174 q 738 378 738 297 q 733 436 738 407 q 618 535 646 492 q 649 588 628 563 q 697 630 671 614 q 747 646 724 646 q 806 612 779 646 q 848 522 832 578 q 864 397 864 465 q 823 180 864 272 q 706 37 782 88 q 528 -14 631 -14 q 265 122 346 -14 q -11 -19 138 -19 m 313 563 q 319 378 313 450 q 465 710 415 542 q 514 1031 514 878 q 417 1254 514 1254 q 335 1178 360 1254 q 313 938 313 1110 l 313 563 z "},"c":{"ha":664,"x_min":-51,"x_max":672,"o":"m -1 100 q 87 143 43 100 q 163 260 131 186 q 157 325 157 292 q 196 506 157 428 q 303 630 235 585 q 461 675 372 675 q 583 649 528 675 q 672 575 638 624 q 592 493 656 518 q 465 556 546 556 q 335 495 385 556 q 286 332 286 435 q 348 163 286 226 q 524 99 410 99 q 553 81 542 99 q 565 38 565 64 q 552 -4 565 11 q 515 -19 539 -19 q 340 17 417 -19 q 218 118 264 53 q -11 -19 132 -19 q -40 -3 -29 -19 q -51 40 -51 14 q -1 100 -51 100 z "},"ç":{"ha":664,"x_min":-51,"x_max":672,"o":"m -1 100 q 87 143 43 100 q 163 260 131 186 q 157 325 157 292 q 196 506 157 428 q 303 630 235 585 q 461 675 372 675 q 583 649 528 675 q 672 575 638 624 q 592 493 656 518 q 465 556 546 556 q 335 495 385 556 q 286 332 286 435 q 348 163 286 226 q 524 99 410 99 q 553 81 542 99 q 565 38 565 64 q 552 -4 565 11 q 515 -19 539 -19 q 340 17 417 -19 q 218 118 264 53 q -11 -19 132 -19 q -40 -3 -29 -19 q -51 40 -51 14 q -1 100 -51 100 m 450 -361 q 397 -358 424 -361 q 350 -349 369 -354 q 365 -250 333 -293 q 402 -257 381 -254 q 446 -260 424 -260 q 509 -247 486 -260 q 532 -210 532 -235 q 399 -147 532 -157 l 408 10 l 519 10 l 514 -74 q 613 -124 578 -89 q 649 -212 649 -160 q 594 -321 649 -281 q 450 -361 540 -361 z "},"d":{"ha":871,"x_min":-51,"x_max":910,"o":"m -1 100 q 91 147 46 100 q 167 272 136 193 q 165 311 165 292 q 207 499 165 417 q 320 628 249 581 q 483 675 392 675 q 579 656 532 675 q 658 606 626 638 l 658 1167 q 722 1176 685 1176 q 785 1167 754 1176 l 785 243 q 805 133 785 167 q 869 100 825 100 q 899 83 889 100 q 910 39 910 67 q 898 -1 910 17 q 860 -19 886 -19 q 682 89 728 -19 q 585 9 642 38 q 458 -19 528 -19 q 316 16 378 -19 q 215 114 254 51 q -11 -19 129 -19 q -40 -3 -29 -19 q -51 40 -51 14 q -1 100 -51 100 m 294 311 q 340 156 294 213 q 464 100 385 100 q 605 160 551 100 q 658 317 658 219 l 658 472 q 588 533 631 510 q 499 556 544 556 q 393 524 439 556 q 321 437 347 492 q 294 311 294 382 z "},"đ":{"ha":871,"x_min":-51,"x_max":910,"o":"m -1 100 q 91 147 46 100 q 167 272 136 193 q 165 311 165 292 q 207 499 165 417 q 320 628 249 581 q 483 675 392 675 q 579 656 532 675 q 658 606 626 638 l 658 892 l 447 892 q 438 947 438 914 q 447 1003 438 981 l 658 1003 l 658 1167 q 722 1176 685 1176 q 785 1167 754 1176 l 785 1003 l 899 1003 q 910 947 910 981 q 899 892 910 914 l 785 892 l 785 243 q 805 133 785 167 q 869 100 825 100 q 899 83 889 100 q 910 39 910 67 q 898 -1 910 17 q 860 -19 886 -19 q 682 89 728 -19 q 585 9 642 38 q 458 -19 528 -19 q 316 16 378 -19 q 215 114 254 51 q -11 -19 129 -19 q -40 -3 -29 -19 q -51 40 -51 14 q -1 100 -51 100 m 294 311 q 340 156 294 213 q 464 100 385 100 q 605 160 551 100 q 658 317 658 219 l 658 472 q 588 533 631 510 q 499 556 544 556 q 393 524 439 556 q 321 437 347 492 q 294 311 294 382 z "},"e":{"ha":614,"x_min":-51,"x_max":582,"o":"m -11 -19 q -40 -3 -29 -19 q -51 40 -51 14 q -1 100 -51 100 q 81 113 39 100 q 178 158 122 126 q 124 381 124 253 q 156 533 124 467 q 244 637 188 599 q 374 675 301 675 q 482 647 435 675 q 556 568 529 618 q 582 453 582 518 q 530 290 582 364 q 354 131 478 217 q 474 99 399 99 q 504 82 493 99 q 515 38 515 65 q 503 -4 515 11 q 467 -19 490 -19 q 342 3 400 -19 q 244 64 283 25 q -11 -19 111 -19 m 244 392 q 283 217 244 282 q 417 339 374 279 q 461 453 461 399 q 437 531 461 503 q 369 560 413 560 q 280 511 315 560 q 244 392 244 463 z "},"é":{"ha":614,"x_min":-51,"x_max":582,"o":"m -11 -19 q -40 -3 -29 -19 q -51 40 -51 14 q -1 100 -51 100 q 81 113 39 100 q 178 158 122 126 q 124 381 124 253 q 156 533 124 467 q 244 637 188 599 q 374 675 301 675 q 482 647 435 675 q 556 568 529 618 q 582 453 582 518 q 530 290 582 364 q 354 131 478 217 q 474 99 399 99 q 504 82 493 99 q 515 38 515 65 q 503 -4 515 11 q 467 -19 490 -19 q 342 3 400 -19 q 244 64 283 25 q -11 -19 111 -19 m 244 392 q 283 217 244 282 q 417 339 374 279 q 461 453 461 399 q 437 531 461 503 q 369 560 413 560 q 280 511 315 560 q 244 392 244 463 m 257 796 q 186 894 201 831 q 273 963 229 925 q 353 1038 317 1000 q 410 1104 389 1075 q 466 1076 442 1096 q 503 1028 490 1056 q 445 956 483 997 q 359 872 407 914 q 257 796 311 829 z "},"ê":{"ha":614,"x_min":-51,"x_max":590,"o":"m -11 -19 q -40 -3 -29 -19 q -51 40 -51 14 q -1 100 -51 100 q 81 113 39 100 q 178 158 122 126 q 124 381 124 253 q 156 533 124 467 q 244 637 188 599 q 374 675 301 675 q 482 647 435 675 q 556 568 529 618 q 582 453 582 518 q 530 290 582 364 q 354 131 478 217 q 474 99 399 99 q 504 82 493 99 q 515 38 515 65 q 503 -4 515 11 q 467 -19 490 -19 q 342 3 400 -19 q 244 64 283 25 q -11 -19 111 -19 m 244 392 q 283 217 244 282 q 417 339 374 279 q 461 453 461 399 q 437 531 461 503 q 369 560 413 560 q 280 511 315 560 q 244 392 244 463 m 178 796 q 130 829 154 803 q 97 882 106 856 q 194 981 140 922 q 301 1104 247 1039 q 386 1104 344 1111 q 494 981 440 1039 q 590 882 547 924 q 558 829 582 856 q 510 796 533 803 q 460 839 489 811 q 400 901 431 867 q 343 967 369 935 q 254 867 301 917 q 178 796 207 817 z "},"ế":{"ha":614,"x_min":-51,"x_max":761,"o":"m -11 -19 q -40 -3 -29 -19 q -51 40 -51 14 q -1 100 -51 100 q 81 113 39 100 q 178 158 122 126 q 124 381 124 253 q 156 533 124 467 q 244 637 188 599 q 374 675 301 675 q 482 647 435 675 q 556 568 529 618 q 582 453 582 518 q 530 290 582 364 q 354 131 478 217 q 474 99 399 99 q 504 82 493 99 q 515 38 515 65 q 503 -4 515 11 q 467 -19 490 -19 q 342 3 400 -19 q 244 64 283 25 q -11 -19 111 -19 m 244 392 q 283 217 244 282 q 417 339 374 279 q 461 453 461 399 q 437 531 461 503 q 369 560 413 560 q 280 511 315 560 q 244 392 244 463 m 664 1324 q 722 1298 694 1318 q 761 1250 749 1278 l 600 1051 q 544 1083 569 1061 q 508 1132 519 1104 l 664 1324 m 178 796 q 130 829 154 803 q 97 882 106 856 q 194 981 140 922 q 301 1104 247 1039 q 386 1104 344 1111 q 494 981 440 1039 q 590 882 547 924 q 558 829 582 856 q 510 796 533 803 q 460 839 489 811 q 400 901 431 867 q 343 967 369 935 q 254 867 301 917 q 178 796 207 817 z "},"ệ":{"ha":614,"x_min":-51,"x_max":590,"o":"m -11 -19 q -40 -3 -29 -19 q -51 40 -51 14 q -1 100 -51 100 q 81 113 39 100 q 178 158 122 126 q 124 381 124 253 q 156 533 124 467 q 244 637 188 599 q 374 675 301 675 q 482 647 435 675 q 556 568 529 618 q 582 453 582 518 q 530 290 582 364 q 354 131 478 217 q 474 99 399 99 q 504 82 493 99 q 515 38 515 65 q 503 -4 515 11 q 467 -19 490 -19 q 342 3 400 -19 q 244 64 283 25 q -11 -19 111 -19 m 244 392 q 283 217 244 282 q 417 339 374 279 q 461 453 461 399 q 437 531 461 503 q 369 560 413 560 q 280 511 315 560 q 244 392 244 463 m 325 -393 q 258 -365 286 -393 q 231 -299 231 -337 q 258 -231 231 -257 q 325 -204 285 -204 q 393 -231 367 -204 q 419 -299 419 -257 q 392 -366 419 -339 q 325 -393 365 -393 m 178 796 q 130 829 154 803 q 97 882 106 856 q 194 981 140 922 q 301 1104 247 1039 q 386 1104 344 1111 q 494 981 440 1039 q 590 882 547 924 q 558 829 582 856 q 510 796 533 803 q 460 839 489 811 q 400 901 431 867 q 343 967 369 935 q 254 867 301 917 q 178 796 207 817 z "},"ề":{"ha":614,"x_min":-51,"x_max":690,"o":"m -11 -19 q -40 -3 -29 -19 q -51 40 -51 14 q -1 100 -51 100 q 81 113 39 100 q 178 158 122 126 q 124 381 124 253 q 156 533 124 467 q 244 637 188 599 q 374 675 301 675 q 482 647 435 675 q 556 568 529 618 q 582 453 582 518 q 530 290 582 364 q 354 131 478 217 q 474 99 399 99 q 504 82 493 99 q 515 38 515 65 q 503 -4 515 11 q 467 -19 490 -19 q 342 3 400 -19 q 244 64 283 25 q -11 -19 111 -19 m 244 392 q 283 217 244 282 q 417 339 374 279 q 461 453 461 399 q 437 531 461 503 q 369 560 413 560 q 280 511 315 560 q 244 392 244 463 m 535 1324 l 690 1132 q 655 1083 681 1104 q 599 1051 629 1061 l 438 1250 q 477 1298 450 1278 q 535 1324 504 1318 m 178 796 q 130 829 154 803 q 97 882 106 856 q 194 981 140 922 q 301 1104 247 1039 q 386 1104 344 1111 q 494 981 440 1039 q 590 882 547 924 q 558 829 582 856 q 510 796 533 803 q 460 839 489 811 q 400 901 431 867 q 343 967 369 935 q 254 867 301 917 q 178 796 207 817 z "},"ể":{"ha":614,"x_min":-51,"x_max":756,"o":"m -11 -19 q -40 -3 -29 -19 q -51 40 -51 14 q -1 100 -51 100 q 81 113 39 100 q 178 158 122 126 q 124 381 124 253 q 156 533 124 467 q 244 637 188 599 q 374 675 301 675 q 482 647 435 675 q 556 568 529 618 q 582 453 582 518 q 530 290 582 364 q 354 131 478 217 q 474 99 399 99 q 504 82 493 99 q 515 38 515 65 q 503 -4 515 11 q 467 -19 490 -19 q 342 3 400 -19 q 244 64 283 25 q -11 -19 111 -19 m 244 392 q 283 217 244 282 q 417 339 374 279 q 461 453 461 399 q 437 531 461 503 q 369 560 413 560 q 280 511 315 560 q 244 392 244 463 m 554 1133 q 615 1161 597 1146 q 632 1196 632 1176 q 564 1240 632 1240 q 505 1234 538 1240 q 442 1215 472 1228 q 419 1260 428 1233 q 411 1317 410 1288 q 481 1341 439 1332 q 574 1350 522 1350 q 710 1310 664 1350 q 756 1207 756 1271 q 732 1125 756 1160 q 670 1069 708 1090 q 589 1035 632 1047 q 563 1079 572 1053 q 554 1133 554 1106 m 178 796 q 130 829 154 803 q 97 882 106 856 q 194 981 140 922 q 301 1104 247 1039 q 386 1104 344 1111 q 494 981 440 1039 q 590 882 547 924 q 558 829 582 856 q 510 796 533 803 q 460 839 489 811 q 400 901 431 867 q 343 967 369 935 q 254 867 301 917 q 178 796 207 817 z "},"ễ":{"ha":614,"x_min":-51,"x_max":589,"o":"m -11 -19 q -40 -3 -29 -19 q -51 40 -51 14 q -1 100 -51 100 q 81 113 39 100 q 178 158 122 126 q 124 381 124 253 q 156 533 124 467 q 244 637 188 599 q 374 675 301 675 q 482 647 435 675 q 556 568 529 618 q 582 453 582 518 q 530 290 582 364 q 354 131 478 217 q 474 99 399 99 q 504 82 493 99 q 515 38 515 65 q 503 -4 515 11 q 467 -19 490 -19 q 342 3 400 -19 q 244 64 283 25 q -11 -19 111 -19 m 244 392 q 283 217 244 282 q 417 339 374 279 q 461 453 461 399 q 437 531 461 503 q 369 560 413 560 q 280 511 315 560 q 244 392 244 463 m 438 1186 q 393 1194 415 1186 q 338 1218 371 1201 q 288 1242 303 1236 q 260 1249 274 1249 q 224 1237 242 1249 q 193 1196 207 1225 q 103 1239 136 1196 q 165 1333 125 1300 q 257 1365 204 1365 q 308 1356 288 1365 q 354 1332 328 1347 q 398 1310 382 1317 q 426 1304 414 1304 q 463 1315 446 1304 q 493 1357 481 1326 q 583 1314 550 1357 q 524 1219 561 1253 q 438 1186 488 1186 m 176 796 q 128 829 153 803 q 96 882 104 856 q 192 981 139 922 q 300 1104 246 1039 q 385 1104 343 1111 q 492 981 439 1039 q 589 882 546 924 q 556 829 581 856 q 508 796 532 803 q 458 839 488 811 q 399 901 429 867 q 342 967 368 935 q 253 867 300 917 q 176 796 206 817 z "},"ë":{"ha":614,"x_min":-51,"x_max":601,"o":"m -11 -19 q -40 -3 -29 -19 q -51 40 -51 14 q -1 100 -51 100 q 81 113 39 100 q 178 158 122 126 q 124 381 124 253 q 156 533 124 467 q 244 637 188 599 q 374 675 301 675 q 482 647 435 675 q 556 568 529 618 q 582 453 582 518 q 530 290 582 364 q 354 131 478 217 q 474 99 399 99 q 504 82 493 99 q 515 38 515 65 q 503 -4 515 11 q 467 -19 490 -19 q 342 3 400 -19 q 244 64 283 25 q -11 -19 111 -19 m 244 392 q 283 217 244 282 q 417 339 374 279 q 461 453 461 399 q 437 531 461 503 q 369 560 413 560 q 280 511 315 560 q 244 392 244 463 m 507 856 q 440 883 468 856 q 413 950 413 911 q 440 1018 413 992 q 507 1044 467 1044 q 575 1018 549 1044 q 601 950 601 992 q 574 883 601 910 q 507 856 547 856 m 182 856 q 115 883 143 856 q 88 950 88 911 q 115 1018 88 992 q 182 1044 142 1044 q 250 1018 224 1044 q 276 950 276 992 q 249 883 276 910 q 182 856 222 856 z "},"ẹ":{"ha":614,"x_min":-51,"x_max":582,"o":"m -11 -19 q -40 -3 -29 -19 q -51 40 -51 14 q -1 100 -51 100 q 81 113 39 100 q 178 158 122 126 q 124 381 124 253 q 156 533 124 467 q 244 637 188 599 q 374 675 301 675 q 482 647 435 675 q 556 568 529 618 q 582 453 582 518 q 530 290 582 364 q 354 131 478 217 q 474 99 399 99 q 504 82 493 99 q 515 38 515 65 q 503 -4 515 11 q 467 -19 490 -19 q 342 3 400 -19 q 244 64 283 25 q -11 -19 111 -19 m 244 392 q 283 217 244 282 q 417 339 374 279 q 461 453 461 399 q 437 531 461 503 q 369 560 413 560 q 280 511 315 560 q 244 392 244 463 m 325 -393 q 258 -365 286 -393 q 231 -299 231 -337 q 258 -231 231 -257 q 325 -204 285 -204 q 393 -231 367 -204 q 419 -299 419 -257 q 392 -366 419 -339 q 325 -393 365 -393 z "},"è":{"ha":614,"x_min":-51,"x_max":582,"o":"m -11 -19 q -40 -3 -29 -19 q -51 40 -51 14 q -1 100 -51 100 q 81 113 39 100 q 178 158 122 126 q 124 381 124 253 q 156 533 124 467 q 244 637 188 599 q 374 675 301 675 q 482 647 435 675 q 556 568 529 618 q 582 453 582 518 q 530 290 582 364 q 354 131 478 217 q 474 99 399 99 q 504 82 493 99 q 515 38 515 65 q 503 -4 515 11 q 467 -19 490 -19 q 342 3 400 -19 q 244 64 283 25 q -11 -19 111 -19 m 244 392 q 283 217 244 282 q 417 339 374 279 q 461 453 461 399 q 437 531 461 503 q 369 560 413 560 q 280 511 315 560 q 244 392 244 463 m 421 796 q 318 872 368 829 q 229 956 268 914 q 169 1028 190 997 q 207 1076 182 1056 q 264 1104 232 1096 q 322 1038 285 1075 q 405 963 360 1000 q 493 894 450 925 q 466 839 485 865 q 421 796 447 813 z "},"ẻ":{"ha":614,"x_min":-51,"x_max":582,"o":"m -11 -19 q -40 -3 -29 -19 q -51 40 -51 14 q -1 100 -51 100 q 81 113 39 100 q 178 158 122 126 q 124 381 124 253 q 156 533 124 467 q 244 637 188 599 q 374 675 301 675 q 482 647 435 675 q 556 568 529 618 q 582 453 582 518 q 530 290 582 364 q 354 131 478 217 q 474 99 399 99 q 504 82 493 99 q 515 38 515 65 q 503 -4 515 11 q 467 -19 490 -19 q 342 3 400 -19 q 244 64 283 25 q -11 -19 111 -19 m 244 392 q 283 217 244 282 q 417 339 374 279 q 461 453 461 399 q 437 531 461 503 q 369 560 413 560 q 280 511 315 560 q 244 392 244 463 m 306 894 q 413 967 413 922 q 331 1013 413 1013 q 257 1004 292 1013 q 194 988 222 996 q 172 1033 181 1006 q 165 1092 164 1061 q 244 1115 200 1106 q 339 1125 288 1125 q 490 1085 439 1125 q 540 971 540 1044 q 485 855 540 901 q 332 796 429 808 q 306 894 303 833 z "},"ẽ":{"ha":614,"x_min":-51,"x_max":608,"o":"m -11 -19 q -40 -3 -29 -19 q -51 40 -51 14 q -1 100 -51 100 q 81 113 39 100 q 178 158 122 126 q 124 381 124 253 q 156 533 124 467 q 244 637 188 599 q 374 675 301 675 q 482 647 435 675 q 556 568 529 618 q 582 453 582 518 q 530 290 582 364 q 354 131 478 217 q 474 99 399 99 q 504 82 493 99 q 515 38 515 65 q 503 -4 515 11 q 467 -19 490 -19 q 342 3 400 -19 q 244 64 283 25 q -11 -19 111 -19 m 244 392 q 283 217 244 282 q 417 339 374 279 q 461 453 461 399 q 437 531 461 503 q 369 560 413 560 q 280 511 315 560 q 244 392 244 463 m 443 956 q 488 972 474 956 q 521 1019 503 988 q 608 988 578 1019 q 553 883 594 924 q 447 842 511 842 q 407 848 429 842 q 340 876 385 854 q 286 903 311 892 q 240 915 261 915 q 200 899 215 915 q 165 851 185 883 q 116 859 139 853 q 78 883 93 865 q 135 988 90 947 q 240 1028 181 1028 q 298 1017 271 1028 q 353 992 325 1007 q 397 968 374 981 q 443 956 421 956 z "},"f":{"ha":636,"x_min":-50,"x_max":675,"o":"m 417 -714 q 249 -628 300 -714 q 197 -390 197 -542 l 197 71 q 101 1 150 22 q -10 -19 51 -19 q -39 -3 -28 -19 q -50 40 -50 14 q -37 84 -50 68 q -1 100 -24 100 q 94 133 47 100 q 197 238 142 165 l 197 1042 q 209 1178 197 1117 q 251 1285 221 1240 q 316 1346 276 1322 q 415 1369 356 1369 q 582 1272 524 1369 q 640 997 640 1175 q 381 261 640 574 q 538 131 472 231 q 635 100 585 100 q 664 83 653 100 q 675 39 675 67 q 662 -3 675 13 q 625 -19 649 -19 q 607 -19 615 -19 q 641 -172 629 -89 q 653 -346 653 -254 q 592 -621 653 -528 q 417 -714 532 -714 m 321 1071 l 321 378 q 466 667 415 507 q 517 999 517 828 q 491 1189 517 1124 q 415 1254 465 1254 q 321 1071 321 1254 m 321 -390 q 344 -547 321 -494 q 424 -600 368 -600 q 503 -533 475 -600 q 531 -336 531 -465 q 471 17 531 -117 q 385 63 425 36 q 321 118 346 89 l 321 -390 z "},"g":{"ha":963,"x_min":-51,"x_max":785,"o":"m -1 100 q 91 147 46 100 q 167 272 136 193 q 165 311 165 292 q 207 499 165 417 q 320 628 249 581 q 483 675 392 675 q 579 656 532 675 q 658 606 626 638 l 658 663 q 688 669 671 667 q 722 672 704 672 q 785 663 756 672 l 785 -389 q 547 -714 785 -714 q 376 -649 438 -714 q 314 -469 314 -583 q 661 7 314 -215 l 661 65 q 571 3 622 25 q 458 -19 519 -19 q 316 16 378 -19 q 215 114 254 51 q -11 -19 129 -19 q -40 -3 -29 -19 q -51 40 -51 14 q -1 100 -51 100 m 294 311 q 340 156 294 213 q 464 100 385 100 q 605 160 551 100 q 658 317 658 219 l 658 472 q 588 533 631 510 q 499 556 544 556 q 393 524 439 556 q 321 437 347 492 q 294 311 294 382 m 439 -467 q 467 -560 439 -526 q 543 -594 494 -594 q 661 -389 661 -594 l 661 -140 q 439 -467 439 -297 z "},"ğ":{"ha":963,"x_min":-51,"x_max":785,"o":"m -1 100 q 91 147 46 100 q 167 272 136 193 q 165 311 165 292 q 207 499 165 417 q 320 628 249 581 q 483 675 392 675 q 579 656 532 675 q 658 606 626 638 l 658 663 q 688 669 671 667 q 722 672 704 672 q 785 663 756 672 l 785 -389 q 547 -714 785 -714 q 376 -649 438 -714 q 314 -469 314 -583 q 661 7 314 -215 l 661 65 q 571 3 622 25 q 458 -19 519 -19 q 316 16 378 -19 q 215 114 254 51 q -11 -19 129 -19 q -40 -3 -29 -19 q -51 40 -51 14 q -1 100 -51 100 m 294 311 q 340 156 294 213 q 464 100 385 100 q 605 160 551 100 q 658 317 658 219 l 658 472 q 588 533 631 510 q 499 556 544 556 q 393 524 439 556 q 321 437 347 492 q 294 311 294 382 m 439 -467 q 467 -560 439 -526 q 543 -594 494 -594 q 661 -389 661 -594 l 661 -140 q 439 -467 439 -297 m 492 796 q 316 860 382 796 q 239 1046 250 925 q 295 1066 263 1061 q 357 1064 328 1071 q 400 952 368 990 q 492 914 432 914 q 584 952 551 914 q 626 1064 617 990 q 689 1066 656 1071 q 744 1046 722 1061 q 668 860 733 925 q 492 796 603 796 z "},"h":{"ha":904,"x_min":-51,"x_max":943,"o":"m -11 -19 q -40 -3 -29 -19 q -51 40 -51 14 q -38 84 -51 68 q -3 100 -25 100 q 115 155 58 100 q 240 339 171 210 l 240 1082 q 299 1296 240 1221 q 471 1369 358 1371 q 631 1292 574 1368 q 689 1093 689 1215 q 653 874 689 994 q 557 642 617 753 q 586 643 571 643 q 752 569 690 643 q 814 372 814 496 l 814 253 q 834 136 814 172 q 901 100 854 100 q 933 83 924 100 q 943 39 943 65 q 930 -3 943 13 q 893 -19 917 -19 q 740 45 793 -19 q 686 228 686 110 l 686 375 q 655 485 686 446 q 567 525 624 525 q 467 488 511 525 q 396 388 422 451 q 368 240 369 324 l 368 0 q 338 -7 354 -4 q 306 -10 321 -10 q 240 0 274 -10 l 240 114 q 124 10 183 40 q -11 -19 65 -19 m 364 1083 l 364 547 q 472 740 426 643 q 541 928 517 838 q 565 1094 565 1019 q 540 1213 565 1172 q 465 1254 514 1254 q 364 1083 364 1254 z "},"i":{"ha":422,"x_min":-51,"x_max":461,"o":"m -1 100 q 61 118 28 100 q 124 174 94 136 q 174 282 158 221 q 194 406 190 343 l 194 656 q 224 663 207 660 q 258 665 240 665 q 321 656 290 665 l 321 256 q 344 141 321 182 q 421 100 367 100 q 453 81 444 100 q 461 39 461 61 q 449 -1 461 17 q 411 -19 438 -19 q 224 117 267 -19 q 182 63 204 85 q 95 3 144 25 q -11 -19 46 -19 q -41 -1 -31 -19 q -51 40 -51 18 q -40 82 -51 64 q -1 100 -28 100 m 260 856 q 193 883 221 856 q 165 950 165 911 q 192 1018 165 992 q 260 1044 219 1044 q 328 1018 301 1044 q 354 950 354 992 q 327 883 354 910 q 260 856 300 856 z "},"ı":{"ha":422,"x_min":-51,"x_max":461,"o":"m -1 100 q 61 118 28 100 q 124 174 94 136 q 174 282 158 221 q 194 406 190 343 l 194 656 q 224 663 207 660 q 258 665 240 665 q 321 656 290 665 l 321 256 q 344 141 321 182 q 421 100 367 100 q 453 81 444 100 q 461 39 461 61 q 449 -1 461 17 q 411 -19 438 -19 q 224 117 267 -19 q 182 63 204 85 q 95 3 144 25 q -11 -19 46 -19 q -41 -1 -31 -19 q -51 40 -51 18 q -40 82 -51 64 q -1 100 -28 100 z "},"í":{"ha":422,"x_min":-51,"x_max":461,"o":"m -1 100 q 61 118 28 100 q 124 174 94 136 q 174 282 158 221 q 194 406 190 343 l 194 656 q 224 663 207 660 q 258 665 240 665 q 321 656 290 665 l 321 256 q 344 141 321 182 q 421 100 367 100 q 453 81 444 100 q 461 39 461 61 q 449 -1 461 17 q 411 -19 438 -19 q 224 117 267 -19 q 182 63 204 85 q 95 3 144 25 q -11 -19 46 -19 q -41 -1 -31 -19 q -51 40 -51 18 q -40 82 -51 64 q -1 100 -28 100 m 171 796 q 100 894 115 831 q 187 963 143 925 q 267 1038 231 1000 q 324 1104 303 1075 q 380 1076 356 1096 q 417 1028 404 1056 q 359 956 397 997 q 273 872 321 914 q 171 796 225 829 z "},"î":{"ha":422,"x_min":-51,"x_max":504,"o":"m -1 100 q 61 118 28 100 q 124 174 94 136 q 174 282 158 221 q 194 406 190 343 l 194 656 q 224 663 207 660 q 258 665 240 665 q 321 656 290 665 l 321 256 q 344 141 321 182 q 421 100 367 100 q 453 81 444 100 q 461 39 461 61 q 449 -1 461 17 q 411 -19 438 -19 q 224 117 267 -19 q 182 63 204 85 q 95 3 144 25 q -11 -19 46 -19 q -41 -1 -31 -19 q -51 40 -51 18 q -40 82 -51 64 q -1 100 -28 100 m 92 796 q 44 829 68 803 q 11 882 19 856 q 108 981 54 922 q 215 1104 161 1039 q 300 1104 258 1111 q 408 981 354 1039 q 504 882 461 924 q 472 829 496 856 q 424 796 447 803 q 374 839 403 811 q 314 901 344 867 q 257 967 283 935 q 168 867 215 917 q 92 796 121 817 z "},"ï":{"ha":422,"x_min":-51,"x_max":468,"o":"m -1 100 q 61 118 28 100 q 124 174 94 136 q 174 282 158 221 q 194 406 190 343 l 194 656 q 224 663 207 660 q 258 665 240 665 q 321 656 290 665 l 321 256 q 344 141 321 182 q 421 100 367 100 q 453 81 444 100 q 461 39 461 61 q 449 -1 461 17 q 411 -19 438 -19 q 224 117 267 -19 q 182 63 204 85 q 95 3 144 25 q -11 -19 46 -19 q -41 -1 -31 -19 q -51 40 -51 18 q -40 82 -51 64 q -1 100 -28 100 m 133 874 q 69 901 92 874 q 46 968 46 929 q 69 1035 46 1008 q 133 1063 92 1063 q 198 1035 175 1063 q 221 968 221 1008 q 198 901 221 929 q 133 874 175 874 m 381 874 q 316 901 339 874 q 293 968 293 929 q 316 1035 293 1008 q 381 1063 339 1063 q 445 1035 422 1063 q 468 968 468 1008 q 445 901 468 929 q 381 874 422 874 z "},"ị":{"ha":422,"x_min":-51,"x_max":461,"o":"m -1 100 q 61 118 28 100 q 124 174 94 136 q 174 282 158 221 q 194 406 190 343 l 194 656 q 224 663 207 660 q 258 665 240 665 q 321 656 290 665 l 321 256 q 344 141 321 182 q 421 100 367 100 q 453 81 444 100 q 461 39 461 61 q 449 -1 461 17 q 411 -19 438 -19 q 224 117 267 -19 q 182 63 204 85 q 95 3 144 25 q -11 -19 46 -19 q -41 -1 -31 -19 q -51 40 -51 18 q -40 82 -51 64 q -1 100 -28 100 m 260 856 q 193 883 221 856 q 165 950 165 911 q 192 1018 165 992 q 260 1044 219 1044 q 328 1018 301 1044 q 354 950 354 992 q 327 883 354 910 q 260 856 300 856 m 258 -393 q 192 -365 219 -393 q 164 -299 164 -337 q 191 -231 164 -257 q 258 -204 218 -204 q 326 -231 300 -204 q 353 -299 353 -257 q 326 -366 353 -339 q 258 -393 299 -393 z "},"ì":{"ha":422,"x_min":-51,"x_max":461,"o":"m -1 100 q 61 118 28 100 q 124 174 94 136 q 174 282 158 221 q 194 406 190 343 l 194 656 q 224 663 207 660 q 258 665 240 665 q 321 656 290 665 l 321 256 q 344 141 321 182 q 421 100 367 100 q 453 81 444 100 q 461 39 461 61 q 449 -1 461 17 q 411 -19 438 -19 q 224 117 267 -19 q 182 63 204 85 q 95 3 144 25 q -11 -19 46 -19 q -41 -1 -31 -19 q -51 40 -51 18 q -40 82 -51 64 q -1 100 -28 100 m 335 796 q 232 872 282 829 q 143 956 182 914 q 83 1028 104 997 q 121 1076 96 1056 q 178 1104 146 1096 q 236 1038 199 1075 q 319 963 274 1000 q 407 894 364 925 q 380 839 399 865 q 335 796 361 813 z "},"ỉ":{"ha":422,"x_min":-51,"x_max":461,"o":"m -1 100 q 61 118 28 100 q 124 174 94 136 q 174 282 158 221 q 194 406 190 343 l 194 656 q 224 663 207 660 q 258 665 240 665 q 321 656 290 665 l 321 256 q 344 141 321 182 q 421 100 367 100 q 453 81 444 100 q 461 39 461 61 q 449 -1 461 17 q 411 -19 438 -19 q 224 117 267 -19 q 182 63 204 85 q 95 3 144 25 q -11 -19 46 -19 q -41 -1 -31 -19 q -51 40 -51 18 q -40 82 -51 64 q -1 100 -28 100 m 219 894 q 326 967 326 922 q 244 1013 326 1013 q 171 1004 206 1013 q 108 988 136 996 q 86 1033 94 1006 q 79 1092 78 1061 q 158 1115 114 1106 q 253 1125 201 1125 q 403 1085 353 1125 q 454 971 454 1044 q 399 855 454 901 q 246 796 343 808 q 219 894 217 833 z "},"ĩ":{"ha":422,"x_min":-51,"x_max":522,"o":"m -1 100 q 61 118 28 100 q 124 174 94 136 q 174 282 158 221 q 194 406 190 343 l 194 656 q 224 663 207 660 q 258 665 240 665 q 321 656 290 665 l 321 256 q 344 141 321 182 q 421 100 367 100 q 453 81 444 100 q 461 39 461 61 q 449 -1 461 17 q 411 -19 438 -19 q 224 117 267 -19 q 182 63 204 85 q 95 3 144 25 q -11 -19 46 -19 q -41 -1 -31 -19 q -51 40 -51 18 q -40 82 -51 64 q -1 100 -28 100 m 357 956 q 402 972 388 956 q 435 1019 417 988 q 522 988 492 1019 q 467 883 508 924 q 361 842 425 842 q 321 848 343 842 q 254 876 299 854 q 200 903 225 892 q 154 915 175 915 q 114 899 129 915 q 79 851 99 883 q 30 859 53 853 q -8 883 7 865 q 49 988 4 947 q 154 1028 94 1028 q 212 1017 185 1028 q 267 992 239 1007 q 311 968 288 981 q 357 956 335 956 z "},"j":{"ha":617,"x_min":-54,"x_max":475,"o":"m -12 -19 q -42 -2 -31 -19 q -54 40 -54 15 q -40 84 -54 68 q 0 100 -25 100 q 92 147 50 100 q 181 300 133 193 q 254 482 224 399 q 315 665 285 565 q 383 669 349 674 q 439 650 418 665 l 439 -389 q 201 -714 439 -714 q 30 -649 92 -714 q -32 -469 -32 -583 q 313 4 -32 -217 l 313 329 q 246 171 286 256 q -12 -19 153 -19 m 93 -467 q 121 -560 93 -526 q 197 -594 149 -594 q 315 -389 315 -594 l 315 -140 q 93 -467 93 -297 m 381 856 q 314 883 342 856 q 286 950 286 911 q 313 1018 286 992 q 381 1044 340 1044 q 449 1018 422 1044 q 475 950 475 992 q 448 883 475 910 q 381 856 421 856 z "},"ȷ":{"ha":617,"x_min":-54,"x_max":439,"o":"m -12 -19 q -42 -2 -31 -19 q -54 40 -54 15 q -40 84 -54 68 q 0 100 -25 100 q 92 147 50 100 q 181 300 133 193 q 254 482 224 399 q 315 665 285 565 q 383 669 349 674 q 439 650 418 665 l 439 -389 q 201 -714 439 -714 q 30 -649 92 -714 q -32 -469 -32 -583 q 313 4 -32 -217 l 313 329 q 246 171 286 256 q -12 -19 153 -19 m 93 -467 q 121 -560 93 -526 q 197 -594 149 -594 q 315 -389 315 -594 l 315 -140 q 93 -467 93 -297 z "},"k":{"ha":847,"x_min":-51,"x_max":886,"o":"m -11 -19 q -40 -3 -29 -19 q -51 40 -51 14 q -38 84 -51 68 q -3 100 -25 100 q 115 155 58 100 q 240 339 171 210 l 240 1082 q 299 1296 240 1221 q 471 1369 358 1371 q 631 1292 574 1368 q 689 1093 689 1215 q 658 889 689 1000 q 572 672 626 778 q 613 675 592 675 q 757 621 703 675 q 811 478 811 567 q 760 350 811 406 q 622 267 708 294 q 674 221 650 247 l 719 168 q 846 100 779 100 q 875 83 864 100 q 886 39 886 67 q 835 -19 886 -19 q 744 5 789 -19 q 657 72 699 29 l 599 135 q 536 191 565 171 q 469 219 507 211 q 369 226 431 226 q 368 182 368 204 l 368 0 q 338 -7 354 -4 q 306 -10 321 -10 q 240 0 274 -10 l 240 114 q 124 10 183 40 q -11 -19 65 -19 m 364 1083 l 364 547 q 472 740 426 643 q 541 928 517 838 q 565 1094 565 1019 q 540 1213 565 1172 q 465 1254 514 1254 q 364 1083 364 1254 m 590 565 q 462 500 517 565 q 383 328 407 435 q 438 325 407 325 q 567 344 510 325 q 656 397 624 364 q 689 472 689 431 q 662 540 689 514 q 590 565 635 565 z "},"l":{"ha":613,"x_min":-51,"x_max":633,"o":"m -11 -19 q -40 -3 -29 -19 q -51 40 -51 14 q -38 84 -51 68 q -3 100 -25 100 q 93 132 42 100 q 193 219 144 164 q 176 340 182 271 q 167 508 169 410 q 164 746 164 607 l 165 746 l 164 747 q 167 957 164 871 q 178 1101 169 1043 q 199 1201 186 1160 q 233 1275 213 1242 q 309 1347 264 1325 q 408 1369 354 1369 q 575 1274 517 1369 q 633 1010 633 1178 q 554 596 633 808 q 328 190 475 383 q 385 122 347 144 q 471 99 422 99 q 502 83 490 99 q 514 39 514 67 q 463 -19 514 -19 q 329 13 388 -19 q 239 94 271 44 q -11 -19 124 -19 m 288 739 q 290 499 288 593 q 296 343 292 404 q 456 685 401 518 q 510 1011 510 853 q 483 1188 510 1126 q 408 1250 457 1250 q 326 1186 354 1250 q 303 1102 313 1153 q 291 965 294 1051 q 288 739 288 879 z "},"ŀ":{"ha":613,"x_min":-51,"x_max":733,"o":"m -11 -19 q -40 -3 -29 -19 q -51 40 -51 14 q -38 84 -51 68 q -3 100 -25 100 q 93 132 42 100 q 193 219 144 164 q 176 340 182 271 q 167 508 169 410 q 164 746 164 607 l 165 746 l 164 747 q 167 957 164 871 q 178 1101 169 1043 q 199 1201 186 1160 q 233 1275 213 1242 q 309 1347 264 1325 q 408 1369 354 1369 q 575 1274 517 1369 q 633 1010 633 1178 q 554 596 633 808 q 328 190 475 383 q 385 122 347 144 q 471 99 422 99 q 502 83 490 99 q 514 39 514 67 q 463 -19 514 -19 q 329 13 388 -19 q 239 94 271 44 q -11 -19 124 -19 m 288 739 q 290 499 288 593 q 296 343 292 404 q 456 685 401 518 q 510 1011 510 853 q 483 1188 510 1126 q 408 1250 457 1250 q 326 1186 354 1250 q 303 1102 313 1153 q 291 965 294 1051 q 288 739 288 879 m 638 329 q 571 358 599 329 q 543 425 543 386 q 571 492 543 464 q 638 519 599 519 q 705 492 676 519 q 733 425 733 464 q 705 358 733 386 q 638 329 676 329 z "},"m":{"ha":1463,"x_min":-51,"x_max":1501,"o":"m -11 -19 q -40 -3 -29 -19 q -51 40 -51 14 q -1 100 -51 100 q 78 145 43 100 q 140 296 114 190 l 182 458 q 404 675 240 675 q 506 641 464 675 q 567 547 549 607 q 651 642 599 608 q 768 675 703 675 q 953 535 904 675 q 1043 638 986 601 q 1172 675 1100 675 q 1324 613 1271 675 q 1376 436 1376 550 l 1376 243 q 1397 133 1376 167 q 1461 100 1417 100 q 1491 83 1481 100 q 1501 39 1501 67 q 1490 -1 1501 17 q 1451 -19 1478 -19 q 1250 228 1250 -19 l 1250 406 q 1224 517 1250 478 q 1149 556 1197 556 q 1033 472 1075 556 q 990 239 990 388 l 990 0 q 960 -7 976 -4 q 928 -10 943 -10 q 864 0 894 -10 l 864 386 q 835 512 864 468 q 751 556 807 556 q 663 516 700 556 q 603 405 625 476 q 582 239 582 333 l 582 0 q 551 -7 568 -4 q 519 -10 535 -10 q 457 0 485 -10 l 457 443 q 393 556 457 556 q 343 529 364 556 q 307 444 322 503 l 256 244 q 156 44 219 107 q -11 -19 92 -19 z "},"n":{"ha":1118,"x_min":-51,"x_max":1157,"o":"m -11 -19 q -40 -3 -29 -19 q -51 40 -51 14 q -1 100 -51 100 q 78 145 43 100 q 140 296 114 190 l 182 458 q 404 675 240 675 q 510 638 467 675 q 569 539 553 601 q 669 640 608 604 q 806 675 731 675 q 973 604 914 675 q 1032 406 1032 533 l 1032 243 q 1052 133 1032 167 q 1117 100 1072 100 q 1147 83 1136 100 q 1157 39 1157 67 q 1145 -1 1157 17 q 1107 -19 1133 -19 q 906 228 906 -19 l 906 406 q 788 556 906 556 q 680 507 726 556 q 608 372 633 458 q 582 172 582 286 l 582 0 q 551 -7 568 -4 q 519 -10 535 -10 q 457 0 486 -10 l 457 443 q 443 526 457 497 q 393 556 429 556 q 343 529 364 556 q 307 444 322 503 l 256 244 q 156 44 219 107 q -11 -19 92 -19 z "},"ñ":{"ha":1118,"x_min":-51,"x_max":1157,"o":"m -11 -19 q -40 -3 -29 -19 q -51 40 -51 14 q -1 100 -51 100 q 78 145 43 100 q 140 296 114 190 l 182 458 q 404 675 240 675 q 510 638 467 675 q 569 539 553 601 q 669 640 608 604 q 806 675 731 675 q 973 604 914 675 q 1032 406 1032 533 l 1032 243 q 1052 133 1032 167 q 1117 100 1072 100 q 1147 83 1136 100 q 1157 39 1157 67 q 1145 -1 1157 17 q 1107 -19 1133 -19 q 906 228 906 -19 l 906 406 q 788 556 906 556 q 680 507 726 556 q 608 372 633 458 q 582 172 582 286 l 582 0 q 551 -7 568 -4 q 519 -10 535 -10 q 457 0 486 -10 l 457 443 q 443 526 457 497 q 393 556 429 556 q 343 529 364 556 q 307 444 322 503 l 256 244 q 156 44 219 107 q -11 -19 92 -19 m 736 956 q 781 972 767 956 q 814 1019 796 988 q 901 988 871 1019 q 846 883 888 924 q 740 842 804 842 q 700 848 722 842 q 633 876 678 854 q 579 903 604 892 q 533 915 554 915 q 493 899 508 915 q 458 851 478 883 q 409 859 432 853 q 371 883 386 865 q 428 988 383 947 q 533 1028 474 1028 q 591 1017 564 1028 q 646 992 618 1007 q 690 968 667 981 q 736 956 714 956 z "},"o":{"ha":876,"x_min":-51,"x_max":810,"o":"m -1 100 q 88 144 44 100 q 163 261 132 188 q 157 329 157 294 q 200 507 157 429 q 317 630 243 585 q 485 675 392 675 q 651 630 578 675 q 767 507 725 585 q 810 329 810 429 q 767 150 810 229 q 652 26 725 71 q 485 -19 579 -19 q 331 17 400 -19 q 218 118 263 54 q -11 -19 132 -19 q -40 -3 -29 -19 q -51 40 -51 14 q -1 100 -51 100 m 483 100 q 626 163 572 100 q 679 329 679 225 q 664 424 679 381 q 513 457 581 426 q 407 540 446 488 q 319 460 351 517 q 288 326 288 404 q 341 163 288 225 q 483 100 394 100 z "},"ó":{"ha":876,"x_min":-51,"x_max":810,"o":"m -1 100 q 88 144 44 100 q 163 261 132 188 q 157 329 157 294 q 200 507 157 429 q 317 630 243 585 q 485 675 392 675 q 651 630 578 675 q 767 507 725 585 q 810 329 810 429 q 767 150 810 229 q 652 26 725 71 q 485 -19 579 -19 q 331 17 400 -19 q 218 118 263 54 q -11 -19 132 -19 q -40 -3 -29 -19 q -51 40 -51 14 q -1 100 -51 100 m 483 100 q 626 163 572 100 q 679 329 679 225 q 664 424 679 381 q 513 457 581 426 q 407 540 446 488 q 319 460 351 517 q 288 326 288 404 q 341 163 288 225 q 483 100 394 100 m 397 796 q 326 894 342 831 q 413 963 369 925 q 493 1038 457 1000 q 550 1104 529 1075 q 606 1076 582 1096 q 643 1028 631 1056 q 585 956 624 997 q 499 872 547 914 q 397 796 451 829 z "},"ô":{"ha":876,"x_min":-51,"x_max":810,"o":"m -1 100 q 88 144 44 100 q 163 261 132 188 q 157 329 157 294 q 200 507 157 429 q 317 630 243 585 q 485 675 392 675 q 651 630 578 675 q 767 507 725 585 q 810 329 810 429 q 767 150 810 229 q 652 26 725 71 q 485 -19 579 -19 q 331 17 400 -19 q 218 118 263 54 q -11 -19 132 -19 q -40 -3 -29 -19 q -51 40 -51 14 q -1 100 -51 100 m 483 100 q 626 163 572 100 q 679 329 679 225 q 664 424 679 381 q 513 457 581 426 q 407 540 446 488 q 319 460 351 517 q 288 326 288 404 q 341 163 288 225 q 483 100 394 100 m 318 796 q 270 829 294 803 q 238 882 246 856 q 334 981 281 922 q 442 1104 388 1039 q 526 1104 485 1111 q 634 981 581 1039 q 731 882 688 924 q 698 829 722 856 q 650 796 674 803 q 600 839 629 811 q 540 901 571 867 q 483 967 510 935 q 394 867 442 917 q 318 796 347 817 z "},"ố":{"ha":876,"x_min":-51,"x_max":901,"o":"m -1 100 q 88 144 44 100 q 163 261 132 188 q 157 329 157 294 q 200 507 157 429 q 317 630 243 585 q 485 675 392 675 q 651 630 578 675 q 767 507 725 585 q 810 329 810 429 q 767 150 810 229 q 652 26 725 71 q 485 -19 579 -19 q 331 17 400 -19 q 218 118 263 54 q -11 -19 132 -19 q -40 -3 -29 -19 q -51 40 -51 14 q -1 100 -51 100 m 483 100 q 626 163 572 100 q 679 329 679 225 q 664 424 679 381 q 513 457 581 426 q 407 540 446 488 q 319 460 351 517 q 288 326 288 404 q 341 163 288 225 q 483 100 394 100 m 804 1324 q 862 1298 835 1318 q 901 1250 889 1278 l 740 1051 q 685 1083 710 1061 q 649 1132 660 1104 l 804 1324 m 318 796 q 270 829 294 803 q 238 882 246 856 q 334 981 281 922 q 442 1104 388 1039 q 526 1104 485 1111 q 634 981 581 1039 q 731 882 688 924 q 698 829 722 856 q 650 796 674 803 q 600 839 629 811 q 540 901 571 867 q 483 967 510 935 q 394 867 442 917 q 318 796 347 817 z "},"ộ":{"ha":876,"x_min":-51,"x_max":810,"o":"m -1 100 q 88 144 44 100 q 163 261 132 188 q 157 329 157 294 q 200 507 157 429 q 317 630 243 585 q 485 675 392 675 q 651 630 578 675 q 767 507 725 585 q 810 329 810 429 q 767 150 810 229 q 652 26 725 71 q 485 -19 579 -19 q 331 17 400 -19 q 218 118 263 54 q -11 -19 132 -19 q -40 -3 -29 -19 q -51 40 -51 14 q -1 100 -51 100 m 483 100 q 626 163 572 100 q 679 329 679 225 q 664 424 679 381 q 513 457 581 426 q 407 540 446 488 q 319 460 351 517 q 288 326 288 404 q 341 163 288 225 q 483 100 394 100 m 485 -393 q 418 -365 446 -393 q 390 -299 390 -337 q 417 -231 390 -257 q 485 -204 444 -204 q 553 -231 526 -204 q 579 -299 579 -257 q 552 -366 579 -339 q 485 -393 525 -393 m 318 796 q 270 829 294 803 q 238 882 246 856 q 334 981 281 922 q 442 1104 388 1039 q 526 1104 485 1111 q 634 981 581 1039 q 731 882 688 924 q 698 829 722 856 q 650 796 674 803 q 600 839 629 811 q 540 901 571 867 q 483 967 510 935 q 394 867 442 917 q 318 796 347 817 z "},"ồ":{"ha":876,"x_min":-51,"x_max":831,"o":"m -1 100 q 88 144 44 100 q 163 261 132 188 q 157 329 157 294 q 200 507 157 429 q 317 630 243 585 q 485 675 392 675 q 651 630 578 675 q 767 507 725 585 q 810 329 810 429 q 767 150 810 229 q 652 26 725 71 q 485 -19 579 -19 q 331 17 400 -19 q 218 118 263 54 q -11 -19 132 -19 q -40 -3 -29 -19 q -51 40 -51 14 q -1 100 -51 100 m 483 100 q 626 163 572 100 q 679 329 679 225 q 664 424 679 381 q 513 457 581 426 q 407 540 446 488 q 319 460 351 517 q 288 326 288 404 q 341 163 288 225 q 483 100 394 100 m 675 1324 l 831 1132 q 795 1083 821 1104 q 739 1051 769 1061 l 578 1250 q 617 1298 590 1278 q 675 1324 644 1318 m 318 796 q 270 829 294 803 q 238 882 246 856 q 334 981 281 922 q 442 1104 388 1039 q 526 1104 485 1111 q 634 981 581 1039 q 731 882 688 924 q 698 829 722 856 q 650 796 674 803 q 600 839 629 811 q 540 901 571 867 q 483 967 510 935 q 394 867 442 917 q 318 796 347 817 z "},"ổ":{"ha":876,"x_min":-51,"x_max":896,"o":"m -1 100 q 88 144 44 100 q 163 261 132 188 q 157 329 157 294 q 200 507 157 429 q 317 630 243 585 q 485 675 392 675 q 651 630 578 675 q 767 507 725 585 q 810 329 810 429 q 767 150 810 229 q 652 26 725 71 q 485 -19 579 -19 q 331 17 400 -19 q 218 118 263 54 q -11 -19 132 -19 q -40 -3 -29 -19 q -51 40 -51 14 q -1 100 -51 100 m 483 100 q 626 163 572 100 q 679 329 679 225 q 664 424 679 381 q 513 457 581 426 q 407 540 446 488 q 319 460 351 517 q 288 326 288 404 q 341 163 288 225 q 483 100 394 100 m 694 1133 q 755 1161 738 1146 q 772 1196 772 1176 q 704 1240 772 1240 q 645 1234 678 1240 q 582 1215 613 1228 q 559 1260 568 1233 q 551 1317 550 1288 q 621 1341 579 1332 q 714 1350 663 1350 q 850 1310 804 1350 q 896 1207 896 1271 q 872 1125 896 1160 q 810 1069 849 1090 q 729 1035 772 1047 q 703 1079 713 1053 q 694 1133 694 1106 m 318 796 q 270 829 294 803 q 238 882 246 856 q 334 981 281 922 q 442 1104 388 1039 q 526 1104 485 1111 q 634 981 581 1039 q 731 882 688 924 q 698 829 722 856 q 650 796 674 803 q 600 839 629 811 q 540 901 571 867 q 483 967 510 935 q 394 867 442 917 q 318 796 347 817 z "},"ỗ":{"ha":876,"x_min":-51,"x_max":810,"o":"m -1 100 q 88 144 44 100 q 163 261 132 188 q 157 329 157 294 q 200 507 157 429 q 317 630 243 585 q 485 675 392 675 q 651 630 578 675 q 767 507 725 585 q 810 329 810 429 q 767 150 810 229 q 652 26 725 71 q 485 -19 579 -19 q 331 17 400 -19 q 218 118 263 54 q -11 -19 132 -19 q -40 -3 -29 -19 q -51 40 -51 14 q -1 100 -51 100 m 483 100 q 626 163 572 100 q 679 329 679 225 q 664 424 679 381 q 513 457 581 426 q 407 540 446 488 q 319 460 351 517 q 288 326 288 404 q 341 163 288 225 q 483 100 394 100 m 578 1186 q 533 1194 556 1186 q 478 1218 511 1201 q 428 1242 443 1236 q 400 1249 414 1249 q 365 1237 382 1249 q 333 1196 347 1225 q 243 1239 276 1196 q 305 1333 265 1300 q 397 1365 344 1365 q 448 1356 428 1365 q 494 1332 468 1347 q 538 1310 522 1317 q 567 1304 554 1304 q 603 1315 586 1304 q 633 1357 621 1326 q 724 1314 690 1357 q 665 1219 701 1253 q 578 1186 628 1186 m 317 796 q 269 829 293 803 q 236 882 244 856 q 333 981 279 922 q 440 1104 386 1039 q 525 1104 483 1111 q 633 981 579 1039 q 729 882 686 924 q 697 829 721 856 q 649 796 672 803 q 599 839 628 811 q 539 901 569 867 q 482 967 508 935 q 393 867 440 917 q 317 796 346 817 z "},"ö":{"ha":876,"x_min":-51,"x_max":810,"o":"m -1 100 q 88 144 44 100 q 163 261 132 188 q 157 329 157 294 q 200 507 157 429 q 317 630 243 585 q 485 675 392 675 q 651 630 578 675 q 767 507 725 585 q 810 329 810 429 q 767 150 810 229 q 652 26 725 71 q 485 -19 579 -19 q 331 17 400 -19 q 218 118 263 54 q -11 -19 132 -19 q -40 -3 -29 -19 q -51 40 -51 14 q -1 100 -51 100 m 483 100 q 626 163 572 100 q 679 329 679 225 q 664 424 679 381 q 513 457 581 426 q 407 540 446 488 q 319 460 351 517 q 288 326 288 404 q 341 163 288 225 q 483 100 394 100 m 647 856 q 581 883 608 856 q 553 950 553 911 q 580 1018 553 992 q 647 1044 607 1044 q 715 1018 689 1044 q 742 950 742 992 q 715 883 742 910 q 647 856 688 856 m 322 856 q 256 883 283 856 q 228 950 228 911 q 255 1018 228 992 q 322 1044 282 1044 q 390 1018 364 1044 q 417 950 417 992 q 390 883 417 910 q 322 856 363 856 z "},"ọ":{"ha":876,"x_min":-51,"x_max":810,"o":"m -1 100 q 88 144 44 100 q 163 261 132 188 q 157 329 157 294 q 200 507 157 429 q 317 630 243 585 q 485 675 392 675 q 651 630 578 675 q 767 507 725 585 q 810 329 810 429 q 767 150 810 229 q 652 26 725 71 q 485 -19 579 -19 q 331 17 400 -19 q 218 118 263 54 q -11 -19 132 -19 q -40 -3 -29 -19 q -51 40 -51 14 q -1 100 -51 100 m 483 100 q 626 163 572 100 q 679 329 679 225 q 664 424 679 381 q 513 457 581 426 q 407 540 446 488 q 319 460 351 517 q 288 326 288 404 q 341 163 288 225 q 483 100 394 100 m 485 -393 q 418 -365 446 -393 q 390 -299 390 -337 q 417 -231 390 -257 q 485 -204 444 -204 q 553 -231 526 -204 q 579 -299 579 -257 q 552 -366 579 -339 q 485 -393 525 -393 z "},"ò":{"ha":876,"x_min":-51,"x_max":810,"o":"m -1 100 q 88 144 44 100 q 163 261 132 188 q 157 329 157 294 q 200 507 157 429 q 317 630 243 585 q 485 675 392 675 q 651 630 578 675 q 767 507 725 585 q 810 329 810 429 q 767 150 810 229 q 652 26 725 71 q 485 -19 579 -19 q 331 17 400 -19 q 218 118 263 54 q -11 -19 132 -19 q -40 -3 -29 -19 q -51 40 -51 14 q -1 100 -51 100 m 483 100 q 626 163 572 100 q 679 329 679 225 q 664 424 679 381 q 513 457 581 426 q 407 540 446 488 q 319 460 351 517 q 288 326 288 404 q 341 163 288 225 q 483 100 394 100 m 561 796 q 458 872 508 829 q 369 956 408 914 q 310 1028 331 997 q 347 1076 322 1056 q 404 1104 372 1096 q 463 1038 425 1075 q 545 963 500 1000 q 633 894 590 925 q 606 839 625 865 q 561 796 588 813 z "},"ỏ":{"ha":876,"x_min":-51,"x_max":810,"o":"m -1 100 q 88 144 44 100 q 163 261 132 188 q 157 329 157 294 q 200 507 157 429 q 317 630 243 585 q 485 675 392 675 q 651 630 578 675 q 767 507 725 585 q 810 329 810 429 q 767 150 810 229 q 652 26 725 71 q 485 -19 579 -19 q 331 17 400 -19 q 218 118 263 54 q -11 -19 132 -19 q -40 -3 -29 -19 q -51 40 -51 14 q -1 100 -51 100 m 483 100 q 626 163 572 100 q 679 329 679 225 q 664 424 679 381 q 513 457 581 426 q 407 540 446 488 q 319 460 351 517 q 288 326 288 404 q 341 163 288 225 q 483 100 394 100 m 446 894 q 553 967 553 922 q 471 1013 553 1013 q 397 1004 432 1013 q 335 988 363 996 q 313 1033 321 1006 q 306 1092 304 1061 q 384 1115 340 1106 q 479 1125 428 1125 q 630 1085 579 1125 q 681 971 681 1044 q 625 855 681 901 q 472 796 569 808 q 446 894 443 833 z "},"ơ":{"ha":876,"x_min":-51,"x_max":810,"o":"m -1 100 q 88 144 44 100 q 163 261 132 188 q 157 329 157 294 q 200 507 157 429 q 317 630 243 585 q 485 675 392 675 q 651 630 578 675 q 767 507 725 585 q 810 329 810 429 q 767 150 810 229 q 652 26 725 71 q 485 -19 579 -19 q 331 17 400 -19 q 218 118 263 54 q -11 -19 132 -19 q -40 -3 -29 -19 q -51 40 -51 14 q -1 100 -51 100 m 483 100 q 626 163 572 100 q 679 329 679 225 q 664 424 679 381 q 513 457 581 426 q 407 540 446 488 q 319 460 351 517 q 288 326 288 404 q 341 163 288 225 q 483 100 394 100 m 588 611 q 663 646 636 611 q 690 743 690 681 q 686 794 690 768 q 799 801 743 821 q 803 769 801 785 q 804 738 804 753 q 747 569 804 636 q 588 492 689 503 l 588 611 z "},"ớ":{"ha":876,"x_min":-51,"x_max":810,"o":"m -1 100 q 88 144 44 100 q 163 261 132 188 q 157 329 157 294 q 200 507 157 429 q 317 630 243 585 q 485 675 392 675 q 651 630 578 675 q 767 507 725 585 q 810 329 810 429 q 767 150 810 229 q 652 26 725 71 q 485 -19 579 -19 q 331 17 400 -19 q 218 118 263 54 q -11 -19 132 -19 q -40 -3 -29 -19 q -51 40 -51 14 q -1 100 -51 100 m 483 100 q 626 163 572 100 q 679 329 679 225 q 664 424 679 381 q 513 457 581 426 q 407 540 446 488 q 319 460 351 517 q 288 326 288 404 q 341 163 288 225 q 483 100 394 100 m 588 611 q 663 646 636 611 q 690 743 690 681 q 686 794 690 768 q 799 801 743 821 q 803 769 801 785 q 804 738 804 753 q 747 569 804 636 q 588 492 689 503 l 588 611 m 397 796 q 326 894 342 831 q 413 963 369 925 q 493 1038 457 1000 q 550 1104 529 1075 q 606 1076 582 1096 q 643 1028 631 1056 q 585 956 624 997 q 499 872 547 914 q 397 796 451 829 z "},"ợ":{"ha":876,"x_min":-51,"x_max":810,"o":"m -1 100 q 88 144 44 100 q 163 261 132 188 q 157 329 157 294 q 200 507 157 429 q 317 630 243 585 q 485 675 392 675 q 651 630 578 675 q 767 507 725 585 q 810 329 810 429 q 767 150 810 229 q 652 26 725 71 q 485 -19 579 -19 q 331 17 400 -19 q 218 118 263 54 q -11 -19 132 -19 q -40 -3 -29 -19 q -51 40 -51 14 q -1 100 -51 100 m 483 100 q 626 163 572 100 q 679 329 679 225 q 664 424 679 381 q 513 457 581 426 q 407 540 446 488 q 319 460 351 517 q 288 326 288 404 q 341 163 288 225 q 483 100 394 100 m 588 611 q 663 646 636 611 q 690 743 690 681 q 686 794 690 768 q 799 801 743 821 q 803 769 801 785 q 804 738 804 753 q 747 569 804 636 q 588 492 689 503 l 588 611 m 485 -393 q 418 -365 446 -393 q 390 -299 390 -337 q 417 -231 390 -257 q 485 -204 444 -204 q 553 -231 526 -204 q 579 -299 579 -257 q 552 -366 579 -339 q 485 -393 525 -393 z "},"ờ":{"ha":876,"x_min":-51,"x_max":810,"o":"m -1 100 q 88 144 44 100 q 163 261 132 188 q 157 329 157 294 q 200 507 157 429 q 317 630 243 585 q 485 675 392 675 q 651 630 578 675 q 767 507 725 585 q 810 329 810 429 q 767 150 810 229 q 652 26 725 71 q 485 -19 579 -19 q 331 17 400 -19 q 218 118 263 54 q -11 -19 132 -19 q -40 -3 -29 -19 q -51 40 -51 14 q -1 100 -51 100 m 483 100 q 626 163 572 100 q 679 329 679 225 q 664 424 679 381 q 513 457 581 426 q 407 540 446 488 q 319 460 351 517 q 288 326 288 404 q 341 163 288 225 q 483 100 394 100 m 588 611 q 663 646 636 611 q 690 743 690 681 q 686 794 690 768 q 799 801 743 821 q 803 769 801 785 q 804 738 804 753 q 747 569 804 636 q 588 492 689 503 l 588 611 m 561 796 q 458 872 508 829 q 369 956 408 914 q 310 1028 331 997 q 347 1076 322 1056 q 404 1104 372 1096 q 463 1038 425 1075 q 545 963 500 1000 q 633 894 590 925 q 606 839 625 865 q 561 796 588 813 z "},"ở":{"ha":876,"x_min":-51,"x_max":810,"o":"m -1 100 q 88 144 44 100 q 163 261 132 188 q 157 329 157 294 q 200 507 157 429 q 317 630 243 585 q 485 675 392 675 q 651 630 578 675 q 767 507 725 585 q 810 329 810 429 q 767 150 810 229 q 652 26 725 71 q 485 -19 579 -19 q 331 17 400 -19 q 218 118 263 54 q -11 -19 132 -19 q -40 -3 -29 -19 q -51 40 -51 14 q -1 100 -51 100 m 483 100 q 626 163 572 100 q 679 329 679 225 q 664 424 679 381 q 513 457 581 426 q 407 540 446 488 q 319 460 351 517 q 288 326 288 404 q 341 163 288 225 q 483 100 394 100 m 588 611 q 663 646 636 611 q 690 743 690 681 q 686 794 690 768 q 799 801 743 821 q 803 769 801 785 q 804 738 804 753 q 747 569 804 636 q 588 492 689 503 l 588 611 m 446 894 q 553 967 553 922 q 471 1013 553 1013 q 397 1004 432 1013 q 335 988 363 996 q 313 1033 321 1006 q 306 1092 304 1061 q 384 1115 340 1106 q 479 1125 428 1125 q 630 1085 579 1125 q 681 971 681 1044 q 625 855 681 901 q 472 796 569 808 q 446 894 443 833 z "},"ỡ":{"ha":876,"x_min":-51,"x_max":810,"o":"m -1 100 q 88 144 44 100 q 163 261 132 188 q 157 329 157 294 q 200 507 157 429 q 317 630 243 585 q 485 675 392 675 q 651 630 578 675 q 767 507 725 585 q 810 329 810 429 q 767 150 810 229 q 652 26 725 71 q 485 -19 579 -19 q 331 17 400 -19 q 218 118 263 54 q -11 -19 132 -19 q -40 -3 -29 -19 q -51 40 -51 14 q -1 100 -51 100 m 483 100 q 626 163 572 100 q 679 329 679 225 q 664 424 679 381 q 513 457 581 426 q 407 540 446 488 q 319 460 351 517 q 288 326 288 404 q 341 163 288 225 q 483 100 394 100 m 588 611 q 663 646 636 611 q 690 743 690 681 q 686 794 690 768 q 799 801 743 821 q 803 769 801 785 q 804 738 804 753 q 747 569 804 636 q 588 492 689 503 l 588 611 m 583 956 q 628 972 614 956 q 661 1019 643 988 q 749 988 718 1019 q 693 883 735 924 q 588 842 651 842 q 547 848 569 842 q 481 876 525 854 q 426 903 451 892 q 381 915 401 915 q 340 899 356 915 q 306 851 325 883 q 256 859 279 853 q 218 883 233 865 q 276 988 231 947 q 381 1028 321 1028 q 438 1017 411 1028 q 493 992 465 1007 q 538 968 514 981 q 583 956 561 956 z "},"õ":{"ha":876,"x_min":-51,"x_max":810,"o":"m -1 100 q 88 144 44 100 q 163 261 132 188 q 157 329 157 294 q 200 507 157 429 q 317 630 243 585 q 485 675 392 675 q 651 630 578 675 q 767 507 725 585 q 810 329 810 429 q 767 150 810 229 q 652 26 725 71 q 485 -19 579 -19 q 331 17 400 -19 q 218 118 263 54 q -11 -19 132 -19 q -40 -3 -29 -19 q -51 40 -51 14 q -1 100 -51 100 m 483 100 q 626 163 572 100 q 679 329 679 225 q 664 424 679 381 q 513 457 581 426 q 407 540 446 488 q 319 460 351 517 q 288 326 288 404 q 341 163 288 225 q 483 100 394 100 m 583 956 q 628 972 614 956 q 661 1019 643 988 q 749 988 718 1019 q 693 883 735 924 q 588 842 651 842 q 547 848 569 842 q 481 876 525 854 q 426 903 451 892 q 381 915 401 915 q 340 899 356 915 q 306 851 325 883 q 256 859 279 853 q 218 883 233 865 q 276 988 231 947 q 381 1028 321 1028 q 438 1017 411 1028 q 493 992 465 1007 q 538 968 514 981 q 583 956 561 956 z "},"œ":{"ha":1157,"x_min":-51,"x_max":1160,"o":"m -1 100 q 88 144 44 100 q 163 261 132 188 q 157 329 157 294 q 199 508 157 429 q 313 631 240 586 q 475 676 385 676 q 619 640 554 676 q 725 540 683 603 q 817 640 760 604 q 949 676 875 676 q 1056 652 1008 676 q 1132 585 1104 628 q 1160 488 1160 542 q 1119 364 1160 417 q 1007 282 1079 311 q 838 253 935 253 q 796 254 818 253 q 878 141 819 183 q 1017 99 938 99 q 1046 82 1035 99 q 1057 39 1057 65 q 1010 -19 1057 -19 q 844 19 915 -19 q 731 128 772 58 q 623 20 690 60 q 474 -19 556 -19 q 326 17 392 -19 q 217 117 260 54 q -11 -19 132 -19 q -40 -3 -29 -19 q -51 40 -51 14 q -1 100 -51 100 m 949 561 q 835 509 879 561 q 785 368 790 457 q 838 364 813 364 q 983 397 928 364 q 1039 481 1039 429 q 1013 538 1039 515 q 949 561 986 561 m 474 100 q 599 151 549 100 q 660 288 650 201 q 570 354 614 310 q 497 452 526 399 q 460 557 467 506 q 334 488 382 550 q 286 329 286 426 q 338 163 286 225 q 474 100 389 100 z "},"p":{"ha":957,"x_min":-51,"x_max":996,"o":"m -7 -19 q -40 -1 -29 -19 q -51 40 -51 18 q -39 82 -51 64 q 1 100 -26 100 q 88 142 49 100 q 160 251 128 185 q 219 393 193 318 q 268 526 242 457 q 313 663 294 596 q 378 668 340 669 q 440 656 415 667 l 449 560 q 649 675 524 675 q 811 603 751 675 q 871 406 871 532 l 871 243 q 891 133 871 167 q 956 100 911 100 q 985 83 975 100 q 996 39 996 67 q 984 -1 996 17 q 946 -19 972 -19 q 744 228 744 -19 l 744 406 q 635 556 744 556 q 546 518 586 556 q 483 419 506 481 q 460 281 460 357 l 460 -511 q 429 -518 446 -515 q 397 -521 413 -521 q 333 -511 364 -521 l 333 371 l 328 356 q 245 160 289 244 q 142 28 201 75 q -7 -19 82 -19 z "},"q":{"ha":961,"x_min":-51,"x_max":783,"o":"m -1 100 q 90 146 44 100 q 165 269 135 192 q 164 311 164 290 q 206 499 164 417 q 319 628 247 581 q 482 675 390 675 q 578 656 531 675 q 657 606 625 638 l 657 663 q 686 669 669 667 q 721 672 703 672 q 783 663 754 672 l 783 -537 q 753 -544 769 -542 q 721 -547 736 -547 q 657 -537 688 -547 l 657 63 q 567 2 618 24 q 457 -19 517 -19 q 315 16 378 -19 q 215 113 253 51 q -11 -19 129 -19 q -40 -3 -29 -19 q -51 40 -51 14 q -1 100 -51 100 m 293 311 q 338 156 293 213 q 463 100 383 100 q 603 160 550 100 q 657 317 657 219 l 657 472 q 586 533 629 510 q 497 556 543 556 q 392 524 438 556 q 319 437 346 492 q 293 311 293 382 z "},"r":{"ha":796,"x_min":-51,"x_max":835,"o":"m -11 -19 q -40 -3 -29 -19 q -51 40 -51 14 q -1 100 -51 100 q 108 151 60 100 q 184 289 156 201 q 213 483 213 376 q 210 529 213 508 q 203 564 207 550 q 176 604 190 576 q 151 663 161 632 q 140 714 140 694 q 194 755 157 740 q 275 763 231 769 q 318 640 301 714 q 431 658 360 642 q 502 672 475 668 q 549 675 529 675 q 667 619 624 675 q 710 467 710 563 l 710 243 q 730 133 710 167 q 794 100 750 100 q 824 83 814 100 q 835 39 835 67 q 823 -1 835 17 q 785 -19 811 -19 q 583 228 583 -19 l 583 443 q 569 531 583 506 q 519 556 556 556 q 492 553 507 556 q 438 542 476 550 q 335 525 369 528 q 336 481 336 503 q 293 218 336 331 q 172 43 250 106 q -11 -19 93 -19 z "},"s":{"ha":843,"x_min":-51,"x_max":781,"o":"m -11 -19 q -40 -3 -29 -19 q -51 40 -51 14 q -1 100 -51 100 q 97 155 43 100 q 224 332 151 210 l 372 583 q 369 625 369 603 q 395 728 369 694 q 438 768 421 761 q 488 767 461 774 q 538 747 515 761 q 568 714 560 733 q 547 654 563 689 q 499 561 532 619 q 524 531 508 546 q 561 497 539 515 l 667 411 q 752 316 724 365 q 781 206 781 267 q 739 75 781 132 q 746 39 746 60 q 733 -3 746 13 q 696 -19 719 -19 q 653 -17 674 -19 q 607 -10 632 -14 q 528 -19 569 -19 q 431 -5 479 -19 q 329 42 382 10 q 385 150 326 115 q 529 100 461 100 q 622 131 588 100 q 657 211 657 163 q 590 325 657 272 l 485 408 q 435 454 457 431 l 296 219 q 149 35 219 90 q -11 -19 79 -19 z "},"ş":{"ha":843,"x_min":-51,"x_max":781,"o":"m -11 -19 q -40 -3 -29 -19 q -51 40 -51 14 q -1 100 -51 100 q 97 155 43 100 q 224 332 151 210 l 372 583 q 369 625 369 603 q 395 728 369 694 q 438 768 421 761 q 488 767 461 774 q 538 747 515 761 q 568 714 560 733 q 547 654 563 689 q 499 561 532 619 q 524 531 508 546 q 561 497 539 515 l 667 411 q 752 316 724 365 q 781 206 781 267 q 739 75 781 132 q 746 39 746 60 q 733 -3 746 13 q 696 -19 719 -19 q 653 -17 674 -19 q 607 -10 632 -14 q 528 -19 569 -19 q 431 -5 479 -19 q 329 42 382 10 q 385 150 326 115 q 529 100 461 100 q 622 131 588 100 q 657 211 657 163 q 590 325 657 272 l 485 408 q 435 454 457 431 l 296 219 q 149 35 219 90 q -11 -19 79 -19 m 500 -361 q 447 -358 474 -361 q 400 -349 419 -354 q 415 -250 383 -293 q 452 -257 431 -254 q 496 -260 474 -260 q 559 -247 536 -260 q 582 -210 582 -235 q 449 -147 582 -157 l 458 10 l 569 10 l 564 -74 q 663 -124 628 -89 q 699 -212 699 -160 q 644 -321 699 -281 q 500 -361 590 -361 z "},"ß":{"ha":1122,"x_min":-51,"x_max":1053,"o":"m -7 -19 q -40 -1 -29 -19 q -51 40 -51 18 q -39 82 -51 64 q 1 100 -26 100 q 88 142 49 100 q 160 251 128 185 q 219 393 193 318 q 268 526 242 457 q 313 663 294 596 q 369 668 336 669 q 426 1035 375 879 q 567 1276 478 1190 q 774 1361 656 1361 q 953 1285 888 1361 q 1019 1083 1019 1210 q 972 880 1019 981 q 838 692 925 779 q 997 543 940 635 q 1053 335 1053 451 q 1032 204 1053 264 q 972 99 1011 144 l 985 99 q 1014 82 1003 99 q 1025 39 1025 65 q 1012 -3 1025 13 q 975 -19 999 -19 q 804 -4 878 -19 q 690 -19 751 -19 q 569 4 625 -19 q 563 63 557 29 q 589 119 568 96 q 644 105 617 110 q 696 100 671 100 q 861 165 800 100 q 922 339 922 229 q 873 503 922 435 q 732 607 824 572 q 658 583 690 583 q 606 608 625 583 q 586 674 586 633 q 618 763 586 731 q 715 742 669 756 q 842 890 794 801 q 890 1076 890 979 q 859 1198 890 1154 q 771 1242 828 1242 q 662 1195 713 1242 q 574 1065 611 1149 q 517 868 538 981 q 496 624 496 756 l 496 -511 q 435 -521 453 -521 q 369 -511 410 -521 l 369 468 l 328 356 q 245 160 289 244 q 142 28 201 75 q -7 -19 82 -19 z "},"t":{"ha":557,"x_min":-51,"x_max":611,"o":"m -1 100 q 78 121 33 100 q 167 192 124 142 q 238 327 210 242 q 265 542 265 413 l 265 675 l 163 675 q 153 731 153 697 q 163 786 153 764 l 265 786 l 265 1032 q 329 1042 292 1042 q 393 1032 363 1042 l 393 786 l 600 786 q 611 731 611 764 q 600 675 611 697 l 393 675 l 393 388 q 435 174 393 249 q 556 100 478 100 q 596 39 596 100 q 583 -3 596 13 q 546 -19 569 -19 q 394 32 456 -19 q 303 175 332 83 q 160 28 244 75 q -11 -19 75 -19 q -40 -2 -29 -19 q -51 40 -51 15 q -39 83 -51 67 q -1 100 -26 100 z "},"u":{"ha":910,"x_min":-51,"x_max":949,"o":"m -1 100 q 61 118 28 100 q 124 174 94 136 q 180 304 164 229 q 196 450 196 379 l 196 656 q 225 663 208 660 q 260 665 242 665 q 322 656 292 665 l 322 335 q 361 159 322 214 q 483 104 400 104 q 682 394 682 104 l 682 656 q 710 663 693 660 q 744 665 726 665 q 808 656 778 665 l 808 256 q 831 141 808 182 q 908 100 854 100 q 940 81 932 100 q 949 39 949 61 q 937 -1 949 17 q 899 -19 925 -19 q 718 97 765 -19 q 618 10 679 40 q 474 -19 557 -19 q 232 131 297 -19 q 182 63 210 90 q 95 3 144 25 q -11 -19 46 -19 q -41 -1 -31 -19 q -51 40 -51 18 q -40 82 -51 64 q -1 100 -28 100 z "},"ú":{"ha":910,"x_min":-51,"x_max":949,"o":"m -1 100 q 61 118 28 100 q 124 174 94 136 q 180 304 164 229 q 196 450 196 379 l 196 656 q 225 663 208 660 q 260 665 242 665 q 322 656 292 665 l 322 335 q 361 159 322 214 q 483 104 400 104 q 682 394 682 104 l 682 656 q 710 663 693 660 q 744 665 726 665 q 808 656 778 665 l 808 256 q 831 141 808 182 q 908 100 854 100 q 940 81 932 100 q 949 39 949 61 q 937 -1 949 17 q 899 -19 925 -19 q 718 97 765 -19 q 618 10 679 40 q 474 -19 557 -19 q 232 131 297 -19 q 182 63 210 90 q 95 3 144 25 q -11 -19 46 -19 q -41 -1 -31 -19 q -51 40 -51 18 q -40 82 -51 64 q -1 100 -28 100 m 417 796 q 346 894 361 831 q 433 963 389 925 q 513 1038 476 1000 q 569 1104 549 1075 q 626 1076 601 1096 q 663 1028 650 1056 q 605 956 643 997 q 519 872 567 914 q 417 796 471 829 z "},"û":{"ha":910,"x_min":-51,"x_max":949,"o":"m -1 100 q 61 118 28 100 q 124 174 94 136 q 180 304 164 229 q 196 450 196 379 l 196 656 q 225 663 208 660 q 260 665 242 665 q 322 656 292 665 l 322 335 q 361 159 322 214 q 483 104 400 104 q 682 394 682 104 l 682 656 q 710 663 693 660 q 744 665 726 665 q 808 656 778 665 l 808 256 q 831 141 808 182 q 908 100 854 100 q 940 81 932 100 q 949 39 949 61 q 937 -1 949 17 q 899 -19 925 -19 q 718 97 765 -19 q 618 10 679 40 q 474 -19 557 -19 q 232 131 297 -19 q 182 63 210 90 q 95 3 144 25 q -11 -19 46 -19 q -41 -1 -31 -19 q -51 40 -51 18 q -40 82 -51 64 q -1 100 -28 100 m 338 796 q 290 829 314 803 q 257 882 265 856 q 353 981 300 922 q 461 1104 407 1039 q 546 1104 504 1111 q 653 981 600 1039 q 750 882 707 924 q 717 829 742 856 q 669 796 693 803 q 619 839 649 811 q 560 901 590 867 q 503 967 529 935 q 414 867 461 917 q 338 796 367 817 z "},"ü":{"ha":910,"x_min":-51,"x_max":949,"o":"m -1 100 q 61 118 28 100 q 124 174 94 136 q 180 304 164 229 q 196 450 196 379 l 196 656 q 225 663 208 660 q 260 665 242 665 q 322 656 292 665 l 322 335 q 361 159 322 214 q 483 104 400 104 q 682 394 682 104 l 682 656 q 710 663 693 660 q 744 665 726 665 q 808 656 778 665 l 808 256 q 831 141 808 182 q 908 100 854 100 q 940 81 932 100 q 949 39 949 61 q 937 -1 949 17 q 899 -19 925 -19 q 718 97 765 -19 q 618 10 679 40 q 474 -19 557 -19 q 232 131 297 -19 q 182 63 210 90 q 95 3 144 25 q -11 -19 46 -19 q -41 -1 -31 -19 q -51 40 -51 18 q -40 82 -51 64 q -1 100 -28 100 m 667 856 q 600 883 628 856 q 572 950 572 911 q 599 1018 572 992 q 667 1044 626 1044 q 735 1018 708 1044 q 761 950 761 992 q 734 883 761 910 q 667 856 707 856 m 342 856 q 275 883 303 856 q 247 950 247 911 q 274 1018 247 992 q 342 1044 301 1044 q 410 1018 383 1044 q 436 950 436 992 q 409 883 436 910 q 342 856 382 856 z "},"ụ":{"ha":910,"x_min":-51,"x_max":949,"o":"m -1 100 q 61 118 28 100 q 124 174 94 136 q 180 304 164 229 q 196 450 196 379 l 196 656 q 225 663 208 660 q 260 665 242 665 q 322 656 292 665 l 322 335 q 361 159 322 214 q 483 104 400 104 q 682 394 682 104 l 682 656 q 710 663 693 660 q 744 665 726 665 q 808 656 778 665 l 808 256 q 831 141 808 182 q 908 100 854 100 q 940 81 932 100 q 949 39 949 61 q 937 -1 949 17 q 899 -19 925 -19 q 718 97 765 -19 q 618 10 679 40 q 474 -19 557 -19 q 232 131 297 -19 q 182 63 210 90 q 95 3 144 25 q -11 -19 46 -19 q -41 -1 -31 -19 q -51 40 -51 18 q -40 82 -51 64 q -1 100 -28 100 m 503 -393 q 436 -365 464 -393 q 408 -299 408 -337 q 435 -231 408 -257 q 503 -204 463 -204 q 571 -231 544 -204 q 597 -299 597 -257 q 570 -366 597 -339 q 503 -393 543 -393 z "},"ù":{"ha":910,"x_min":-51,"x_max":949,"o":"m -1 100 q 61 118 28 100 q 124 174 94 136 q 180 304 164 229 q 196 450 196 379 l 196 656 q 225 663 208 660 q 260 665 242 665 q 322 656 292 665 l 322 335 q 361 159 322 214 q 483 104 400 104 q 682 394 682 104 l 682 656 q 710 663 693 660 q 744 665 726 665 q 808 656 778 665 l 808 256 q 831 141 808 182 q 908 100 854 100 q 940 81 932 100 q 949 39 949 61 q 937 -1 949 17 q 899 -19 925 -19 q 718 97 765 -19 q 618 10 679 40 q 474 -19 557 -19 q 232 131 297 -19 q 182 63 210 90 q 95 3 144 25 q -11 -19 46 -19 q -41 -1 -31 -19 q -51 40 -51 18 q -40 82 -51 64 q -1 100 -28 100 m 581 796 q 478 872 528 829 q 389 956 428 914 q 329 1028 350 997 q 367 1076 342 1056 q 424 1104 392 1096 q 482 1038 444 1075 q 565 963 519 1000 q 653 894 610 925 q 626 839 644 865 q 581 796 607 813 z "},"ủ":{"ha":910,"x_min":-51,"x_max":949,"o":"m -1 100 q 61 118 28 100 q 124 174 94 136 q 180 304 164 229 q 196 450 196 379 l 196 656 q 225 663 208 660 q 260 665 242 665 q 322 656 292 665 l 322 335 q 361 159 322 214 q 483 104 400 104 q 682 394 682 104 l 682 656 q 710 663 693 660 q 744 665 726 665 q 808 656 778 665 l 808 256 q 831 141 808 182 q 908 100 854 100 q 940 81 932 100 q 949 39 949 61 q 937 -1 949 17 q 899 -19 925 -19 q 718 97 765 -19 q 618 10 679 40 q 474 -19 557 -19 q 232 131 297 -19 q 182 63 210 90 q 95 3 144 25 q -11 -19 46 -19 q -41 -1 -31 -19 q -51 40 -51 18 q -40 82 -51 64 q -1 100 -28 100 m 465 894 q 572 967 572 922 q 490 1013 572 1013 q 417 1004 451 1013 q 354 988 382 996 q 332 1033 340 1006 q 325 1092 324 1061 q 403 1115 360 1106 q 499 1125 447 1125 q 649 1085 599 1125 q 700 971 700 1044 q 644 855 700 901 q 492 796 589 808 q 465 894 463 833 z "},"ư":{"ha":910,"x_min":-51,"x_max":999,"o":"m -1 100 q 61 118 28 100 q 124 174 94 136 q 180 304 164 229 q 196 450 196 379 l 196 656 q 225 663 208 660 q 260 665 242 665 q 322 656 292 665 l 322 335 q 361 159 322 214 q 483 104 400 104 q 682 394 682 104 l 682 656 q 710 663 693 660 q 744 665 726 665 q 808 656 778 665 l 808 614 q 885 743 885 633 q 881 794 885 768 q 993 801 938 821 q 997 769 996 785 q 999 738 999 753 q 948 578 999 643 q 808 496 897 513 l 808 256 q 831 141 808 182 q 908 100 854 100 q 940 81 932 100 q 949 39 949 61 q 937 -1 949 17 q 899 -19 925 -19 q 718 97 765 -19 q 618 10 679 40 q 474 -19 557 -19 q 232 131 297 -19 q 182 63 210 90 q 95 3 144 25 q -11 -19 46 -19 q -41 -1 -31 -19 q -51 40 -51 18 q -40 82 -51 64 q -1 100 -28 100 z "},"ứ":{"ha":910,"x_min":-51,"x_max":999,"o":"m -1 100 q 61 118 28 100 q 124 174 94 136 q 180 304 164 229 q 196 450 196 379 l 196 656 q 225 663 208 660 q 260 665 242 665 q 322 656 292 665 l 322 335 q 361 159 322 214 q 483 104 400 104 q 682 394 682 104 l 682 656 q 710 663 693 660 q 744 665 726 665 q 808 656 778 665 l 808 614 q 885 743 885 633 q 881 794 885 768 q 993 801 938 821 q 997 769 996 785 q 999 738 999 753 q 948 578 999 643 q 808 496 897 513 l 808 256 q 831 141 808 182 q 908 100 854 100 q 940 81 932 100 q 949 39 949 61 q 937 -1 949 17 q 899 -19 925 -19 q 718 97 765 -19 q 618 10 679 40 q 474 -19 557 -19 q 232 131 297 -19 q 182 63 210 90 q 95 3 144 25 q -11 -19 46 -19 q -41 -1 -31 -19 q -51 40 -51 18 q -40 82 -51 64 q -1 100 -28 100 m 417 796 q 346 894 361 831 q 433 963 389 925 q 513 1038 476 1000 q 569 1104 549 1075 q 626 1076 601 1096 q 663 1028 650 1056 q 605 956 643 997 q 519 872 567 914 q 417 796 471 829 z "},"ự":{"ha":910,"x_min":-51,"x_max":999,"o":"m -1 100 q 61 118 28 100 q 124 174 94 136 q 180 304 164 229 q 196 450 196 379 l 196 656 q 225 663 208 660 q 260 665 242 665 q 322 656 292 665 l 322 335 q 361 159 322 214 q 483 104 400 104 q 682 394 682 104 l 682 656 q 710 663 693 660 q 744 665 726 665 q 808 656 778 665 l 808 614 q 885 743 885 633 q 881 794 885 768 q 993 801 938 821 q 997 769 996 785 q 999 738 999 753 q 948 578 999 643 q 808 496 897 513 l 808 256 q 831 141 808 182 q 908 100 854 100 q 940 81 932 100 q 949 39 949 61 q 937 -1 949 17 q 899 -19 925 -19 q 718 97 765 -19 q 618 10 679 40 q 474 -19 557 -19 q 232 131 297 -19 q 182 63 210 90 q 95 3 144 25 q -11 -19 46 -19 q -41 -1 -31 -19 q -51 40 -51 18 q -40 82 -51 64 q -1 100 -28 100 m 503 -393 q 436 -365 464 -393 q 408 -299 408 -337 q 435 -231 408 -257 q 503 -204 463 -204 q 571 -231 544 -204 q 597 -299 597 -257 q 570 -366 597 -339 q 503 -393 543 -393 z "},"ừ":{"ha":910,"x_min":-51,"x_max":999,"o":"m -1 100 q 61 118 28 100 q 124 174 94 136 q 180 304 164 229 q 196 450 196 379 l 196 656 q 225 663 208 660 q 260 665 242 665 q 322 656 292 665 l 322 335 q 361 159 322 214 q 483 104 400 104 q 682 394 682 104 l 682 656 q 710 663 693 660 q 744 665 726 665 q 808 656 778 665 l 808 614 q 885 743 885 633 q 881 794 885 768 q 993 801 938 821 q 997 769 996 785 q 999 738 999 753 q 948 578 999 643 q 808 496 897 513 l 808 256 q 831 141 808 182 q 908 100 854 100 q 940 81 932 100 q 949 39 949 61 q 937 -1 949 17 q 899 -19 925 -19 q 718 97 765 -19 q 618 10 679 40 q 474 -19 557 -19 q 232 131 297 -19 q 182 63 210 90 q 95 3 144 25 q -11 -19 46 -19 q -41 -1 -31 -19 q -51 40 -51 18 q -40 82 -51 64 q -1 100 -28 100 m 581 796 q 478 872 528 829 q 389 956 428 914 q 329 1028 350 997 q 367 1076 342 1056 q 424 1104 392 1096 q 482 1038 444 1075 q 565 963 519 1000 q 653 894 610 925 q 626 839 644 865 q 581 796 607 813 z "},"ử":{"ha":910,"x_min":-51,"x_max":999,"o":"m -1 100 q 61 118 28 100 q 124 174 94 136 q 180 304 164 229 q 196 450 196 379 l 196 656 q 225 663 208 660 q 260 665 242 665 q 322 656 292 665 l 322 335 q 361 159 322 214 q 483 104 400 104 q 682 394 682 104 l 682 656 q 710 663 693 660 q 744 665 726 665 q 808 656 778 665 l 808 614 q 885 743 885 633 q 881 794 885 768 q 993 801 938 821 q 997 769 996 785 q 999 738 999 753 q 948 578 999 643 q 808 496 897 513 l 808 256 q 831 141 808 182 q 908 100 854 100 q 940 81 932 100 q 949 39 949 61 q 937 -1 949 17 q 899 -19 925 -19 q 718 97 765 -19 q 618 10 679 40 q 474 -19 557 -19 q 232 131 297 -19 q 182 63 210 90 q 95 3 144 25 q -11 -19 46 -19 q -41 -1 -31 -19 q -51 40 -51 18 q -40 82 -51 64 q -1 100 -28 100 m 465 894 q 572 967 572 922 q 490 1013 572 1013 q 417 1004 451 1013 q 354 988 382 996 q 332 1033 340 1006 q 325 1092 324 1061 q 403 1115 360 1106 q 499 1125 447 1125 q 649 1085 599 1125 q 700 971 700 1044 q 644 855 700 901 q 492 796 589 808 q 465 894 463 833 z "},"ữ":{"ha":910,"x_min":-51,"x_max":999,"o":"m -1 100 q 61 118 28 100 q 124 174 94 136 q 180 304 164 229 q 196 450 196 379 l 196 656 q 225 663 208 660 q 260 665 242 665 q 322 656 292 665 l 322 335 q 361 159 322 214 q 483 104 400 104 q 682 394 682 104 l 682 656 q 710 663 693 660 q 744 665 726 665 q 808 656 778 665 l 808 614 q 885 743 885 633 q 881 794 885 768 q 993 801 938 821 q 997 769 996 785 q 999 738 999 753 q 948 578 999 643 q 808 496 897 513 l 808 256 q 831 141 808 182 q 908 100 854 100 q 940 81 932 100 q 949 39 949 61 q 937 -1 949 17 q 899 -19 925 -19 q 718 97 765 -19 q 618 10 679 40 q 474 -19 557 -19 q 232 131 297 -19 q 182 63 210 90 q 95 3 144 25 q -11 -19 46 -19 q -41 -1 -31 -19 q -51 40 -51 18 q -40 82 -51 64 q -1 100 -28 100 m 603 956 q 648 972 633 956 q 681 1019 663 988 q 768 988 738 1019 q 713 883 754 924 q 607 842 671 842 q 567 848 589 842 q 500 876 544 854 q 446 903 471 892 q 400 915 421 915 q 360 899 375 915 q 325 851 344 883 q 276 859 299 853 q 238 883 253 865 q 295 988 250 947 q 400 1028 340 1028 q 458 1017 431 1028 q 513 992 485 1007 q 557 968 533 981 q 603 956 581 956 z "},"ũ":{"ha":910,"x_min":-51,"x_max":949,"o":"m -1 100 q 61 118 28 100 q 124 174 94 136 q 180 304 164 229 q 196 450 196 379 l 196 656 q 225 663 208 660 q 260 665 242 665 q 322 656 292 665 l 322 335 q 361 159 322 214 q 483 104 400 104 q 682 394 682 104 l 682 656 q 710 663 693 660 q 744 665 726 665 q 808 656 778 665 l 808 256 q 831 141 808 182 q 908 100 854 100 q 940 81 932 100 q 949 39 949 61 q 937 -1 949 17 q 899 -19 925 -19 q 718 97 765 -19 q 618 10 679 40 q 474 -19 557 -19 q 232 131 297 -19 q 182 63 210 90 q 95 3 144 25 q -11 -19 46 -19 q -41 -1 -31 -19 q -51 40 -51 18 q -40 82 -51 64 q -1 100 -28 100 m 603 956 q 648 972 633 956 q 681 1019 663 988 q 768 988 738 1019 q 713 883 754 924 q 607 842 671 842 q 567 848 589 842 q 500 876 544 854 q 446 903 471 892 q 400 915 421 915 q 360 899 375 915 q 325 851 344 883 q 276 859 299 853 q 238 883 253 865 q 295 988 250 947 q 400 1028 340 1028 q 458 1017 431 1028 q 513 992 485 1007 q 557 968 533 981 q 603 956 581 956 z "},"v":{"ha":1113,"x_min":-51,"x_max":1013,"o":"m -11 -19 q -40 -3 -29 -19 q -51 40 -51 14 q -1 100 -51 100 q 78 145 43 100 q 140 296 114 190 l 182 458 q 404 675 240 675 q 530 617 478 675 q 582 461 582 560 l 582 251 q 671 100 582 100 q 776 146 728 100 q 855 266 825 192 q 885 425 885 340 q 885 447 885 436 q 783 514 819 472 q 807 595 788 558 q 855 653 826 632 q 910 675 883 675 q 984 608 956 675 q 1013 436 1013 540 q 966 203 1013 307 q 839 40 919 100 q 657 -19 758 -19 q 510 47 564 -19 q 456 225 456 113 l 456 443 q 438 530 456 504 q 393 556 419 556 q 343 529 364 556 q 307 444 322 503 l 256 244 q 156 44 219 107 q -11 -19 92 -19 z "},"w":{"ha":1428,"x_min":-51,"x_max":1328,"o":"m -11 -19 q -40 -3 -29 -19 q -51 40 -51 14 q -1 100 -51 100 q 78 145 43 100 q 140 296 114 190 l 182 458 q 404 675 240 675 q 534 617 486 675 q 582 467 582 560 l 582 297 q 608 148 582 196 q 688 100 633 100 q 790 175 757 100 q 824 379 824 250 l 824 463 q 852 469 836 467 q 885 472 868 472 q 947 463 919 472 l 947 379 q 976 167 947 233 q 1063 100 1004 100 q 1140 142 1110 100 q 1186 259 1171 185 q 1201 431 1201 333 q 1201 447 1201 439 q 1101 514 1133 472 q 1126 592 1107 556 q 1172 652 1144 629 q 1228 675 1200 675 q 1300 608 1272 675 q 1328 436 1328 542 q 1297 199 1328 301 q 1206 38 1267 96 q 1058 -19 1146 -19 q 956 10 1001 -19 q 882 93 910 39 q 796 10 849 40 q 678 -19 743 -19 q 514 60 572 -19 q 456 282 456 139 l 456 443 q 441 526 456 496 q 393 556 426 556 q 343 529 364 556 q 307 444 322 503 l 256 244 q 156 44 219 107 q -11 -19 92 -19 z "},"x":{"ha":1114,"x_min":-51,"x_max":1093,"o":"m -1 100 q 103 154 61 100 q 178 288 144 208 l 272 506 q 375 640 317 606 q 499 675 433 675 q 622 641 565 675 q 715 549 678 607 q 810 641 753 607 q 938 675 867 675 q 1024 664 981 675 q 1093 635 1067 653 q 1081 577 1093 608 q 1054 531 1069 546 q 994 549 1021 543 q 944 556 968 556 q 825 497 871 556 q 779 346 779 439 q 804 218 779 274 q 873 131 829 163 q 974 99 917 99 q 1003 82 992 99 q 1014 38 1014 65 q 1001 -4 1014 11 q 964 -19 988 -19 q 811 17 876 -19 q 708 121 746 53 q 599 19 664 57 q 460 -19 535 -19 q 357 -2 410 -19 q 276 42 304 15 q 293 103 278 74 q 332 146 308 132 q 456 100 396 100 q 608 186 553 100 q 653 339 653 251 q 631 448 653 399 q 574 526 610 497 q 494 556 539 556 q 432 535 460 556 q 382 463 404 515 l 278 219 q 216 103 253 158 q 124 15 179 49 q -11 -19 68 -19 q -41 -1 -31 -19 q -51 40 -51 18 q -40 82 -51 64 q -1 100 -28 100 z "},"y":{"ha":986,"x_min":-51,"x_max":808,"o":"m -1 100 q 61 118 28 100 q 124 174 94 136 q 180 304 164 229 q 196 450 196 379 l 196 656 q 225 663 208 660 q 260 665 242 665 q 322 656 292 665 l 322 335 q 490 104 322 104 q 635 184 589 104 q 682 403 682 264 l 682 656 q 744 665 711 665 q 808 656 779 665 l 808 -389 q 571 -714 808 -714 q 399 -649 461 -714 q 338 -469 338 -583 q 685 7 338 -215 l 685 72 q 474 -19 606 -19 q 231 129 297 -19 q 182 63 208 89 q 95 3 144 25 q -11 -19 46 -19 q -41 -1 -31 -19 q -51 40 -51 18 q -40 82 -51 64 q -1 100 -28 100 m 463 -467 q 490 -560 463 -526 q 567 -594 518 -594 q 685 -389 685 -594 l 685 -140 q 463 -467 463 -297 z "},"ý":{"ha":986,"x_min":-51,"x_max":808,"o":"m -1 100 q 61 118 28 100 q 124 174 94 136 q 180 304 164 229 q 196 450 196 379 l 196 656 q 225 663 208 660 q 260 665 242 665 q 322 656 292 665 l 322 335 q 490 104 322 104 q 635 184 589 104 q 682 403 682 264 l 682 656 q 744 665 711 665 q 808 656 779 665 l 808 -389 q 571 -714 808 -714 q 399 -649 461 -714 q 338 -469 338 -583 q 685 7 338 -215 l 685 72 q 474 -19 606 -19 q 231 129 297 -19 q 182 63 208 89 q 95 3 144 25 q -11 -19 46 -19 q -41 -1 -31 -19 q -51 40 -51 18 q -40 82 -51 64 q -1 100 -28 100 m 463 -467 q 490 -560 463 -526 q 567 -594 518 -594 q 685 -389 685 -594 l 685 -140 q 463 -467 463 -297 m 415 796 q 344 894 360 831 q 431 963 388 925 q 511 1038 475 1000 q 568 1104 547 1075 q 624 1076 600 1096 q 661 1028 649 1056 q 603 956 642 997 q 517 872 565 914 q 415 796 469 829 z "},"ỵ":{"ha":986,"x_min":-51,"x_max":1051,"o":"m -1 100 q 61 118 28 100 q 124 174 94 136 q 180 304 164 229 q 196 450 196 379 l 196 656 q 225 663 208 660 q 260 665 242 665 q 322 656 292 665 l 322 335 q 490 104 322 104 q 635 184 589 104 q 682 403 682 264 l 682 656 q 744 665 711 665 q 808 656 779 665 l 808 -389 q 571 -714 808 -714 q 399 -649 461 -714 q 338 -469 338 -583 q 685 7 338 -215 l 685 72 q 474 -19 606 -19 q 231 129 297 -19 q 182 63 208 89 q 95 3 144 25 q -11 -19 46 -19 q -41 -1 -31 -19 q -51 40 -51 18 q -40 82 -51 64 q -1 100 -28 100 m 463 -467 q 490 -560 463 -526 q 567 -594 518 -594 q 685 -389 685 -594 l 685 -140 q 463 -467 463 -297 m 957 -393 q 890 -365 918 -393 q 863 -299 863 -337 q 890 -231 863 -257 q 957 -204 917 -204 q 1025 -231 999 -204 q 1051 -299 1051 -257 q 1024 -366 1051 -339 q 957 -393 997 -393 z "},"ỳ":{"ha":986,"x_min":-51,"x_max":808,"o":"m -1 100 q 61 118 28 100 q 124 174 94 136 q 180 304 164 229 q 196 450 196 379 l 196 656 q 225 663 208 660 q 260 665 242 665 q 322 656 292 665 l 322 335 q 490 104 322 104 q 635 184 589 104 q 682 403 682 264 l 682 656 q 744 665 711 665 q 808 656 779 665 l 808 -389 q 571 -714 808 -714 q 399 -649 461 -714 q 338 -469 338 -583 q 685 7 338 -215 l 685 72 q 474 -19 606 -19 q 231 129 297 -19 q 182 63 208 89 q 95 3 144 25 q -11 -19 46 -19 q -41 -1 -31 -19 q -51 40 -51 18 q -40 82 -51 64 q -1 100 -28 100 m 463 -467 q 490 -560 463 -526 q 567 -594 518 -594 q 685 -389 685 -594 l 685 -140 q 463 -467 463 -297 m 579 796 q 476 872 526 829 q 388 956 426 914 q 328 1028 349 997 q 365 1076 340 1056 q 422 1104 390 1096 q 481 1038 443 1075 q 563 963 518 1000 q 651 894 608 925 q 624 839 643 865 q 579 796 606 813 z "},"ỷ":{"ha":986,"x_min":-51,"x_max":808,"o":"m -1 100 q 61 118 28 100 q 124 174 94 136 q 180 304 164 229 q 196 450 196 379 l 196 656 q 225 663 208 660 q 260 665 242 665 q 322 656 292 665 l 322 335 q 490 104 322 104 q 635 184 589 104 q 682 403 682 264 l 682 656 q 744 665 711 665 q 808 656 779 665 l 808 -389 q 571 -714 808 -714 q 399 -649 461 -714 q 338 -469 338 -583 q 685 7 338 -215 l 685 72 q 474 -19 606 -19 q 231 129 297 -19 q 182 63 208 89 q 95 3 144 25 q -11 -19 46 -19 q -41 -1 -31 -19 q -51 40 -51 18 q -40 82 -51 64 q -1 100 -28 100 m 463 -467 q 490 -560 463 -526 q 567 -594 518 -594 q 685 -389 685 -594 l 685 -140 q 463 -467 463 -297 m 464 894 q 571 967 571 922 q 489 1013 571 1013 q 415 1004 450 1013 q 353 988 381 996 q 331 1033 339 1006 q 324 1092 322 1061 q 402 1115 358 1106 q 497 1125 446 1125 q 648 1085 597 1125 q 699 971 699 1044 q 643 855 699 901 q 490 796 588 808 q 464 894 461 833 z "},"ỹ":{"ha":986,"x_min":-51,"x_max":808,"o":"m -1 100 q 61 118 28 100 q 124 174 94 136 q 180 304 164 229 q 196 450 196 379 l 196 656 q 225 663 208 660 q 260 665 242 665 q 322 656 292 665 l 322 335 q 490 104 322 104 q 635 184 589 104 q 682 403 682 264 l 682 656 q 744 665 711 665 q 808 656 779 665 l 808 -389 q 571 -714 808 -714 q 399 -649 461 -714 q 338 -469 338 -583 q 685 7 338 -215 l 685 72 q 474 -19 606 -19 q 231 129 297 -19 q 182 63 208 89 q 95 3 144 25 q -11 -19 46 -19 q -41 -1 -31 -19 q -51 40 -51 18 q -40 82 -51 64 q -1 100 -28 100 m 463 -467 q 490 -560 463 -526 q 567 -594 518 -594 q 685 -389 685 -594 l 685 -140 q 463 -467 463 -297 m 601 956 q 647 972 632 956 q 679 1019 661 988 q 767 988 736 1019 q 711 883 753 924 q 606 842 669 842 q 565 848 588 842 q 499 876 543 854 q 444 903 469 892 q 399 915 419 915 q 358 899 374 915 q 324 851 343 883 q 274 859 297 853 q 236 883 251 865 q 294 988 249 947 q 399 1028 339 1028 q 456 1017 429 1028 q 511 992 483 1007 q 556 968 532 981 q 601 956 579 956 z "},"z":{"ha":965,"x_min":-51,"x_max":889,"o":"m -11 -19 q -40 -3 -29 -19 q -51 40 -51 14 q -1 100 -51 100 q 108 151 60 100 q 184 289 156 201 q 213 483 213 376 q 210 529 213 508 q 203 564 207 550 q 176 604 190 576 q 151 663 161 632 q 140 714 140 694 q 194 755 157 740 q 275 763 231 769 q 313 665 297 722 q 517 643 401 643 q 638 649 576 643 q 736 664 699 654 q 785 629 767 654 q 810 569 804 604 l 583 225 q 635 232 610 232 q 771 168 714 232 q 858 -13 828 104 q 889 -294 889 -131 q 827 -612 889 -510 q 631 -714 765 -714 q 474 -649 535 -714 q 413 -482 413 -585 q 493 -223 413 -354 q 722 28 574 -92 q 613 119 686 119 q 543 97 576 119 q 469 19 510 74 l 444 -15 q 385 11 413 -8 q 346 57 357 31 l 653 533 q 581 528 619 531 q 519 526 542 526 q 333 542 410 526 q 336 481 336 511 q 293 218 336 331 q 172 43 250 106 q -11 -19 93 -19 m 535 -468 q 562 -562 535 -528 q 636 -597 589 -597 q 733 -527 704 -597 q 761 -293 761 -457 q 751 -99 761 -179 q 535 -468 535 -285 z "}," ":{"ha":421,"x_min":0,"x_max":0,"o":""}," ":{"ha":421,"x_min":0,"x_max":0,"o":""},".":{"ha":404,"x_min":100,"x_max":290,"o":"m 194 -19 q 128 9 156 -19 q 100 76 100 38 q 128 143 100 115 q 194 171 156 171 q 262 143 233 171 q 290 76 290 115 q 262 9 290 38 q 194 -19 233 -19 z "},",":{"ha":419,"x_min":44,"x_max":286,"o":"m 107 -308 q 67 -273 88 -297 q 44 -225 47 -249 q 126 -142 93 -193 q 158 -24 158 -92 q 125 100 158 32 q 181 133 144 121 q 250 146 217 146 q 276 77 265 117 q 286 -12 286 38 q 241 -183 286 -103 q 107 -308 196 -264 z "},":":{"ha":406,"x_min":100,"x_max":292,"o":"m 196 -19 q 129 9 157 -19 q 101 76 101 38 q 129 143 101 115 q 196 171 157 171 q 263 143 235 171 q 292 76 292 115 q 263 9 292 38 q 196 -19 235 -19 m 194 371 q 128 399 156 371 q 100 467 100 428 q 128 533 100 506 q 194 561 156 561 q 262 533 233 561 q 290 467 290 506 q 262 399 290 428 q 194 371 233 371 z "},";":{"ha":400,"x_min":44,"x_max":286,"o":"m 107 -308 q 67 -273 88 -297 q 44 -225 47 -249 q 126 -142 93 -193 q 158 -24 158 -92 q 125 100 158 32 q 181 133 144 121 q 250 146 217 146 q 276 77 265 117 q 286 -12 286 38 q 241 -183 286 -103 q 107 -308 196 -264 m 186 371 q 119 399 147 371 q 92 467 92 428 q 119 533 92 506 q 186 561 147 561 q 253 533 225 561 q 282 467 282 506 q 253 399 282 428 q 186 371 225 371 z "},"…":{"ha":1157,"x_min":100,"x_max":1043,"o":"m 194 -19 q 128 9 156 -19 q 100 76 100 38 q 128 143 100 115 q 194 171 156 171 q 262 143 233 171 q 290 76 290 115 q 262 9 290 38 q 194 -19 233 -19 m 571 -19 q 504 9 532 -19 q 476 76 476 38 q 504 143 476 115 q 571 171 532 171 q 638 143 610 171 q 667 76 667 115 q 638 9 667 38 q 571 -19 610 -19 m 947 -19 q 881 9 908 -19 q 853 76 853 38 q 881 143 853 115 q 947 171 908 171 q 1015 143 986 171 q 1043 76 1043 115 q 1015 9 1043 38 q 947 -19 986 -19 z "},"!":{"ha":471,"x_min":143,"x_max":333,"o":"m 242 331 q 208 332 225 331 q 175 336 192 333 l 175 989 q 208 994 192 992 q 242 996 225 996 q 273 994 257 996 q 306 989 289 992 l 306 336 q 273 332 289 333 q 242 331 257 331 m 238 -19 q 171 9 199 -19 q 143 76 143 38 q 171 143 143 115 q 238 171 199 171 q 305 143 276 171 q 333 76 333 115 q 305 9 333 38 q 238 -19 276 -19 z "},"¡":{"ha":471,"x_min":143,"x_max":333,"o":"m 242 322 q 273 321 257 322 q 306 317 289 319 l 306 -336 q 273 -341 289 -339 q 242 -343 257 -343 q 208 -341 225 -343 q 175 -336 192 -339 l 175 317 q 208 321 192 319 q 242 322 225 322 m 238 672 q 305 644 276 672 q 333 576 333 617 q 305 510 333 538 q 238 482 276 482 q 171 510 199 482 q 143 576 143 538 q 171 644 143 617 q 238 672 199 672 z "},"?":{"ha":696,"x_min":56,"x_max":626,"o":"m 329 329 q 264 338 297 329 l 264 394 q 295 511 264 469 q 371 579 326 553 l 410 603 q 477 665 458 633 q 496 735 496 696 q 456 840 496 799 q 342 882 415 882 q 235 849 281 882 q 176 767 189 817 q 56 803 115 768 q 98 895 64 849 q 193 974 132 942 q 343 1006 254 1006 q 508 965 446 1006 q 598 865 569 925 q 626 743 626 804 q 608 634 626 678 q 556 560 589 590 q 479 504 522 531 l 447 483 q 406 447 417 465 q 394 388 394 429 l 394 338 q 329 329 364 329 m 326 -19 q 260 9 288 -19 q 232 76 232 38 q 260 143 232 115 q 326 171 288 171 q 394 143 365 171 q 422 76 422 115 q 394 9 422 38 q 326 -19 365 -19 z "},"¿":{"ha":649,"x_min":60,"x_max":631,"o":"m 357 324 q 422 315 389 324 l 422 258 q 391 142 422 183 q 315 74 360 100 l 276 50 q 210 -11 229 19 q 190 -82 190 -42 q 231 -187 190 -146 q 344 -229 271 -229 q 451 -197 406 -229 q 510 -114 497 -164 q 631 -150 571 -115 q 588 -242 622 -194 q 493 -321 554 -289 q 343 -353 432 -353 q 179 -312 242 -353 q 88 -211 117 -272 q 60 -90 60 -150 q 78 19 60 -24 q 131 93 97 63 q 207 149 164 124 l 239 169 q 281 206 269 188 q 292 265 292 224 l 292 315 q 357 324 324 324 m 360 672 q 426 644 399 672 q 454 576 454 617 q 426 510 454 538 q 360 482 399 482 q 292 510 321 482 q 264 576 264 538 q 292 644 264 617 q 360 672 321 672 z "},"·":{"ha":404,"x_min":100,"x_max":290,"o":"m 194 326 q 128 355 156 326 q 100 422 100 383 q 128 489 100 461 q 194 517 156 517 q 262 489 233 517 q 290 422 290 461 q 262 355 290 383 q 194 326 233 326 z "},"•":{"ha":483,"x_min":100,"x_max":369,"o":"m 233 363 q 139 401 178 363 q 100 496 100 440 q 139 592 100 551 q 233 632 178 632 q 301 613 269 632 q 351 564 332 594 q 369 496 369 533 q 328 401 369 440 q 233 363 288 363 z "},"*":{"ha":643,"x_min":69,"x_max":574,"o":"m 321 481 q 299 483 311 481 q 275 492 286 486 l 275 672 l 114 583 q 84 620 96 599 q 69 668 72 642 l 225 753 l 69 839 q 83 885 72 863 q 117 921 94 907 l 275 833 l 275 1013 q 299 1017 286 1015 q 322 1018 311 1018 q 345 1017 333 1018 q 369 1013 357 1015 l 369 833 l 528 921 q 562 884 551 906 q 574 839 572 863 l 419 753 l 574 668 q 562 621 574 642 q 531 583 550 600 l 369 672 l 369 492 q 344 483 357 486 q 321 481 332 481 z "},"#":{"ha":1271,"x_min":83,"x_max":1189,"o":"m 90 218 q 84 274 85 249 q 90 329 83 300 l 286 329 l 369 626 l 194 626 q 188 683 189 657 q 194 738 188 708 l 400 738 l 478 1015 q 546 1011 508 1021 q 601 983 583 1001 l 533 738 l 867 738 l 943 1014 q 1011 1010 974 1019 q 1067 982 1049 1000 l 1000 738 l 1182 738 q 1188 683 1189 715 q 1182 626 1188 650 l 969 626 l 888 329 l 1078 329 q 1084 274 1085 307 q 1078 218 1083 242 l 857 218 l 794 -12 q 725 -8 763 -18 q 668 21 688 1 l 722 218 l 390 218 l 326 -11 q 251 -7 288 -17 q 200 22 215 3 l 254 218 l 90 218 m 421 329 l 753 329 l 836 626 l 503 626 l 421 329 z "},"/":{"ha":600,"x_min":42,"x_max":558,"o":"m 153 -14 q 89 -3 115 -14 q 42 28 63 8 l 449 1017 q 510 1007 476 1019 q 558 978 544 994 l 153 -14 z "},"\\":{"ha":582,"x_min":24,"x_max":540,"o":"m 429 -14 l 24 978 q 73 1007 39 994 q 133 1017 107 1019 l 540 28 q 493 -3 519 8 q 429 -14 467 -14 z "},"-":{"ha":658,"x_min":119,"x_max":536,"o":"m 131 333 q 119 399 119 361 q 131 463 119 438 l 525 463 q 536 399 536 438 q 525 333 536 361 l 131 333 z "},"–":{"ha":494,"x_min":-7,"x_max":501,"o":"m 0 347 q -6 403 -6 378 q 0 458 -7 429 l 494 458 q 501 403 501 436 q 494 347 500 371 l 0 347 z "},"—":{"ha":988,"x_min":-7,"x_max":994,"o":"m 0 347 q -6 403 -6 378 q 0 458 -7 429 l 988 458 q 994 403 994 436 q 988 347 993 371 l 0 347 z "},"_":{"ha":988,"x_min":-7,"x_max":994,"o":"m 0 -111 q -6 -55 -6 -81 q 0 0 -7 -29 l 988 0 q 994 -55 994 -22 q 988 -111 993 -87 l 0 -111 z "},"(":{"ha":635,"x_min":97,"x_max":607,"o":"m 533 -367 q 301 -151 399 -283 q 150 147 203 -19 q 97 501 97 314 q 149 852 97 688 q 299 1149 201 1017 q 533 1369 396 1282 q 578 1342 557 1368 q 607 1283 600 1317 q 322 942 414 1133 q 229 501 229 750 q 322 61 229 253 q 607 -281 414 -131 q 584 -335 606 -310 q 533 -367 563 -360 z "},")":{"ha":635,"x_min":28,"x_max":538,"o":"m 101 -367 q 51 -335 72 -360 q 28 -281 29 -310 q 313 61 221 -131 q 406 501 406 253 q 313 942 406 750 q 28 1283 221 1133 q 57 1342 35 1317 q 101 1369 79 1368 q 337 1149 239 1282 q 486 852 435 1017 q 538 501 538 688 q 485 147 538 314 q 335 -151 432 -19 q 101 -367 238 -283 z "},"{":{"ha":657,"x_min":68,"x_max":631,"o":"m 550 -360 q 340 -283 407 -360 q 274 -51 274 -207 l 274 233 q 242 398 274 353 q 129 443 211 443 l 82 443 q 69 502 71 467 q 82 561 68 538 l 129 561 q 242 607 211 561 q 274 771 274 653 l 274 1056 q 340 1288 274 1211 q 550 1364 407 1364 q 622 1356 588 1364 q 628 1298 631 1332 q 615 1240 626 1264 q 583 1244 601 1243 q 550 1246 565 1246 q 428 1198 465 1246 q 392 1022 392 1150 l 392 738 q 372 597 392 656 q 304 507 353 539 q 371 409 350 471 q 392 267 392 347 l 392 -18 q 428 -193 392 -144 q 550 -242 465 -242 q 583 -240 565 -242 q 615 -236 601 -237 q 628 -293 626 -258 q 622 -351 631 -328 q 550 -360 588 -360 z "},"}":{"ha":657,"x_min":26,"x_max":589,"o":"m 107 -360 q 35 -351 71 -360 q 29 -293 26 -328 q 42 -236 32 -258 q 74 -240 57 -237 q 107 -242 92 -242 q 229 -193 193 -242 q 265 -18 265 -144 l 265 267 q 286 409 265 347 q 353 507 307 471 q 285 597 304 539 q 265 738 265 656 l 265 1022 q 229 1198 265 1150 q 107 1246 193 1246 q 74 1244 92 1246 q 42 1240 57 1243 q 29 1298 32 1264 q 35 1356 26 1332 q 107 1364 71 1364 q 317 1288 250 1364 q 383 1056 383 1211 l 383 771 q 415 607 383 653 q 528 561 446 561 l 575 561 q 588 502 589 538 q 575 443 586 467 l 528 443 q 415 398 446 443 q 383 233 383 353 l 383 -51 q 317 -283 383 -207 q 107 -360 250 -360 z "},"[":{"ha":614,"x_min":153,"x_max":599,"o":"m 153 -357 l 153 1350 l 578 1350 q 588 1289 588 1322 q 578 1232 588 1256 l 278 1232 l 278 -239 l 578 -239 q 578 -357 599 -296 l 153 -357 z "},"]":{"ha":614,"x_min":15,"x_max":461,"o":"m 461 -357 l 36 -357 q 36 -239 15 -296 l 336 -239 l 336 1232 l 36 1232 q 26 1289 26 1256 q 36 1350 26 1322 l 461 1350 l 461 -357 z "},"‚":{"ha":351,"x_min":69,"x_max":282,"o":"m 144 -339 q 101 -309 122 -328 q 69 -267 81 -290 q 136 -175 114 -217 q 158 -90 158 -133 q 131 0 158 -40 q 79 65 104 40 q 128 116 94 92 q 194 149 161 140 q 260 51 238 110 q 282 -69 282 -8 q 249 -211 282 -142 q 144 -339 215 -281 z "},"„":{"ha":632,"x_min":69,"x_max":563,"o":"m 144 -339 q 101 -309 122 -328 q 69 -267 81 -290 q 136 -175 114 -217 q 158 -90 158 -133 q 131 0 158 -40 q 79 65 104 40 q 128 116 94 92 q 194 149 161 140 q 260 51 238 110 q 282 -69 282 -8 q 249 -211 282 -142 q 144 -339 215 -281 m 425 -339 q 382 -309 403 -328 q 350 -267 361 -290 q 417 -175 394 -217 q 439 -90 439 -133 q 412 0 439 -40 q 360 65 385 40 q 408 116 375 92 q 475 149 442 140 q 540 51 518 110 q 563 -69 563 -8 q 529 -211 563 -142 q 425 -339 496 -281 z "},"“":{"ha":632,"x_min":69,"x_max":563,"o":"m 488 1246 q 531 1217 510 1236 q 563 1174 553 1197 q 497 1083 519 1124 q 474 997 474 1042 q 501 907 474 947 q 553 842 528 867 q 505 791 539 815 q 438 758 471 767 q 372 857 394 799 q 350 976 350 915 q 383 1119 350 1050 q 488 1246 417 1188 m 207 1246 q 251 1217 229 1236 q 282 1174 272 1197 q 216 1083 239 1124 q 193 997 193 1042 q 220 907 193 947 q 272 842 247 867 q 224 791 258 815 q 157 758 190 767 q 92 857 114 799 q 69 976 69 915 q 103 1119 69 1050 q 207 1246 136 1188 z "},"”":{"ha":632,"x_min":69,"x_max":563,"o":"m 144 758 q 101 788 122 769 q 69 831 81 807 q 136 922 114 881 q 158 1007 158 964 q 131 1097 158 1057 q 79 1163 104 1138 q 128 1213 94 1189 q 194 1246 161 1238 q 260 1148 238 1207 q 282 1028 282 1089 q 249 886 282 956 q 144 758 215 817 m 425 758 q 382 788 403 769 q 350 831 361 807 q 417 922 394 881 q 439 1007 439 964 q 412 1097 439 1057 q 360 1163 385 1138 q 408 1213 375 1189 q 475 1246 442 1238 q 540 1148 518 1207 q 563 1028 563 1089 q 529 886 563 956 q 425 758 496 817 z "},"‘":{"ha":351,"x_min":69,"x_max":282,"o":"m 207 1246 q 251 1217 229 1236 q 282 1174 272 1197 q 216 1083 239 1124 q 193 997 193 1042 q 220 907 193 947 q 272 842 247 867 q 224 791 258 815 q 157 758 190 767 q 92 857 114 799 q 69 976 69 915 q 103 1119 69 1050 q 207 1246 136 1188 z "},"’":{"ha":351,"x_min":69,"x_max":282,"o":"m 144 758 q 101 788 122 769 q 69 831 81 807 q 136 922 114 881 q 158 1007 158 964 q 131 1097 158 1057 q 79 1163 104 1138 q 128 1213 94 1189 q 194 1246 161 1238 q 260 1148 238 1207 q 282 1028 282 1089 q 249 886 282 956 q 144 758 215 817 z "},"«":{"ha":713,"x_min":32,"x_max":650,"o":"m 274 24 l 32 325 l 264 626 q 320 597 296 617 q 363 549 344 576 l 190 325 l 369 103 q 335 53 360 72 q 274 24 310 33 m 554 24 l 313 325 l 544 626 q 601 597 576 617 q 643 549 625 576 l 471 325 l 650 103 q 615 53 640 72 q 554 24 590 33 z "},"»":{"ha":713,"x_min":14,"x_max":632,"o":"m 390 24 q 331 53 356 33 q 294 103 306 72 l 474 325 l 301 549 q 345 597 321 576 q 400 626 369 617 l 632 325 l 390 24 m 110 24 q 50 53 75 33 q 14 103 25 72 l 193 325 l 21 549 q 65 597 40 576 q 119 626 89 617 l 351 325 l 110 24 z "},"‹":{"ha":432,"x_min":32,"x_max":369,"o":"m 274 24 l 32 325 l 264 626 q 320 597 296 617 q 363 549 344 576 l 190 325 l 369 103 q 335 53 360 72 q 274 24 310 33 z "},"›":{"ha":432,"x_min":14,"x_max":351,"o":"m 110 24 q 50 53 75 33 q 14 103 25 72 l 193 325 l 21 549 q 65 597 40 576 q 119 626 89 617 l 351 325 l 110 24 z "},"\"":{"ha":690,"x_min":139,"x_max":551,"o":"m 428 813 l 414 1211 q 444 1218 426 1215 q 482 1221 463 1221 q 551 1211 518 1221 l 538 813 q 511 808 524 810 q 485 806 499 806 q 428 813 458 806 m 153 813 l 139 1211 q 169 1218 151 1215 q 207 1221 188 1221 q 276 1211 243 1221 l 263 813 q 236 808 249 810 q 210 806 224 806 q 153 813 183 806 z "},"'":{"ha":415,"x_min":139,"x_max":276,"o":"m 153 813 l 139 1211 q 169 1218 151 1215 q 207 1221 188 1221 q 276 1211 243 1221 l 263 813 q 236 808 249 810 q 210 806 224 806 q 153 813 183 806 z "},"✏":{"ha":1389,"x_min":175,"x_max":1214,"o":"m 1214 556 l 739 81 l 175 0 l 268 558 l 749 1039 l 994 965 l 1169 790 l 1214 556 m 1001 668 l 1101 628 l 1075 742 l 936 881 l 824 918 l 861 808 l 1001 668 m 396 547 l 422 468 l 756 801 l 728 879 l 396 547 m 1025 718 q 997 716 1015 710 q 943 757 979 722 q 902 812 908 793 q 906 840 896 831 q 934 844 915 850 q 988 803 953 838 q 1028 747 1022 767 q 1025 718 1035 728 m 468 375 l 557 285 l 899 626 l 810 717 l 468 375 m 643 232 l 714 204 l 1057 539 l 979 568 l 643 232 m 311 240 q 354 168 326 192 q 421 132 382 144 l 619 161 l 550 188 l 381 358 l 349 453 l 311 240 z "},"@":{"ha":1717,"x_min":139,"x_max":1578,"o":"m 814 -19 q 660 22 726 -19 q 558 139 594 64 q 521 311 521 214 q 562 499 521 417 q 675 628 603 581 q 839 675 747 675 q 935 656 888 675 q 1014 606 982 638 l 1014 663 q 1043 669 1026 667 q 1078 672 1060 672 q 1140 663 1111 672 l 1140 243 q 1160 133 1140 167 q 1225 100 1181 100 q 1334 133 1285 100 q 1414 227 1383 165 q 1444 376 1444 289 q 1402 608 1444 503 q 1283 790 1360 713 q 1101 908 1206 867 q 871 950 996 950 q 629 903 739 950 q 440 774 519 857 q 316 581 360 692 q 272 343 272 471 q 318 83 272 200 q 449 -117 364 -33 q 651 -244 533 -200 q 910 -289 768 -289 q 1010 -284 957 -289 q 1133 -264 1063 -279 q 1158 -318 1153 -285 q 1157 -379 1163 -351 q 1032 -406 1101 -397 q 900 -414 963 -414 q 591 -361 731 -414 q 350 -210 451 -308 q 194 28 249 -111 q 139 338 139 167 q 193 626 139 492 q 347 860 247 760 q 580 1018 446 961 q 872 1075 714 1075 q 1151 1024 1022 1075 q 1375 881 1279 974 q 1524 660 1471 788 q 1578 382 1578 533 q 1527 148 1578 236 q 1394 20 1476 60 q 1215 -19 1311 -19 q 1038 89 1083 -19 q 940 9 997 38 q 814 -19 883 -19 m 650 311 q 695 156 650 213 q 819 100 740 100 q 960 160 907 100 q 1014 317 1014 219 l 1014 472 q 943 533 986 510 q 854 556 900 556 q 749 524 794 556 q 676 437 703 492 q 650 311 650 382 z "},"&":{"ha":1158,"x_min":110,"x_max":1090,"o":"m 500 100 q 669 139 600 100 q 773 244 738 178 q 808 396 808 311 q 808 403 808 400 q 719 435 763 415 q 650 479 676 454 q 694 574 660 536 q 768 613 729 613 q 835 590 797 613 q 897 514 872 568 q 980 522 933 517 q 1057 539 1026 528 q 1081 483 1072 515 q 1088 421 1090 450 q 1016 405 1058 413 q 924 394 974 397 q 924 376 924 386 q 878 183 924 274 q 738 37 832 93 q 496 -19 643 -19 q 290 20 376 -19 q 156 129 203 60 q 110 289 110 199 q 229 515 110 438 q 110 739 110 590 q 152 888 110 825 q 272 987 194 951 q 453 1022 349 1022 q 669 965 585 1022 q 782 796 753 907 q 656 760 736 760 q 585 866 639 829 q 447 903 531 903 q 297 859 354 903 q 240 739 240 815 q 294 622 240 667 q 433 578 347 578 l 494 578 q 503 519 503 556 q 497 464 504 483 l 433 464 q 296 419 351 464 q 240 297 240 375 q 310 152 240 204 q 500 100 381 100 z "},"¶":{"ha":1057,"x_min":97,"x_max":946,"o":"m 886 -357 q 826 -347 854 -357 l 826 882 l 719 882 l 719 -347 q 589 -347 658 -367 l 589 293 l 531 293 q 302 333 400 293 q 151 452 204 372 q 97 651 97 532 q 149 847 97 769 q 296 964 201 925 q 518 1003 390 1003 l 946 1003 l 946 -347 q 886 -357 922 -357 z "},"§":{"ha":817,"x_min":64,"x_max":753,"o":"m 731 -74 q 687 -229 731 -162 q 567 -331 643 -296 q 396 -367 492 -367 q 176 -306 261 -365 q 64 -149 92 -247 q 113 -106 79 -122 q 178 -93 147 -90 q 261 -207 203 -168 q 403 -244 319 -246 q 546 -198 492 -243 q 600 -75 600 -153 q 476 78 600 43 l 292 129 q 139 224 194 157 q 83 385 83 292 q 103 490 83 442 q 160 575 124 538 q 106 733 106 642 q 148 882 106 817 q 265 984 190 947 q 435 1021 339 1021 q 627 976 542 1021 q 747 857 713 931 q 706 813 735 835 q 644 781 678 792 q 431 899 576 899 q 290 855 344 899 q 236 742 236 811 q 379 590 236 631 l 543 546 q 697 448 642 519 q 753 275 753 376 q 735 171 753 218 q 683 86 717 124 q 731 -74 731 18 m 521 197 q 589 171 557 188 q 622 274 622 213 q 499 426 622 392 l 314 478 q 258 499 285 486 q 214 393 214 456 q 357 242 214 282 l 521 197 z "},"©":{"ha":1208,"x_min":83,"x_max":1125,"o":"m 604 -19 q 399 20 494 -19 q 233 131 304 60 q 123 298 163 203 q 83 503 83 393 q 123 707 83 613 q 234 872 163 801 q 400 983 306 943 q 604 1022 494 1022 q 808 983 714 1022 q 974 872 903 943 q 1085 707 1046 801 q 1125 503 1125 613 q 1085 298 1125 393 q 975 131 1046 203 q 810 20 904 60 q 604 -19 715 -19 m 604 92 q 810 146 719 92 q 954 293 901 200 q 1007 503 1007 386 q 953 712 1007 619 q 809 858 900 804 q 604 911 718 911 q 399 858 490 911 q 255 712 308 804 q 201 503 201 619 q 254 293 201 386 q 399 146 307 200 q 604 92 490 92 m 614 256 q 442 322 510 256 q 375 500 375 389 q 406 629 375 574 q 491 716 438 685 q 613 747 544 747 q 720 722 674 747 q 793 656 767 697 q 722 593 779 607 q 613 647 682 647 q 519 607 557 647 q 481 501 481 567 q 519 394 481 433 q 617 356 557 356 q 681 367 650 356 q 728 401 711 379 q 772 381 751 399 q 797 338 792 363 q 722 277 771 299 q 614 256 674 256 z "},"®":{"ha":969,"x_min":83,"x_max":886,"o":"m 486 567 q 281 620 372 567 q 137 765 190 674 q 83 969 83 856 q 137 1174 83 1083 q 281 1317 190 1264 q 486 1369 372 1369 q 690 1317 600 1369 q 833 1174 781 1264 q 886 969 886 1083 q 833 765 886 856 q 690 620 781 674 q 486 567 600 567 m 485 668 q 633 707 568 668 q 737 814 699 746 q 775 968 775 882 q 737 1122 775 1054 q 633 1229 699 1190 q 485 1268 568 1268 q 335 1229 401 1268 q 232 1122 269 1190 q 194 968 194 1054 q 232 814 194 882 q 335 707 269 746 q 485 668 401 668 m 432 794 q 389 788 417 788 q 346 794 361 788 l 346 1172 l 494 1172 q 606 1138 567 1172 q 646 1046 646 1103 q 624 972 646 1004 q 563 924 601 940 l 649 839 q 626 804 643 821 q 588 782 608 788 l 460 908 l 432 908 l 432 794 m 494 1092 l 432 1092 l 432 989 l 493 989 q 536 1003 519 989 q 553 1043 553 1017 q 536 1080 553 1068 q 494 1092 519 1092 z "},"™":{"ha":1161,"x_min":6,"x_max":1050,"o":"m 532 719 l 532 1240 q 570 1244 546 1243 q 617 1240 594 1246 l 792 917 l 967 1240 q 1012 1245 986 1247 q 1050 1240 1038 1243 l 1050 719 q 953 719 1000 710 l 953 1024 l 838 808 q 746 808 786 797 l 629 1024 l 629 719 q 532 719 581 710 m 189 719 l 189 1147 l 19 1147 q 19 1240 6 1199 l 456 1240 q 463 1196 463 1222 q 456 1147 463 1169 l 289 1147 l 289 719 q 189 719 239 713 z "},"°":{"ha":714,"x_min":94,"x_max":619,"o":"m 358 497 q 225 533 285 497 q 130 628 165 568 q 94 760 94 688 q 129 892 94 833 q 224 987 164 951 q 358 1022 285 1022 q 492 987 433 1022 q 585 892 551 951 q 619 760 619 833 q 585 628 619 688 q 491 533 550 568 q 358 497 432 497 m 358 608 q 463 652 421 608 q 506 760 506 696 q 463 867 506 822 q 358 911 421 911 q 253 867 294 911 q 211 760 211 822 q 253 652 211 696 q 358 608 294 608 z "},"|":{"ha":546,"x_min":214,"x_max":332,"o":"m 274 -376 q 214 -367 242 -376 l 214 1350 q 274 1360 244 1360 q 332 1350 311 1360 l 332 -367 q 274 -376 304 -376 z "},"¦":{"ha":546,"x_min":214,"x_max":332,"o":"m 274 665 q 214 675 242 665 l 214 1350 q 274 1360 244 1360 q 332 1350 311 1360 l 332 675 q 274 665 304 665 m 274 -376 q 214 -367 242 -376 l 214 308 q 274 318 244 318 q 332 308 311 318 l 332 -367 q 274 -376 304 -376 z "},"¢":{"ha":829,"x_min":83,"x_max":760,"o":"m 444 -71 q 389 -61 414 -71 l 389 124 q 166 252 249 149 q 83 513 83 356 q 166 774 83 669 q 389 901 249 878 l 389 1086 q 444 1096 418 1096 q 499 1086 478 1096 l 499 907 q 634 876 571 903 q 739 808 697 850 q 715 754 736 782 q 661 715 693 726 q 499 788 596 779 l 499 238 q 678 318 614 246 q 729 283 707 308 q 760 232 751 258 q 651 152 719 182 q 499 117 582 122 l 499 -61 q 444 -71 474 -71 m 206 514 q 253 338 206 408 q 389 246 301 268 l 389 779 q 254 688 303 757 q 206 514 206 619 z "},"$":{"ha":819,"x_min":72,"x_max":739,"o":"m 413 -196 q 357 -186 382 -196 l 357 -15 q 169 53 242 -4 q 72 200 97 110 q 122 242 88 226 q 186 256 156 258 q 357 108 228 131 l 357 463 l 300 478 q 147 573 203 506 q 92 733 92 640 q 125 867 92 807 q 219 965 158 926 q 357 1017 279 1004 l 357 1225 q 413 1235 386 1235 q 467 1225 446 1235 l 467 1018 q 630 966 558 1010 q 733 857 701 922 q 692 813 721 835 q 631 781 664 792 q 467 894 575 875 l 467 563 l 529 546 q 683 448 628 519 q 739 275 739 376 q 704 135 739 196 q 608 35 669 74 q 467 -14 546 -4 l 467 -186 q 413 -196 442 -196 m 222 742 q 258 649 222 688 q 357 593 293 611 l 357 892 q 259 839 296 879 q 222 742 222 799 m 485 426 l 467 432 l 467 110 q 570 166 532 124 q 608 274 608 208 q 485 426 608 392 z "},"₫":{"ha":879,"x_min":119,"x_max":839,"o":"m 399 219 q 253 260 317 219 q 155 370 190 300 q 119 529 119 440 q 157 696 119 621 q 261 815 194 771 q 415 858 328 858 q 517 840 469 858 q 597 789 564 822 l 597 975 l 404 975 q 394 1031 394 997 q 404 1086 394 1064 l 597 1086 l 597 1222 q 626 1229 610 1226 q 661 1232 643 1232 q 724 1222 694 1232 l 724 1086 l 828 1086 q 839 1031 839 1064 q 828 975 839 997 l 724 975 l 724 217 q 608 217 672 196 l 608 321 q 515 244 569 269 q 399 219 461 219 m 249 528 q 293 391 249 443 q 410 339 338 339 q 503 365 461 339 q 572 440 546 392 q 597 554 597 489 l 597 650 q 529 715 571 692 q 436 739 488 739 q 299 678 349 739 q 249 528 249 617 m 158 0 q 149 56 149 22 q 158 111 149 89 l 790 111 q 801 56 801 89 q 790 0 801 22 l 158 0 z "},"€":{"ha":1119,"x_min":69,"x_max":1061,"o":"m 79 324 q 69 381 69 347 q 79 436 69 414 l 229 436 q 226 501 226 468 q 229 563 226 533 l 79 563 q 69 619 69 586 q 79 675 69 653 l 247 675 q 408 928 290 835 q 700 1022 525 1022 q 893 990 807 1022 q 1035 900 979 957 q 1006 845 1029 875 q 958 801 983 815 q 706 899 857 899 q 505 840 588 899 q 385 675 422 781 l 742 675 q 751 619 751 653 q 742 563 751 586 l 361 563 q 358 503 358 533 q 363 436 358 468 l 742 436 q 751 381 751 414 q 742 324 751 347 l 388 324 q 508 162 425 219 q 708 104 590 104 q 861 132 790 104 q 978 208 932 160 q 1025 172 1000 199 q 1061 122 1050 146 q 914 19 1008 57 q 708 -19 819 -19 q 413 72 532 -19 q 249 324 293 164 l 79 324 z "},"£":{"ha":875,"x_min":83,"x_max":813,"o":"m 93 397 q 83 454 83 421 q 93 510 83 488 l 193 510 q 183 535 189 521 q 153 613 164 582 q 139 667 143 643 q 135 717 135 690 q 177 869 135 803 q 293 975 219 936 q 460 1014 367 1014 q 621 974 551 1014 q 732 865 690 935 q 778 706 774 796 q 650 688 718 681 q 599 837 649 783 q 458 890 549 890 q 318 844 371 890 q 265 722 265 799 q 274 654 265 689 q 308 556 283 619 q 326 510 318 531 l 563 510 q 572 454 572 488 q 563 397 572 421 l 357 397 q 360 361 360 379 q 278 124 360 238 q 350 131 317 131 q 401 127 374 131 q 475 115 428 124 q 544 103 525 106 q 585 101 564 101 q 772 142 681 101 q 813 35 813 101 q 722 -4 779 11 q 607 -19 665 -19 q 536 -15 576 -19 q 457 -3 496 -10 q 372 12 400 8 q 313 15 344 15 q 218 10 268 15 q 135 -1 168 6 q 96 101 99 35 q 194 222 157 149 q 232 363 232 294 q 229 397 232 381 l 93 397 z "},"¥":{"ha":913,"x_min":36,"x_max":876,"o":"m 458 -10 q 393 0 426 -10 l 393 383 l 36 953 q 85 999 51 982 q 146 1017 118 1017 l 458 518 l 768 1015 q 833 999 800 1017 q 876 954 867 981 l 522 382 l 522 0 q 458 -10 493 -10 m 125 383 q 115 440 115 407 q 125 496 115 474 l 788 496 q 797 440 797 474 q 788 383 797 407 l 125 383 m 125 172 q 115 229 115 196 q 125 285 115 263 l 788 285 q 797 229 797 263 q 788 172 797 196 l 125 172 z "},"+":{"ha":972,"x_min":146,"x_max":828,"o":"m 426 186 l 426 461 l 156 461 q 146 518 146 485 q 156 574 146 551 l 426 574 l 426 849 q 486 858 450 858 q 544 849 522 858 l 544 574 l 818 574 q 828 518 828 551 q 818 461 828 485 l 544 461 l 544 186 q 486 176 522 176 q 426 186 450 176 z "},"−":{"ha":972,"x_min":146,"x_max":828,"o":"m 156 461 q 146 518 146 485 q 156 574 146 551 l 818 574 q 828 518 828 551 q 818 461 828 485 l 156 461 z "},"×":{"ha":972,"x_min":211,"x_max":763,"o":"m 211 315 l 406 510 l 214 701 q 247 747 224 724 q 293 781 271 771 l 485 589 l 679 783 q 728 748 703 774 q 763 700 753 722 l 568 506 l 763 313 q 729 266 753 290 q 682 232 706 242 l 489 426 l 294 232 q 246 266 271 240 q 211 315 221 292 z "},"÷":{"ha":972,"x_min":146,"x_max":828,"o":"m 156 461 q 146 518 146 485 q 156 574 146 551 l 818 574 q 828 518 828 551 q 818 461 828 485 l 156 461 m 486 167 q 419 195 447 167 q 392 263 392 224 q 419 329 392 301 q 486 357 447 357 q 553 329 525 357 q 582 263 582 301 q 553 195 582 224 q 486 167 525 167 m 486 678 q 419 706 447 678 q 392 774 392 735 q 419 840 392 813 q 486 868 447 868 q 553 840 525 868 q 582 774 582 813 q 553 706 582 735 q 486 678 525 678 z "},"=":{"ha":972,"x_min":146,"x_max":828,"o":"m 156 629 q 146 686 146 653 q 156 742 146 719 l 818 742 q 828 686 828 719 q 818 629 828 653 l 156 629 m 156 293 q 146 350 146 317 q 156 406 146 383 l 818 406 q 828 350 828 383 q 818 293 828 317 l 156 293 z "},"≠":{"ha":972,"x_min":146,"x_max":828,"o":"m 260 122 l 331 293 l 156 293 q 146 350 146 317 q 156 406 146 383 l 376 406 l 468 629 l 156 629 q 146 686 146 653 q 156 742 146 719 l 514 742 l 604 961 q 666 949 632 964 q 714 915 700 935 l 643 742 l 818 742 q 828 686 828 719 q 818 629 828 653 l 597 629 l 506 406 l 818 406 q 828 350 828 383 q 818 293 828 317 l 460 293 l 371 74 q 306 87 332 74 q 260 122 279 100 z "},">":{"ha":972,"x_min":229,"x_max":768,"o":"m 288 171 q 246 206 263 182 q 229 269 229 231 l 611 518 l 229 761 q 246 822 229 797 q 292 858 263 846 l 758 560 q 758 476 768 517 l 288 171 z "},"<":{"ha":972,"x_min":204,"x_max":743,"o":"m 685 171 l 214 476 q 214 560 204 517 l 681 858 q 726 822 710 846 q 743 761 743 797 l 361 518 l 743 269 q 726 206 743 231 q 685 171 710 182 z "},"≈":{"ha":972,"x_min":135,"x_max":838,"o":"m 649 222 q 561 239 601 222 q 476 282 521 256 q 404 324 429 310 q 364 342 379 338 q 331 347 349 347 q 275 321 297 347 q 246 238 253 294 q 135 274 171 231 q 198 413 142 360 q 326 467 254 467 q 413 450 374 467 q 514 394 451 433 q 583 354 558 367 q 636 342 607 342 q 725 450 710 342 q 838 418 794 461 q 775 278 824 335 q 649 222 726 222 m 649 556 q 561 572 601 556 q 476 615 521 589 q 404 657 429 643 q 364 676 379 671 q 331 681 349 681 q 275 654 297 681 q 246 571 253 628 q 135 607 171 564 q 198 747 142 693 q 326 800 254 800 q 413 783 374 800 q 514 728 451 767 q 583 688 558 700 q 636 675 607 675 q 725 783 710 675 q 838 751 794 794 q 775 612 824 668 q 649 556 726 556 z "},"~":{"ha":972,"x_min":135,"x_max":838,"o":"m 649 389 q 561 406 601 389 q 476 449 521 422 q 404 490 429 476 q 364 509 379 504 q 331 514 349 514 q 275 488 297 514 q 246 404 253 461 q 135 440 171 397 q 198 580 142 526 q 326 633 254 633 q 413 617 374 633 q 514 561 451 600 q 583 521 558 533 q 636 508 607 508 q 725 617 710 508 q 838 585 794 628 q 775 445 824 501 q 649 389 726 389 z "},"¬":{"ha":972,"x_min":146,"x_max":847,"o":"m 156 461 q 146 518 146 485 q 156 574 146 551 l 847 574 l 847 233 q 729 233 793 208 l 729 461 l 156 461 z "},"^":{"ha":972,"x_min":196,"x_max":776,"o":"m 293 681 q 233 697 257 681 q 196 743 208 714 l 444 1131 q 528 1131 488 1140 l 776 743 q 741 701 765 718 q 678 685 717 685 l 486 983 l 293 681 z "},"%":{"ha":1607,"x_min":94,"x_max":1513,"o":"m 358 497 q 225 533 285 497 q 130 628 165 568 q 94 760 94 688 q 129 892 94 833 q 224 987 164 951 q 358 1022 285 1022 q 492 987 433 1022 q 585 892 551 951 q 619 760 619 833 q 585 628 619 688 q 491 533 550 568 q 358 497 432 497 m 358 608 q 463 652 421 608 q 506 760 506 696 q 463 867 506 822 q 358 911 421 911 q 253 867 294 911 q 211 760 211 822 q 253 652 211 696 q 358 608 294 608 m 661 -14 q 597 -3 624 -14 q 550 28 571 8 l 957 1017 q 1019 1007 985 1019 q 1067 978 1053 994 l 661 -14 m 1251 -19 q 1118 16 1178 -19 q 1023 111 1058 51 q 988 243 988 171 q 1022 376 988 317 q 1117 470 1057 435 q 1251 506 1178 506 q 1385 470 1326 506 q 1478 376 1444 435 q 1513 243 1513 317 q 1478 111 1513 171 q 1384 16 1443 51 q 1251 -19 1325 -19 m 1251 92 q 1356 135 1314 92 q 1399 243 1399 179 q 1356 350 1399 306 q 1251 394 1314 394 q 1146 350 1188 394 q 1104 243 1104 306 q 1146 135 1104 179 q 1251 92 1188 92 z "},"↑":{"ha":972,"x_min":242,"x_max":731,"o":"m 547 119 q 487 108 525 108 q 425 119 449 108 q 426 337 425 243 q 431 508 428 431 q 438 658 433 586 l 272 597 q 251 619 261 604 q 243 651 242 635 l 456 889 q 488 896 468 896 q 517 889 507 896 l 729 651 q 721 619 731 635 q 700 597 711 604 l 535 658 q 542 508 540 586 q 546 337 544 431 q 547 119 547 243 z "},"↗":{"ha":972,"x_min":182,"x_max":790,"o":"m 268 197 q 217 232 244 206 q 182 283 190 258 q 337 436 269 371 q 460 554 404 501 q 572 656 517 607 l 411 729 q 413 760 408 742 q 429 789 417 778 l 747 806 q 774 788 761 801 q 790 763 788 775 l 774 444 q 744 428 763 432 q 714 426 726 424 l 640 588 q 540 476 592 532 q 422 352 488 419 q 268 197 356 285 z "},"→":{"ha":972,"x_min":93,"x_max":881,"o":"m 104 564 q 322 563 228 564 q 493 559 415 561 q 643 551 571 557 l 582 717 q 604 738 589 728 q 636 746 619 747 l 874 533 q 881 504 881 524 q 874 472 881 485 l 636 260 q 604 268 619 258 q 582 289 589 278 l 643 454 q 493 447 571 450 q 322 443 415 444 q 104 442 228 442 q 93 503 93 465 q 104 564 93 542 z "},"↘":{"ha":972,"x_min":182,"x_max":790,"o":"m 182 722 q 217 773 190 746 q 268 808 243 800 q 421 653 356 721 q 539 530 486 586 q 640 418 592 474 l 714 579 q 744 578 726 582 q 774 561 763 574 l 790 243 q 773 216 786 229 q 747 200 760 203 l 429 217 q 413 246 417 228 q 411 276 408 264 l 572 350 q 460 451 517 399 q 337 569 404 503 q 182 722 269 635 z "},"↓":{"ha":972,"x_min":242,"x_max":731,"o":"m 547 885 q 546 667 547 761 q 542 496 544 574 q 535 346 540 418 l 700 407 q 721 385 711 401 q 729 353 731 369 l 517 115 q 488 110 507 110 q 456 115 468 110 l 243 353 q 251 385 242 369 q 272 407 261 401 l 438 346 q 431 496 433 418 q 426 667 428 574 q 425 885 425 761 q 487 896 449 896 q 547 885 525 896 z "},"↙":{"ha":972,"x_min":182,"x_max":790,"o":"m 790 719 q 635 566 703 632 q 512 448 568 500 q 400 347 456 396 l 561 274 q 560 243 564 261 q 543 214 556 225 l 225 197 q 199 213 213 200 q 182 240 186 226 l 199 558 q 228 575 210 571 q 258 576 246 579 l 332 415 q 433 527 381 471 q 551 651 486 583 q 704 806 617 718 q 756 770 729 797 q 790 719 782 743 z "},"←":{"ha":972,"x_min":93,"x_max":879,"o":"m 868 564 q 879 503 879 542 q 868 442 879 465 q 651 443 744 442 q 479 447 557 444 q 329 454 401 450 l 390 289 q 369 268 385 278 q 336 260 353 258 l 99 472 q 93 504 93 485 q 99 533 93 524 l 336 746 q 369 738 353 747 q 390 717 385 728 l 329 551 q 479 559 401 557 q 651 563 557 561 q 868 564 744 564 z "},"↖":{"ha":972,"x_min":182,"x_max":790,"o":"m 790 285 q 756 234 782 261 q 704 199 729 207 q 551 353 617 286 q 433 477 486 421 q 332 589 381 533 l 258 428 q 228 429 246 425 q 199 446 210 433 l 182 764 q 199 791 186 778 q 225 807 213 804 l 543 790 q 560 761 556 779 q 561 731 564 743 l 400 657 q 512 556 456 608 q 635 438 568 504 q 790 285 703 372 z "},"⇔":{"ha":1181,"x_min":60,"x_max":1122,"o":"m 590 607 q 737 606 668 607 q 867 601 806 604 l 824 717 q 846 738 831 728 q 878 746 861 747 l 1115 533 q 1122 504 1122 524 q 1115 472 1122 485 l 878 260 q 846 268 861 258 q 824 289 831 278 l 867 406 q 737 401 806 403 q 590 400 668 400 q 444 401 513 400 q 314 406 375 403 l 357 289 q 335 268 351 278 q 303 260 319 258 l 65 472 q 60 504 60 485 q 65 533 60 524 l 303 746 q 335 738 319 747 q 357 717 351 728 l 314 601 q 444 606 375 604 q 590 607 513 607 m 278 503 l 293 461 q 431 467 357 465 q 590 468 506 468 q 749 467 675 468 q 888 461 824 465 l 903 503 l 888 544 q 749 540 824 542 q 590 539 675 539 q 431 540 506 539 q 293 544 357 542 l 278 503 z "},"○":{"ha":861,"x_min":83,"x_max":778,"o":"m 432 -19 q 254 26 333 -19 q 129 151 175 72 q 83 329 83 231 q 129 506 83 428 q 254 629 175 583 q 432 675 333 675 q 608 629 531 675 q 732 506 686 583 q 778 329 778 428 q 732 151 778 231 q 608 26 686 72 q 432 -19 531 -19 m 431 85 q 551 117 499 85 q 635 204 604 149 q 667 328 667 260 q 635 452 667 397 q 551 539 604 507 q 431 571 499 571 q 310 539 364 571 q 226 452 257 507 q 194 328 194 397 q 226 203 194 258 q 310 117 257 149 q 431 85 364 85 z "},"◯":{"ha":1208,"x_min":83,"x_max":1125,"o":"m 604 -19 q 399 20 494 -19 q 233 131 304 60 q 123 298 163 203 q 83 503 83 393 q 123 707 83 613 q 234 872 163 801 q 400 983 306 943 q 604 1022 494 1022 q 808 983 714 1022 q 974 872 903 943 q 1085 707 1046 801 q 1125 503 1125 613 q 1085 298 1125 393 q 975 131 1046 203 q 810 20 904 60 q 604 -19 715 -19 m 604 92 q 810 146 719 92 q 954 293 901 200 q 1007 503 1007 386 q 953 712 1007 619 q 809 858 900 804 q 604 911 718 911 q 399 858 490 911 q 255 712 308 804 q 201 503 201 619 q 254 293 201 386 q 399 146 307 200 q 604 92 490 92 z "},"◌":{"ha":1286,"x_min":139,"x_max":1183,"o":"m 661 890 q 612 910 631 890 q 593 956 593 929 q 612 1002 593 983 q 661 1021 631 1021 q 710 1002 690 1021 q 729 956 729 983 q 710 910 729 929 q 661 890 690 890 m 835 856 q 785 875 804 856 q 767 921 767 894 q 785 967 767 949 q 835 986 804 986 q 883 967 864 986 q 903 921 903 949 q 883 875 903 894 q 835 856 864 856 m 488 856 q 439 875 458 856 q 419 921 419 894 q 439 967 419 949 q 488 986 458 986 q 537 967 518 986 q 556 921 556 949 q 537 875 556 894 q 488 856 518 856 m 982 757 q 933 776 951 757 q 914 822 914 796 q 933 869 914 850 q 982 888 951 888 q 1031 869 1011 888 q 1050 822 1050 850 q 1031 776 1050 796 q 982 757 1011 757 m 340 757 q 292 776 311 757 q 272 822 272 796 q 292 869 272 850 q 340 888 311 888 q 390 869 371 888 q 408 822 408 850 q 390 776 408 796 q 340 757 371 757 m 1081 608 q 1031 628 1050 608 q 1013 674 1013 647 q 1031 720 1013 701 q 1081 739 1050 739 q 1129 720 1110 739 q 1149 674 1149 701 q 1129 628 1149 647 q 1081 608 1110 608 m 242 608 q 193 628 213 608 q 174 674 174 647 q 193 720 174 701 q 242 739 213 739 q 291 720 272 739 q 310 674 310 701 q 291 628 310 647 q 242 608 272 608 m 1115 438 q 1066 457 1085 438 q 1047 503 1047 476 q 1066 549 1047 531 q 1115 568 1085 568 q 1164 549 1144 568 q 1183 503 1183 531 q 1164 457 1183 476 q 1115 438 1144 438 m 207 438 q 158 457 178 438 q 139 503 139 476 q 158 549 139 531 q 207 568 178 568 q 256 549 238 568 q 275 503 275 531 q 256 457 275 476 q 207 438 238 438 m 1081 397 q 1129 378 1110 397 q 1149 332 1149 360 q 1129 286 1149 306 q 1081 267 1110 267 q 1031 286 1050 267 q 1013 332 1013 306 q 1031 378 1013 360 q 1081 397 1050 397 m 242 397 q 291 378 272 397 q 310 332 310 360 q 291 286 310 306 q 242 267 272 267 q 193 286 213 267 q 174 332 174 306 q 193 378 174 360 q 242 397 213 397 m 982 249 q 1031 230 1011 249 q 1050 183 1050 211 q 1031 138 1050 157 q 982 118 1011 118 q 933 138 951 118 q 914 183 914 157 q 933 230 914 211 q 982 249 951 249 m 340 249 q 390 230 371 249 q 408 183 408 211 q 390 138 408 157 q 340 118 371 118 q 292 138 311 118 q 272 183 272 157 q 292 230 272 211 q 340 249 311 249 m 835 150 q 883 131 864 150 q 903 85 903 113 q 883 39 903 58 q 835 19 864 19 q 785 39 804 19 q 767 85 767 58 q 785 131 767 113 q 835 150 804 150 m 488 150 q 537 131 518 150 q 556 85 556 113 q 537 39 556 58 q 488 19 518 19 q 439 39 458 19 q 419 85 419 58 q 439 131 419 113 q 488 150 458 150 m 661 -17 q 612 3 631 -17 q 593 49 593 22 q 612 95 593 76 q 661 114 631 114 q 710 95 690 114 q 729 49 729 76 q 710 3 729 22 q 661 -17 690 -17 z "},"̈":{"ha":0,"x_min":138,"x_max":651,"o":"m 557 856 q 490 883 518 856 q 463 950 463 911 q 490 1018 463 992 q 557 1044 517 1044 q 625 1018 599 1044 q 651 950 651 992 q 624 883 651 910 q 557 856 597 856 m 232 856 q 165 883 193 856 q 138 950 138 911 q 165 1018 138 992 q 232 1044 192 1044 q 300 1018 274 1044 q 326 950 326 992 q 299 883 326 910 q 232 856 272 856 z "},"̇":{"ha":0,"x_min":128,"x_max":317,"o":"m 222 856 q 156 883 183 856 q 128 950 128 911 q 155 1018 128 992 q 222 1044 182 1044 q 290 1018 264 1044 q 317 950 317 992 q 290 883 317 910 q 222 856 263 856 z "},"̀":{"ha":0,"x_min":171,"x_max":494,"o":"m 422 796 q 319 872 369 829 q 231 956 269 914 q 171 1028 192 997 q 208 1076 183 1056 q 265 1104 233 1096 q 324 1038 286 1075 q 406 963 361 1000 q 494 894 451 925 q 467 839 486 865 q 422 796 449 813 z "},"́":{"ha":0,"x_min":135,"x_max":451,"o":"m 206 796 q 135 894 150 831 q 222 963 178 925 q 301 1038 265 1000 q 358 1104 338 1075 q 415 1076 390 1096 q 451 1028 439 1056 q 394 956 432 997 q 308 872 356 914 q 206 796 260 829 z "},"̂":{"ha":0,"x_min":133,"x_max":626,"o":"m 214 796 q 166 829 190 803 q 133 882 142 856 q 230 981 176 922 q 338 1104 283 1039 q 422 1104 381 1111 q 530 981 476 1039 q 626 882 583 924 q 594 829 618 856 q 546 796 569 803 q 496 839 525 811 q 436 901 467 867 q 379 967 406 935 q 290 867 338 917 q 214 796 243 817 z "},"̆":{"ha":0,"x_min":122,"x_max":628,"o":"m 375 796 q 199 860 265 796 q 122 1046 133 925 q 178 1066 146 1061 q 240 1064 211 1071 q 283 952 251 990 q 375 914 315 914 q 467 952 435 914 q 510 1064 500 990 q 572 1066 539 1071 q 628 1046 606 1061 q 551 860 617 925 q 375 796 486 796 z "},"̃":{"ha":0,"x_min":204,"x_max":735,"o":"m 569 956 q 615 972 600 956 q 647 1019 629 988 q 735 988 704 1019 q 679 883 721 924 q 574 842 638 842 q 533 848 556 842 q 467 876 511 854 q 413 903 438 892 q 367 915 388 915 q 326 899 342 915 q 292 851 311 883 q 242 859 265 853 q 204 883 219 865 q 262 988 217 947 q 367 1028 307 1028 q 424 1017 397 1028 q 479 992 451 1007 q 524 968 500 981 q 569 956 547 956 z "}}}
